0
SECTION
2
HEADER
9
$INSUNITS
70
1
9
$ACADVER
1
AC1014
9
$HANDSEED
5
FFFF
0
ENDSEC
0
SECTION
2
TABLES
0
TABLE
2
VPORT
5
8
100
AcDbSymbolTable
0
ENDTAB
0
TABLE
2
LTYPE
5
5
100
AcDbSymbolTable
0
LTYPE
5
14
100
AcDbSymbolTableRecord
100
AcDbLinetypeTableRecord
2
BYBLOCK
70
0
0
LTYPE
5
15
100
AcDbSymbolTableRecord
100
AcDbLinetypeTableRecord
2
BYLAYER
70
0
0
ENDTAB
0
TABLE
2
LAYER
5
2
100
AcDbSymbolTable
70
2
0
LAYER
5
50
100
AcDbSymbolTableRecord
100
AcDbLayerTableRecord
2
0
70
0
6
CONTINUOUS
0
ENDTAB
0
TABLE
2
STYLE
5
3
100
AcDbSymbolTable
70
1
0
STYLE
5
11
100
AcDbSymbolTableRecord
100
AcDbTextStyleTableRecord
2
STANDARD
70
0
0
ENDTAB
0
TABLE
2
VIEW
5
6
100
AcDbSymbolTable
70
0
0
ENDTAB
0
TABLE
2
UCS
5
7
100
AcDbSymbolTable
70
0
0
ENDTAB
0
TABLE
2
APPID
5
9
100
AcDbSymbolTable
70
2
0
APPID
5
12
100
AcDbSymbolTableRecord
100
AcDbRegAppTableRecord
2
ACAD
70
0
0
ENDTAB
0
TABLE
2
DIMSTYLE
5
A
100
AcDbSymbolTable
70
1
0
ENDTAB
0
TABLE
2
BLOCK_RECORD
5
1
100
AcDbSymbolTable
70
1
0
BLOCK_RECORD
5
1F
100
AcDbSymbolTableRecord
100
AcDbBlockTableRecord
2
*MODEL_SPACE
0
BLOCK_RECORD
5
1B
100
AcDbSymbolTableRecord
100
AcDbBlockTableRecord
2
*PAPER_SPACE
0
ENDTAB
0
ENDSEC
0
SECTION
2
BLOCKS
0
BLOCK
5
20
100
AcDbEntity
100
AcDbBlockBegin
2
*MODEL_SPACE
0
ENDBLK
5
21
100
AcDbEntity
100
AcDbBlockEnd
0
BLOCK
5
1C
100
AcDbEntity
100
AcDbBlockBegin
2
*PAPER_SPACE
0
ENDBLK
5
1D
100
AcDbEntity
100
AcDbBlockEnd
0
ENDSEC
0
SECTION
2
ENTITIES
0
LWPOLYLINE
5
100
100
AcDbEntity
8
0
100
AcDbPolyline
90
4
70
1
43
0.0
10
0.19250000000000006
20
-1.0557677165354329
10
0.46021653543307078
20
-1.0557677165354329
10
0.46021653543307078
20
-0.78805118110236216
10
0.1925
20
-0.78805118110236216
0
CIRCLE
5
101
100
AcDbEntity
8
0
100
AcDbCircle
10
-1.0242519685039368
20
0.26251968503937007
30
0
40
0.029527559055118179
210
0
220
-0
230
1
0
CIRCLE
5
102
100
AcDbEntity
8
0
100
AcDbCircle
10
-0.29527559055118108
20
0.89763779527559062
30
0
40
0.062992125984251982
210
0
220
-0
230
1
0
CIRCLE
5
103
100
AcDbEntity
8
0
100
AcDbCircle
10
0.84645669291338577
20
-0.41338582677165353
30
0
40
0.062992125984252023
210
0
220
-0
230
1
0
CIRCLE
5
104
100
AcDbEntity
8
0
100
AcDbCircle
10
0.32385826771653548
20
-1.0814094488188977
30
0
40
0.019685039370078757
210
0
220
-0
230
1
0
ARC
5
105
100
AcDbEntity
8
0
100
AcDbCircle
10
-0.48047832119349743
20
-0.76992002173088681
30
0
40
0.27559055118110248
210
0
220
0
230
1
100
AcDbArc
50
-114.09971331980928
51
18.440077384719043
0
ARC
5
106
100
AcDbEntity
8
0
100
AcDbCircle
10
1.0927391974657052e-16
20
-1.7483827159451283e-16
30
-1.0775240406040977e-48
40
1.1811433719914564
210
-1.6182340197282438e-33
220
9.394397889320066e-34
230
1
100
AcDbArc
50
-120.13662004320651
51
141.13176174408943
0
LINE
5
107
100
AcDbEntity
8
0
100
AcDbLine
10
-0.91962776258248202
20
0.74120472440944896
30
-2.6938101015102442e-49
11
-0.28656692913385856
21
0.74120472440944896
31
0
0
LINE
5
108
100
AcDbEntity
8
0
100
AcDbLine
10
-0.28656692913385856
20
0.74120472440944896
30
0
11
-0.28656692913385828
21
-0.29816535433070851
31
0
0
LINE
5
109
100
AcDbEntity
8
0
100
AcDbLine
10
-0.28656692913385828
20
-0.29816535433070851
30
0
11
-0.96193700787401559
21
-0.29816535433070862
31
0
0
LINE
5
110
100
AcDbEntity
8
0
100
AcDbLine
10
-0.96193700787401559
20
-0.29816535433070862
30
0
11
-0.96193700787401581
21
0.68540269774909268
31
0
0
ARC
5
111
100
AcDbEntity
8
0
100
AcDbCircle
10
1.0927391974657052e-16
20
-1.7483827159451283e-16
30
-1.0775240406040977e-48
40
1.1811433719914568
210
7.4296502062662027e-49
220
-5.2938001688504482e-49
230
1
100
AcDbArc
50
144.52923578949557
51
236.20312738643335
0
ARC
5
112
100
AcDbEntity
8
0
100
AcDbCircle
10
-0.48047832119349743
20
-0.76992002173088681
30
0
40
0.27559055118110232
210
0
220
-0
230
1
100
AcDbArc
50
20.924332760383869
51
230.16622066303634
0
CIRCLE
5
113
100
AcDbEntity
8
0
100
AcDbCircle
10
-0.84645669291338577
20
-0.42913385826771655
30
0
40
0.062992125984252023
210
0
220
-0
230
1
0
LWPOLYLINE
5
114
100
AcDbEntity
8
0
100
AcDbPolyline
90
4
70
1
43
0.0
10
-0.15708661417322833
20
-0.39767716535433068
10
0.48858267716535431
20
-0.39767716535433068
10
0.48858267716535431
20
0.31885826771653542
10
-0.15708661417322833
20
0.31885826771653542
0
ARC
5
115
100
AcDbEntity
8
0
100
AcDbCircle
10
-0.48047415854438452
20
-0.76991863376717018
30
-1.9472165849628732e-45
40
0.27558616323273033
210
-6.6318088133713773e-45
220
-2.4396025334061085e-45
230
1
100
AcDbArc
50
18.440077384719043
51
20.924372302895222
0
LWPOLYLINE
5
116
100
AcDbEntity
8
0
100
AcDbPolyline
90
8
70
1
43
0.0
10
0.12003649150806878
20
-0.54455414402536984
10
-0.17457756715479963
20
-0.54455414402536984
42
0.41421356237309648
10
-0.21457756715479961
20
-0.58455414402536987
10
-0.2145775671547997
20
-0.65605889735405942
42
0.41421356237309437
10
-0.17457756715479966
20
-0.69605889735405946
10
0.1200364915080688
20
-0.69605889735405946
42
0.4142135623730952
10
0.16003649150806878
20
-0.65605889735405942
10
0.16003649150806876
20
-0.58455414402536987
42
0.41421356237309648
0
ENDSEC
0
SECTION
2
OBJECTS
0
DICTIONARY
5
C
100
AcDbDictionary
3
ACAD_GROUP
350
D
3
ACAD_MLINESTYLE
350
17
0
DICTIONARY
5
D
100
AcDbDictionary
0
DICTIONARY
5
1A
330
C
100
AcDbDictionary
0
DICTIONARY
5
17
100
AcDbDictionary
0
ENDSEC
0
EOF
