M48
; DRILL file {KiCad (5.1.10)-1} date 12/05/21 20:56:24
; FORMAT={-:-/ absolute / inch / decimal}
; #@! TF.CreationDate,2021-12-05T20:56:24-05:00
; #@! TF.GenerationSoftware,Kicad,Pcbnew,(5.1.10)-1
; #@! TF.FileFunction,Plated,1,2,PTH
FMAT,2
INCH
T1C0.0118
T2C0.0157
T3C0.0236
T4C0.0394
T5C0.0472
T6C0.0591
%
G90
G05
T1
X3.2461Y-2.9518
X3.3081Y-3.0438
X3.3681Y-2.3508
X3.3981Y-2.9548
X3.4861Y-2.6408
X3.5861Y-2.3848
X3.5891Y-2.2948
X3.6551Y-2.6458
X3.6961Y-2.3778
X3.8371Y-2.6248
X3.8511Y-3.1188
X3.8971Y-3.2748
X3.9091Y-3.3528
X4.0001Y-2.0828
X4.1361Y-2.3943
X4.1361Y-2.4643
X4.1491Y-2.7328
X4.155Y-2.428
X4.1571Y-2.1858
X4.1651Y-3.3478
X4.1825Y-2.3588
X4.1971Y-3.0408
X4.2001Y-2.9358
X4.2009Y-2.504
X4.2031Y-3.1488
X4.2172Y-2.3557
X4.2281Y-2.7128
X4.2379Y-2.5007
X4.2401Y-3.3438
X4.2451Y-2.1748
X4.2491Y-2.8778
X4.2521Y-3.1968
X4.2721Y-2.1308
X4.2981Y-2.2489
X4.3131Y-3.3408
X4.3151Y-2.1818
X4.3581Y-2.8768
X4.3581Y-3.1998
X4.3871Y-2.5468
X4.4001Y-3.3478
X4.4351Y-3.1838
X4.4388Y-2.4295
X4.4411Y-2.8698
X4.4602Y-2.746
X4.4721Y-2.8098
X4.4841Y-2.3488
X4.4891Y-3.3438
X4.5061Y-3.1288
X4.5081Y-3.0438
X4.5171Y-2.9338
X4.5221Y-2.3508
X4.5331Y-2.5738
X4.5421Y-2.7708
X4.5691Y-3.3448
X4.5735Y-2.3948
X4.5971Y-2.5688
X4.6141Y-2.1368
X4.6171Y-2.7211
X4.6401Y-3.3438
X4.7137Y-2.6486
X4.7411Y-2.3808
X4.7431Y-2.5998
X4.7741Y-2.2148
X4.8015Y-3.1925
X4.8021Y-3.0515
X4.8091Y-2.9778
X4.8401Y-2.8208
X4.8411Y-2.8818
X4.8471Y-2.9698
X4.8521Y-2.4558
X4.8681Y-2.1148
X4.8816Y-2.7249
X4.8841Y-2.7768
X4.9099Y-3.0531
X4.9121Y-3.1875
X4.9151Y-2.5408
X4.9176Y-3.2941
X4.9351Y-2.6334
X4.9351Y-2.7468
X4.9771Y-2.8698
X4.9791Y-2.9348
X5.0545Y-2.7926
X5.0791Y-3.1518
X5.0869Y-2.9301
X5.1474Y-2.827
X5.1491Y-3.0748
X5.1581Y-3.2238
X5.2098Y-2.7341
X5.2547Y-2.8062
X5.2609Y-2.8885
T2
X3.1761Y-3.0568
X3.5431Y-3.7208
X3.5991Y-3.8308
X3.8878Y-1.9473
X3.9361Y-2.0898
X3.9891Y-2.3438
X4.0341Y-2.3948
X4.0461Y-2.1828
X4.0491Y-2.4728
X4.0541Y-2.6238
X4.1441Y-4.0338
X4.2671Y-4.0988
X4.2851Y-2.0618
X4.4461Y-2.3658
X4.5111Y-2.1488
X4.5591Y-2.1478
X4.8708Y-2.2968
X4.9571Y-3.7368
X5.0071Y-3.7728
X5.0581Y-2.9038
X5.0721Y-2.9878
X5.2051Y-3.1478
X5.2711Y-3.0058
T4
X3.358Y-2.8337
X3.458Y-2.8337
X3.558Y-2.8337
X3.658Y-2.8337
X3.758Y-2.8337
X3.858Y-2.8337
X4.5561Y-1.9698
X5.0289Y-3.1112
X5.0289Y-3.2112
X5.0289Y-3.3112
T5
X3.7181Y-2.1888
X3.7855Y-2.3738
T6
X3.208Y-3.3137
T3
G00X4.1048Y-2.345
M15
G01X4.1146Y-2.345
M16
G05
G00X4.1048Y-2.5143
M15
G01X4.1146Y-2.5143
M16
G05
G00X4.2937Y-2.345
M15
G01X4.3036Y-2.345
M16
G05
G00X4.2937Y-2.5143
M15
G01X4.3036Y-2.5143
M16
G05
T0
M30
