%TF.GenerationSoftware,KiCad,Pcbnew,(5.1.10)-1*%
%TF.CreationDate,2021-12-05T21:12:04-05:00*%
%TF.ProjectId,poi_PCB,706f695f-5043-4422-9e6b-696361645f70,rev?*%
%TF.SameCoordinates,Original*%
%TF.FileFunction,Copper,L1,Top*%
%TF.FilePolarity,Positive*%
%FSLAX46Y46*%
G04 Gerber Fmt 4.6, Leading zero omitted, Abs format (unit mm)*
G04 Created by KiCad (PCBNEW (5.1.10)-1) date 2021-12-05 21:12:04*
%MOMM*%
%LPD*%
G01*
G04 APERTURE LIST*
%TA.AperFunction,ComponentPad*%
%ADD10O,1.700000X1.700000*%
%TD*%
%TA.AperFunction,ComponentPad*%
%ADD11R,1.700000X1.700000*%
%TD*%
%TA.AperFunction,ComponentPad*%
%ADD12O,2.200000X1.100000*%
%TD*%
%TA.AperFunction,ComponentPad*%
%ADD13C,2.000000*%
%TD*%
%TA.AperFunction,ComponentPad*%
%ADD14C,2.400000*%
%TD*%
%TA.AperFunction,ComponentPad*%
%ADD15C,0.100000*%
%TD*%
%TA.AperFunction,SMDPad,CuDef*%
%ADD16C,0.100000*%
%TD*%
%TA.AperFunction,ComponentPad*%
%ADD17C,1.700000*%
%TD*%
%TA.AperFunction,ComponentPad*%
%ADD18C,3.000000*%
%TD*%
%TA.AperFunction,SMDPad,CuDef*%
%ADD19R,1.500000X2.000000*%
%TD*%
%TA.AperFunction,SMDPad,CuDef*%
%ADD20R,3.800000X2.000000*%
%TD*%
%TA.AperFunction,SMDPad,CuDef*%
%ADD21R,1.000000X1.500000*%
%TD*%
%TA.AperFunction,SMDPad,CuDef*%
%ADD22R,1.500000X1.000000*%
%TD*%
%TA.AperFunction,ViaPad*%
%ADD23C,0.600000*%
%TD*%
%TA.AperFunction,ViaPad*%
%ADD24C,0.800000*%
%TD*%
%TA.AperFunction,Conductor*%
%ADD25C,0.508000*%
%TD*%
%TA.AperFunction,Conductor*%
%ADD26C,1.270000*%
%TD*%
%TA.AperFunction,Conductor*%
%ADD27C,0.254000*%
%TD*%
%TA.AperFunction,Conductor*%
%ADD28C,0.127000*%
%TD*%
%TA.AperFunction,Conductor*%
%ADD29C,0.100000*%
%TD*%
G04 APERTURE END LIST*
D10*
%TO.P,J1,3*%
%TO.N,Net-(J1-Pad3)*%
X127735120Y-79023760D03*
%TO.P,J1,2*%
%TO.N,Net-(J1-Pad2)*%
X127735120Y-81563760D03*
D11*
%TO.P,J1,1*%
%TO.N,Net-(J1-Pad1)*%
X127735120Y-84103760D03*
%TD*%
D12*
%TO.P,J4,S1*%
%TO.N,/SHIELD*%
X104386000Y-63864000D03*
X104386000Y-59564000D03*
%TO.P,J4,S3*%
%TO.N,N/C*%
X109186000Y-63864000D03*
%TO.P,J4,S4*%
X109186000Y-59564000D03*
%TD*%
D13*
%TO.P,TP1,1*%
%TO.N,/5V_EN_L*%
X115726000Y-50032200D03*
%TD*%
%TO.P,U4,1*%
%TO.N,+3V3*%
%TA.AperFunction,SMDPad,CuDef*%
G36*
G01*
X131802460Y-70757600D02*
X132124460Y-70757600D01*
G75*
G02*
X132138460Y-70771600I0J-14000D01*
G01*
X132138460Y-71253600D01*
G75*
G02*
X132124460Y-71267600I-14000J0D01*
G01*
X131802460Y-71267600D01*
G75*
G02*
X131788460Y-71253600I0J14000D01*
G01*
X131788460Y-70771600D01*
G75*
G02*
X131802460Y-70757600I14000J0D01*
G01*
G37*
%TD.AperFunction*%
%TO.P,U4,2*%
%TO.N,/SCL*%
%TA.AperFunction,SMDPad,CuDef*%
G36*
G01*
X131302460Y-70757600D02*
X131624460Y-70757600D01*
G75*
G02*
X131638460Y-70771600I0J-14000D01*
G01*
X131638460Y-71253600D01*
G75*
G02*
X131624460Y-71267600I-14000J0D01*
G01*
X131302460Y-71267600D01*
G75*
G02*
X131288460Y-71253600I0J14000D01*
G01*
X131288460Y-70771600D01*
G75*
G02*
X131302460Y-70757600I14000J0D01*
G01*
G37*
%TD.AperFunction*%
%TO.P,U4,3*%
%TO.N,/SDA*%
%TA.AperFunction,SMDPad,CuDef*%
G36*
G01*
X130802460Y-70757600D02*
X131124460Y-70757600D01*
G75*
G02*
X131138460Y-70771600I0J-14000D01*
G01*
X131138460Y-71253600D01*
G75*
G02*
X131124460Y-71267600I-14000J0D01*
G01*
X130802460Y-71267600D01*
G75*
G02*
X130788460Y-71253600I0J14000D01*
G01*
X130788460Y-70771600D01*
G75*
G02*
X130802460Y-70757600I14000J0D01*
G01*
G37*
%TD.AperFunction*%
%TO.P,U4,4*%
%TO.N,GND*%
%TA.AperFunction,SMDPad,CuDef*%
G36*
G01*
X130302460Y-70757600D02*
X130624460Y-70757600D01*
G75*
G02*
X130638460Y-70771600I0J-14000D01*
G01*
X130638460Y-71253600D01*
G75*
G02*
X130624460Y-71267600I-14000J0D01*
G01*
X130302460Y-71267600D01*
G75*
G02*
X130288460Y-71253600I0J14000D01*
G01*
X130288460Y-70771600D01*
G75*
G02*
X130302460Y-70757600I14000J0D01*
G01*
G37*
%TD.AperFunction*%
%TO.P,U4,5*%
%TO.N,+3V3*%
%TA.AperFunction,SMDPad,CuDef*%
G36*
G01*
X129802460Y-70757600D02*
X130124460Y-70757600D01*
G75*
G02*
X130138460Y-70771600I0J-14000D01*
G01*
X130138460Y-71253600D01*
G75*
G02*
X130124460Y-71267600I-14000J0D01*
G01*
X129802460Y-71267600D01*
G75*
G02*
X129788460Y-71253600I0J14000D01*
G01*
X129788460Y-70771600D01*
G75*
G02*
X129802460Y-70757600I14000J0D01*
G01*
G37*
%TD.AperFunction*%
%TO.P,U4,6*%
%TO.N,N/C*%
%TA.AperFunction,SMDPad,CuDef*%
G36*
G01*
X129512460Y-71547600D02*
X129994460Y-71547600D01*
G75*
G02*
X130008460Y-71561600I0J-14000D01*
G01*
X130008460Y-71883600D01*
G75*
G02*
X129994460Y-71897600I-14000J0D01*
G01*
X129512460Y-71897600D01*
G75*
G02*
X129498460Y-71883600I0J14000D01*
G01*
X129498460Y-71561600D01*
G75*
G02*
X129512460Y-71547600I14000J0D01*
G01*
G37*
%TD.AperFunction*%
%TO.P,U4,7*%
%TA.AperFunction,SMDPad,CuDef*%
G36*
G01*
X129512460Y-72047600D02*
X129994460Y-72047600D01*
G75*
G02*
X130008460Y-72061600I0J-14000D01*
G01*
X130008460Y-72383600D01*
G75*
G02*
X129994460Y-72397600I-14000J0D01*
G01*
X129512460Y-72397600D01*
G75*
G02*
X129498460Y-72383600I0J14000D01*
G01*
X129498460Y-72061600D01*
G75*
G02*
X129512460Y-72047600I14000J0D01*
G01*
G37*
%TD.AperFunction*%
%TO.P,U4,8*%
%TO.N,GND*%
%TA.AperFunction,SMDPad,CuDef*%
G36*
G01*
X129512460Y-72547600D02*
X129994460Y-72547600D01*
G75*
G02*
X130008460Y-72561600I0J-14000D01*
G01*
X130008460Y-72883600D01*
G75*
G02*
X129994460Y-72897600I-14000J0D01*
G01*
X129512460Y-72897600D01*
G75*
G02*
X129498460Y-72883600I0J14000D01*
G01*
X129498460Y-72561600D01*
G75*
G02*
X129512460Y-72547600I14000J0D01*
G01*
G37*
%TD.AperFunction*%
%TO.P,U4,9*%
%TA.AperFunction,SMDPad,CuDef*%
G36*
G01*
X129802460Y-73177600D02*
X130124460Y-73177600D01*
G75*
G02*
X130138460Y-73191600I0J-14000D01*
G01*
X130138460Y-73673600D01*
G75*
G02*
X130124460Y-73687600I-14000J0D01*
G01*
X129802460Y-73687600D01*
G75*
G02*
X129788460Y-73673600I0J14000D01*
G01*
X129788460Y-73191600D01*
G75*
G02*
X129802460Y-73177600I14000J0D01*
G01*
G37*
%TD.AperFunction*%
%TO.P,U4,10*%
%TA.AperFunction,SMDPad,CuDef*%
G36*
G01*
X130302460Y-73177600D02*
X130624460Y-73177600D01*
G75*
G02*
X130638460Y-73191600I0J-14000D01*
G01*
X130638460Y-73673600D01*
G75*
G02*
X130624460Y-73687600I-14000J0D01*
G01*
X130302460Y-73687600D01*
G75*
G02*
X130288460Y-73673600I0J14000D01*
G01*
X130288460Y-73191600D01*
G75*
G02*
X130302460Y-73177600I14000J0D01*
G01*
G37*
%TD.AperFunction*%
%TO.P,U4,11*%
%TA.AperFunction,SMDPad,CuDef*%
G36*
G01*
X130802460Y-73177600D02*
X131124460Y-73177600D01*
G75*
G02*
X131138460Y-73191600I0J-14000D01*
G01*
X131138460Y-73673600D01*
G75*
G02*
X131124460Y-73687600I-14000J0D01*
G01*
X130802460Y-73687600D01*
G75*
G02*
X130788460Y-73673600I0J14000D01*
G01*
X130788460Y-73191600D01*
G75*
G02*
X130802460Y-73177600I14000J0D01*
G01*
G37*
%TD.AperFunction*%
%TO.P,U4,12*%
%TA.AperFunction,SMDPad,CuDef*%
G36*
G01*
X131302460Y-73177600D02*
X131624460Y-73177600D01*
G75*
G02*
X131638460Y-73191600I0J-14000D01*
G01*
X131638460Y-73673600D01*
G75*
G02*
X131624460Y-73687600I-14000J0D01*
G01*
X131302460Y-73687600D01*
G75*
G02*
X131288460Y-73673600I0J14000D01*
G01*
X131288460Y-73191600D01*
G75*
G02*
X131302460Y-73177600I14000J0D01*
G01*
G37*
%TD.AperFunction*%
%TO.P,U4,13*%
%TA.AperFunction,SMDPad,CuDef*%
G36*
G01*
X131802460Y-73177600D02*
X132124460Y-73177600D01*
G75*
G02*
X132138460Y-73191600I0J-14000D01*
G01*
X132138460Y-73673600D01*
G75*
G02*
X132124460Y-73687600I-14000J0D01*
G01*
X131802460Y-73687600D01*
G75*
G02*
X131788460Y-73673600I0J14000D01*
G01*
X131788460Y-73191600D01*
G75*
G02*
X131802460Y-73177600I14000J0D01*
G01*
G37*
%TD.AperFunction*%
%TO.P,U4,14*%
%TO.N,N/C*%
%TA.AperFunction,SMDPad,CuDef*%
G36*
G01*
X131932460Y-72547600D02*
X132414460Y-72547600D01*
G75*
G02*
X132428460Y-72561600I0J-14000D01*
G01*
X132428460Y-72883600D01*
G75*
G02*
X132414460Y-72897600I-14000J0D01*
G01*
X131932460Y-72897600D01*
G75*
G02*
X131918460Y-72883600I0J14000D01*
G01*
X131918460Y-72561600D01*
G75*
G02*
X131932460Y-72547600I14000J0D01*
G01*
G37*
%TD.AperFunction*%
%TO.P,U4,15*%
%TO.N,GND*%
%TA.AperFunction,SMDPad,CuDef*%
G36*
G01*
X131932460Y-72047600D02*
X132414460Y-72047600D01*
G75*
G02*
X132428460Y-72061600I0J-14000D01*
G01*
X132428460Y-72383600D01*
G75*
G02*
X132414460Y-72397600I-14000J0D01*
G01*
X131932460Y-72397600D01*
G75*
G02*
X131918460Y-72383600I0J14000D01*
G01*
X131918460Y-72061600D01*
G75*
G02*
X131932460Y-72047600I14000J0D01*
G01*
G37*
%TD.AperFunction*%
%TO.P,U4,16*%
%TO.N,+3V3*%
%TA.AperFunction,SMDPad,CuDef*%
G36*
G01*
X131932460Y-71547600D02*
X132414460Y-71547600D01*
G75*
G02*
X132428460Y-71561600I0J-14000D01*
G01*
X132428460Y-71883600D01*
G75*
G02*
X132414460Y-71897600I-14000J0D01*
G01*
X131932460Y-71897600D01*
G75*
G02*
X131918460Y-71883600I0J14000D01*
G01*
X131918460Y-71561600D01*
G75*
G02*
X131932460Y-71547600I14000J0D01*
G01*
G37*
%TD.AperFunction*%
%TD*%
D14*
%TO.P,C4,2*%
%TO.N,GND*%
X94440800Y-55594800D03*
%TA.AperFunction,ComponentPad*%
D15*
%TO.P,C4,1*%
%TO.N,Net-(C4-Pad1)*%
G36*
X97688956Y-61010470D02*
G01*
X95433694Y-61831318D01*
X94612846Y-59576056D01*
X96868108Y-58755208D01*
X97688956Y-61010470D01*
G37*
%TD.AperFunction*%
%TD*%
%TA.AperFunction,SMDPad,CuDef*%
D16*
%TO.P,D2,1*%
%TO.N,+5V*%
G36*
X123692076Y-56792741D02*
G01*
X124399182Y-56085635D01*
X125459842Y-57146295D01*
X124752736Y-57853401D01*
X123692076Y-56792741D01*
G37*
%TD.AperFunction*%
%TA.AperFunction,SMDPad,CuDef*%
%TO.P,D2,2*%
%TO.N,Net-(D2-Pad2)*%
G36*
X121429335Y-59055482D02*
G01*
X122136441Y-58348376D01*
X123197101Y-59409036D01*
X122489995Y-60116142D01*
X121429335Y-59055482D01*
G37*
%TD.AperFunction*%
%TA.AperFunction,SMDPad,CuDef*%
%TO.P,D2,4*%
%TO.N,/LED_SIG_5*%
G36*
X127156899Y-60257564D02*
G01*
X127864005Y-59550458D01*
X128924665Y-60611118D01*
X128217559Y-61318224D01*
X127156899Y-60257564D01*
G37*
%TD.AperFunction*%
%TA.AperFunction,SMDPad,CuDef*%
%TO.P,D2,3*%
%TO.N,GND*%
G36*
X124894158Y-62520305D02*
G01*
X125601264Y-61813199D01*
X126661924Y-62873859D01*
X125954818Y-63580965D01*
X124894158Y-62520305D01*
G37*
%TD.AperFunction*%
%TD*%
D11*
%TO.P,U6,6*%
%TO.N,/VBUS*%
X97994000Y-71976000D03*
D10*
%TO.P,U6,5*%
%TO.N,GND*%
X95454000Y-71976000D03*
D17*
%TO.P,U6,4*%
X92914000Y-71976000D03*
D11*
%TO.P,U6,3*%
%TO.N,+BATT*%
X90374000Y-71976000D03*
D10*
%TO.P,U6,2*%
%TO.N,GND*%
X87834000Y-71976000D03*
D11*
%TO.P,U6,1*%
%TO.N,+5V*%
X85294000Y-71976000D03*
%TD*%
D18*
%TO.P,TP2,1*%
%TO.N,+BATT*%
X81484000Y-84168000D03*
%TD*%
D19*
%TO.P,U3,1*%
%TO.N,GND*%
X102582800Y-50819200D03*
%TO.P,U3,3*%
%TO.N,+5V*%
X97982800Y-50819200D03*
%TO.P,U3,2*%
%TO.N,+3V3*%
X100282800Y-50819200D03*
D20*
X100282800Y-57119200D03*
%TD*%
D21*
%TO.P,D9,1*%
%TO.N,+5V*%
X134100000Y-75050000D03*
%TO.P,D9,2*%
%TO.N,N/C*%
X130900000Y-75050000D03*
%TO.P,D9,4*%
%TO.N,Net-(D8-Pad2)*%
X134100000Y-79950000D03*
%TO.P,D9,3*%
%TO.N,GND*%
X130900000Y-79950000D03*
%TD*%
%TO.P,D5,1*%
%TO.N,+5V*%
X80900000Y-79950000D03*
%TO.P,D5,2*%
%TO.N,Net-(D5-Pad2)*%
X84100000Y-79950000D03*
%TO.P,D5,4*%
%TO.N,Net-(D4-Pad2)*%
X80900000Y-75050000D03*
%TO.P,D5,3*%
%TO.N,GND*%
X84100000Y-75050000D03*
%TD*%
%TA.AperFunction,SMDPad,CuDef*%
D16*
%TO.P,D8,1*%
%TO.N,+5V*%
G36*
X128218259Y-93692846D02*
G01*
X128925365Y-94399952D01*
X127864705Y-95460612D01*
X127157599Y-94753506D01*
X128218259Y-93692846D01*
G37*
%TD.AperFunction*%
%TA.AperFunction,SMDPad,CuDef*%
%TO.P,D8,2*%
%TO.N,Net-(D8-Pad2)*%
G36*
X125955518Y-91430105D02*
G01*
X126662624Y-92137211D01*
X125601964Y-93197871D01*
X124894858Y-92490765D01*
X125955518Y-91430105D01*
G37*
%TD.AperFunction*%
%TA.AperFunction,SMDPad,CuDef*%
%TO.P,D8,4*%
%TO.N,Net-(D7-Pad2)*%
G36*
X124753436Y-97157669D02*
G01*
X125460542Y-97864775D01*
X124399882Y-98925435D01*
X123692776Y-98218329D01*
X124753436Y-97157669D01*
G37*
%TD.AperFunction*%
%TA.AperFunction,SMDPad,CuDef*%
%TO.P,D8,3*%
%TO.N,GND*%
G36*
X122490695Y-94894928D02*
G01*
X123197801Y-95602034D01*
X122137141Y-96662694D01*
X121430035Y-95955588D01*
X122490695Y-94894928D01*
G37*
%TD.AperFunction*%
%TD*%
%TA.AperFunction,SMDPad,CuDef*%
%TO.P,D4,1*%
%TO.N,+5V*%
G36*
X86781741Y-61307224D02*
G01*
X86074635Y-60600118D01*
X87135295Y-59539458D01*
X87842401Y-60246564D01*
X86781741Y-61307224D01*
G37*
%TD.AperFunction*%
%TA.AperFunction,SMDPad,CuDef*%
%TO.P,D4,2*%
%TO.N,Net-(D4-Pad2)*%
G36*
X89044482Y-63569965D02*
G01*
X88337376Y-62862859D01*
X89398036Y-61802199D01*
X90105142Y-62509305D01*
X89044482Y-63569965D01*
G37*
%TD.AperFunction*%
%TA.AperFunction,SMDPad,CuDef*%
%TO.P,D4,4*%
%TO.N,Net-(D3-Pad2)*%
G36*
X90246564Y-57842401D02*
G01*
X89539458Y-57135295D01*
X90600118Y-56074635D01*
X91307224Y-56781741D01*
X90246564Y-57842401D01*
G37*
%TD.AperFunction*%
%TA.AperFunction,SMDPad,CuDef*%
%TO.P,D4,3*%
%TO.N,GND*%
G36*
X92509305Y-60105142D02*
G01*
X91802199Y-59398036D01*
X92862859Y-58337376D01*
X93569965Y-59044482D01*
X92509305Y-60105142D01*
G37*
%TD.AperFunction*%
%TD*%
D22*
%TO.P,D7,1*%
%TO.N,+5V*%
X109950000Y-104100000D03*
%TO.P,D7,2*%
%TO.N,Net-(D7-Pad2)*%
X109950000Y-100900000D03*
%TO.P,D7,4*%
%TO.N,Net-(D6-Pad2)*%
X105050000Y-104100000D03*
%TO.P,D7,3*%
%TO.N,GND*%
X105050000Y-100900000D03*
%TD*%
%TO.P,D3,1*%
%TO.N,+5V*%
X105050000Y-50900000D03*
%TO.P,D3,2*%
%TO.N,Net-(D3-Pad2)*%
X105050000Y-54100000D03*
%TO.P,D3,4*%
%TO.N,Net-(D2-Pad2)*%
X109950000Y-50900000D03*
%TO.P,D3,3*%
%TO.N,GND*%
X109950000Y-54100000D03*
%TD*%
%TA.AperFunction,SMDPad,CuDef*%
D16*
%TO.P,D6,1*%
%TO.N,+5V*%
G36*
X91307224Y-98217559D02*
G01*
X90600118Y-98924665D01*
X89539458Y-97864005D01*
X90246564Y-97156899D01*
X91307224Y-98217559D01*
G37*
%TD.AperFunction*%
%TA.AperFunction,SMDPad,CuDef*%
%TO.P,D6,2*%
%TO.N,Net-(D6-Pad2)*%
G36*
X93569965Y-95954818D02*
G01*
X92862859Y-96661924D01*
X91802199Y-95601264D01*
X92509305Y-94894158D01*
X93569965Y-95954818D01*
G37*
%TD.AperFunction*%
%TA.AperFunction,SMDPad,CuDef*%
%TO.P,D6,4*%
%TO.N,Net-(D5-Pad2)*%
G36*
X87842401Y-94752736D02*
G01*
X87135295Y-95459842D01*
X86074635Y-94399182D01*
X86781741Y-93692076D01*
X87842401Y-94752736D01*
G37*
%TD.AperFunction*%
%TA.AperFunction,SMDPad,CuDef*%
%TO.P,D6,3*%
%TO.N,GND*%
G36*
X90105142Y-92489995D02*
G01*
X89398036Y-93197101D01*
X88337376Y-92136441D01*
X89044482Y-91429335D01*
X90105142Y-92489995D01*
G37*
%TD.AperFunction*%
%TD*%
D23*
%TO.N,+5V*%
X123650800Y-53715200D03*
X85550800Y-59709600D03*
D24*
X98750324Y-49460798D03*
X108842600Y-52369000D03*
X133887000Y-76346600D03*
X91418200Y-97301600D03*
X108385400Y-104108800D03*
X127181400Y-95828400D03*
X80674000Y-77642000D03*
D23*
%TO.N,+3V3*%
X112746500Y-61708500D03*
X98987400Y-83179200D03*
D24*
X99978000Y-53080200D03*
D23*
X129208320Y-74423820D03*
X132329980Y-69445420D03*
D24*
%TO.N,Net-(D3-Pad2)*%
X101324200Y-59531800D03*
X102772000Y-55442400D03*
D23*
%TO.N,/VBUS*%
X105536000Y-61670000D03*
X105058000Y-60814500D03*
X105058000Y-62592500D03*
%TO.N,+BATT*%
X97819000Y-79216800D03*
%TO.N,/D-*%
X107641534Y-63517201D03*
X109172792Y-57121080D03*
X106235950Y-59913283D03*
%TO.N,/D+*%
X106702650Y-63602150D03*
X107116835Y-59833847D03*
%TO.N,/TXD*%
X113897200Y-59658800D03*
X119728633Y-67274010D03*
%TO.N,/RXD*%
X114862400Y-59709600D03*
X120475800Y-66034200D03*
D24*
%TO.N,/LED_SIG_5*%
X123718798Y-58338000D03*
D23*
%TO.N,/LED_SIG_3.3*%
X123244400Y-62376600D03*
X120425000Y-60471600D03*
D24*
%TO.N,GND*%
X114583000Y-54578800D03*
X115802200Y-54553400D03*
X128476800Y-73755800D03*
X128832400Y-75889400D03*
X112932000Y-60090600D03*
X102975200Y-66643800D03*
X89995800Y-94507600D03*
X105261200Y-102457800D03*
X125911400Y-94914000D03*
X132210600Y-79953400D03*
X102848200Y-62808400D03*
X102467200Y-60827200D03*
D23*
X111433400Y-64688000D03*
X115141800Y-65373800D03*
X121263200Y-56255200D03*
X107826600Y-55239200D03*
X105591400Y-55518600D03*
X101603600Y-52902400D03*
X91164200Y-58287200D03*
X91088000Y-60573200D03*
X93882000Y-60395400D03*
X110696800Y-73070000D03*
X107928200Y-73095400D03*
X106683600Y-74568600D03*
X106607400Y-77235600D03*
X106759800Y-79978800D03*
X108004400Y-81198000D03*
X110696800Y-81274200D03*
X112652600Y-80867800D03*
X114456000Y-79470800D03*
X114506800Y-77311800D03*
X114735400Y-74517800D03*
X112805000Y-72892200D03*
X105794600Y-85033400D03*
X99292200Y-85160400D03*
X117859600Y-84931800D03*
X116056200Y-84957200D03*
X114024200Y-84931800D03*
X111763600Y-85033400D03*
X109553800Y-84855600D03*
X107699600Y-84931800D03*
X130788200Y-78099200D03*
X129010200Y-80055000D03*
X131016800Y-81883800D03*
X124844600Y-64535600D03*
X109604600Y-55417000D03*
X108512400Y-54121600D03*
X84026800Y-77311800D03*
X82452000Y-74975000D03*
X86312800Y-75051200D03*
X88548000Y-67075600D03*
X105388200Y-69412400D03*
X107394800Y-68904400D03*
X133627920Y-73367180D03*
X125352600Y-66887640D03*
X121974400Y-77507380D03*
X124712520Y-77548020D03*
X124768400Y-80961780D03*
X121959160Y-81088780D03*
X124908100Y-83669420D03*
%TO.N,/RST*%
X117199200Y-54274000D03*
X116167800Y-60827200D03*
X116767400Y-65246800D03*
X117275400Y-69117180D03*
%TO.N,Net-(MK1-Pad6)*%
X126419400Y-72892200D03*
X124057200Y-70530000D03*
%TO.N,/WS*%
X122965000Y-73197000D03*
X115370400Y-70377600D03*
%TO.N,/BCLK*%
X122939600Y-71647600D03*
X113287854Y-69747390D03*
%TO.N,/D_OUT_I2S*%
X122152200Y-75635400D03*
X113592400Y-71368200D03*
%TO.N,/SDA*%
X125352600Y-69768000D03*
X133469023Y-71278658D03*
%TO.N,/SCL*%
X123992791Y-69213124D03*
X130745020Y-71805080D03*
X128385254Y-70931916D03*
%TO.N,/CHARGE_CAP_EN*%
X92840600Y-67202600D03*
X97463400Y-66669200D03*
%TO.N,Net-(MK1-Pad7)*%
X126470200Y-74543200D03*
X123117400Y-75432200D03*
%TD*%
D25*
%TO.N,+5V*%
X86244777Y-59709600D02*
X86958518Y-60423341D01*
X85550800Y-59709600D02*
X86244777Y-59709600D01*
X98750324Y-50051676D02*
X97982800Y-50819200D01*
X98750324Y-49460798D02*
X98750324Y-50051676D01*
D26*
X86958518Y-60423341D02*
X86958518Y-57158882D01*
X86958518Y-57158882D02*
X89005200Y-55112200D01*
X89005200Y-55112200D02*
X90249800Y-55112200D01*
X90249800Y-55112200D02*
X92764400Y-52597600D01*
X92764400Y-52597600D02*
X94313800Y-52597600D01*
X94313800Y-52597600D02*
X96193400Y-50718000D01*
X96294600Y-50819200D02*
X97982800Y-50819200D01*
X96193400Y-50718000D02*
X96294600Y-50819200D01*
D25*
X101621489Y-49099911D02*
X102162400Y-48559000D01*
X99452089Y-49099911D02*
X101621489Y-49099911D01*
X97982800Y-50569200D02*
X99452089Y-49099911D01*
X97982800Y-50819200D02*
X97982800Y-50569200D01*
X102336572Y-48889200D02*
X102139950Y-48692578D01*
X102645000Y-48889200D02*
X102336572Y-48889200D01*
X102434289Y-49099911D02*
X102645000Y-48889200D01*
X101621489Y-49099911D02*
X102434289Y-49099911D01*
X105050000Y-49892000D02*
X105050000Y-50900000D01*
X104047200Y-48889200D02*
X105050000Y-49892000D01*
X102645000Y-48889200D02*
X104047200Y-48889200D01*
D26*
X111862462Y-48889200D02*
X114843663Y-51870401D01*
X114843663Y-51870401D02*
X119958399Y-51870401D01*
X104047200Y-48889200D02*
X111862462Y-48889200D01*
X121803198Y-53715200D02*
X123650800Y-53715200D01*
X119958399Y-51870401D02*
X121803198Y-53715200D01*
X123650800Y-53715200D02*
X124575959Y-54640359D01*
X124575959Y-56969518D02*
X124575959Y-54640359D01*
X135438201Y-73833801D02*
X135438201Y-84527201D01*
X134496600Y-88335400D02*
X132591600Y-90240400D01*
X135438201Y-84527201D02*
X134496600Y-85468802D01*
X134496600Y-85468802D02*
X134496600Y-88335400D01*
X132591600Y-90240400D02*
X132591600Y-92312020D01*
X132591600Y-92312020D02*
X132501998Y-92463602D01*
X80900000Y-79950000D02*
X78769000Y-77819000D01*
X78769000Y-77819000D02*
X79226200Y-77361800D01*
X79226200Y-77361800D02*
X79226200Y-70458885D01*
X81461400Y-68223685D02*
X81461400Y-64865800D01*
X85903859Y-60423341D02*
X86958518Y-60423341D01*
X81461400Y-64865800D02*
X85903859Y-60423341D01*
X85903859Y-58213541D02*
X86958518Y-57158882D01*
X85903859Y-60423341D02*
X85903859Y-58213541D01*
X85294000Y-71976000D02*
X82856600Y-71976000D01*
X82856600Y-71976000D02*
X80727343Y-69846743D01*
X80727343Y-69846743D02*
X80727343Y-68957743D01*
X80727343Y-68957743D02*
X81461400Y-68223685D01*
X79226200Y-70458885D02*
X80727343Y-68957743D01*
X130388871Y-94576729D02*
X131601000Y-93364600D01*
X128041482Y-94576729D02*
X130388871Y-94576729D01*
X132501998Y-92463602D02*
X131601000Y-93364600D01*
X134222002Y-75050000D02*
X135438201Y-73833801D01*
X134100000Y-75050000D02*
X134222002Y-75050000D01*
X80900000Y-80200000D02*
X80900000Y-79950000D01*
X83822201Y-93769601D02*
X83822201Y-83122201D01*
X83822201Y-83122201D02*
X80900000Y-80200000D01*
D27*
X107373600Y-50900000D02*
X105050000Y-50900000D01*
X108842600Y-52369000D02*
X107373600Y-50900000D01*
X133887000Y-75263000D02*
X134100000Y-75050000D01*
X133887000Y-76346600D02*
X133887000Y-75263000D01*
D25*
X91162523Y-97301600D02*
X90423341Y-98040782D01*
X91418200Y-97301600D02*
X91162523Y-97301600D01*
X108394200Y-104100000D02*
X108385400Y-104108800D01*
X109950000Y-104100000D02*
X108394200Y-104100000D01*
X79506400Y-77642000D02*
X79226200Y-77361800D01*
X80674000Y-77642000D02*
X79506400Y-77642000D01*
X102162400Y-48559000D02*
X102162400Y-48559000D01*
D26*
X90423341Y-100370741D02*
X90453000Y-100400400D01*
X90453000Y-100400400D02*
X83822201Y-93769601D01*
X90423341Y-98040782D02*
X90423341Y-100370741D01*
X92288383Y-100400400D02*
X90453000Y-100400400D01*
X96277290Y-104389307D02*
X92288383Y-100400400D01*
X96748178Y-104581556D02*
X96436099Y-104455565D01*
X98057690Y-105065210D02*
X98010315Y-105049196D01*
X98010315Y-105049196D02*
X97692841Y-104937784D01*
X97692841Y-104937784D02*
X97376547Y-104822665D01*
X97376547Y-104822665D02*
X97061670Y-104703927D01*
X97061670Y-104703927D02*
X96748178Y-104581556D01*
X96436099Y-104455565D02*
X96277290Y-104389307D01*
X100797386Y-105836000D02*
X100026597Y-105065211D01*
X100026597Y-105065211D02*
X98057690Y-105065210D01*
X109461000Y-104100000D02*
X107725000Y-105836000D01*
X109950000Y-104100000D02*
X109461000Y-104100000D01*
X107725000Y-105836000D02*
X100797386Y-105836000D01*
X133572289Y-64924338D02*
X133572289Y-67472089D01*
X132533189Y-63885239D02*
X133572289Y-64924338D01*
X133572289Y-67472089D02*
X135438201Y-69338001D01*
X124575959Y-54640359D02*
X132533189Y-62597589D01*
X132533189Y-62597589D02*
X132533189Y-63885239D01*
X135438201Y-69338001D02*
X135438201Y-73833801D01*
D25*
X127181400Y-95436811D02*
X128041482Y-94576729D01*
X127181400Y-95828400D02*
X127181400Y-95436811D01*
%TO.N,+3V3*%
X111052400Y-60014400D02*
X112746500Y-61708500D01*
X111052400Y-57832621D02*
X111052400Y-60014400D01*
X109535368Y-56315589D02*
X111052400Y-57832621D01*
X108808454Y-56315589D02*
X109535368Y-56315589D01*
X107255543Y-57868500D02*
X108808454Y-56315589D01*
X100105000Y-57868500D02*
X107255543Y-57868500D01*
X99114400Y-83052200D02*
X98987400Y-83179200D01*
X99114400Y-73527200D02*
X99114400Y-83052200D01*
X109930010Y-65094400D02*
X107547200Y-65094400D01*
X107547200Y-65094400D02*
X99114400Y-73527200D01*
X111525456Y-60487456D02*
X111525456Y-63498954D01*
X111052400Y-60014400D02*
X111525456Y-60487456D01*
D26*
X100282800Y-50819200D02*
X100282800Y-57119200D01*
D25*
X109930010Y-65094400D02*
X110576199Y-64448211D01*
D27*
X111414748Y-63498954D02*
X111525456Y-63498954D01*
X110576199Y-64337503D02*
X111414748Y-63498954D01*
X110576199Y-64448211D02*
X110576199Y-64337503D01*
D25*
X111325401Y-63703799D02*
X111021943Y-63703799D01*
X111414748Y-63614452D02*
X111325401Y-63703799D01*
X111414748Y-63498954D02*
X111414748Y-63614452D01*
X111021943Y-63703799D02*
X110743210Y-63982532D01*
D28*
X131963460Y-71512600D02*
X132173460Y-71722600D01*
X131963460Y-71012600D02*
X131963460Y-71512600D01*
X129208320Y-71468756D02*
X129208320Y-74423820D01*
X129664476Y-71012600D02*
X129208320Y-71468756D01*
X129963460Y-71012600D02*
X129664476Y-71012600D01*
X131963460Y-69811940D02*
X132329980Y-69445420D01*
X131963460Y-71012600D02*
X131963460Y-69811940D01*
D27*
%TO.N,Net-(D2-Pad2)*%
X122313218Y-59232259D02*
X122313218Y-55908218D01*
X122313218Y-55908218D02*
X119409000Y-53004000D01*
X119409000Y-53004000D02*
X114024200Y-53004000D01*
X111920200Y-50900000D02*
X109950000Y-50900000D01*
X114024200Y-53004000D02*
X111920200Y-50900000D01*
%TO.N,Net-(D3-Pad2)*%
X99201038Y-59531800D02*
X101324200Y-59531800D01*
X96981309Y-57312071D02*
X99201038Y-59531800D01*
X90776894Y-57312071D02*
X96981309Y-57312071D01*
X90423341Y-56958518D02*
X90776894Y-57312071D01*
X104114400Y-54100000D02*
X105050000Y-54100000D01*
X102772000Y-55442400D02*
X104114400Y-54100000D01*
%TO.N,Net-(D4-Pad2)*%
X86653799Y-72910563D02*
X86653799Y-70671601D01*
X86408161Y-73156201D02*
X86653799Y-72910563D01*
X82793799Y-73156201D02*
X86408161Y-73156201D01*
X80900000Y-75050000D02*
X82793799Y-73156201D01*
X86653799Y-70671601D02*
X87100200Y-70225200D01*
X87100200Y-70225200D02*
X87913000Y-70225200D01*
X87913000Y-70225200D02*
X89919600Y-68218600D01*
X89919600Y-63384423D02*
X89221259Y-62686082D01*
X89919600Y-68218600D02*
X89919600Y-63384423D01*
%TO.N,Net-(D5-Pad2)*%
X84100000Y-81958448D02*
X85195200Y-83053648D01*
X84100000Y-79950000D02*
X84100000Y-81958448D01*
X85195200Y-92812641D02*
X86958518Y-94575959D01*
X85195200Y-83053648D02*
X85195200Y-92812641D01*
%TO.N,Net-(D6-Pad2)*%
X97407405Y-103802744D02*
X97104252Y-103684408D01*
X97711909Y-103917570D02*
X97407405Y-103802744D01*
X97104252Y-103684408D02*
X96867040Y-103588642D01*
X98220395Y-104100000D02*
X98017772Y-104028893D01*
X105050000Y-104100000D02*
X98220395Y-104100000D01*
X98017772Y-104028893D02*
X97711909Y-103917570D01*
X92686082Y-99407684D02*
X92686082Y-95778041D01*
X96867040Y-103588642D02*
X92686082Y-99407684D01*
%TO.N,Net-(D7-Pad2)*%
X121718211Y-100900000D02*
X124576659Y-98041552D01*
X109950000Y-100900000D02*
X121718211Y-100900000D01*
D25*
%TO.N,/VBUS*%
X105943210Y-61699710D02*
X105058000Y-60814500D01*
X99352000Y-71976000D02*
X105943210Y-65384790D01*
X97994000Y-71976000D02*
X99352000Y-71976000D01*
X105943210Y-63053446D02*
X105943210Y-63414210D01*
X105482264Y-62592500D02*
X105943210Y-63053446D01*
X105058000Y-62592500D02*
X105482264Y-62592500D01*
X105943210Y-65384790D02*
X105943210Y-63414210D01*
D27*
%TO.N,+BATT*%
X90374000Y-71976000D02*
X90374000Y-75429400D01*
X94161400Y-79216800D02*
X97819000Y-79216800D01*
X90374000Y-75429400D02*
X94161400Y-79216800D01*
D28*
%TO.N,/D-*%
X109172792Y-57121080D02*
X109033542Y-57121080D01*
X106973033Y-59176200D02*
X106235950Y-59913283D01*
X107394800Y-59176200D02*
X106973033Y-59176200D01*
X107683536Y-59464936D02*
X107394800Y-59176200D01*
X107641534Y-63517201D02*
X107683536Y-63475199D01*
X107683536Y-63475199D02*
X107683536Y-59464936D01*
X107117672Y-59176200D02*
X106973033Y-59176200D01*
X109172792Y-57121080D02*
X107117672Y-59176200D01*
%TO.N,/D+*%
X107028594Y-62780906D02*
X107028594Y-60045433D01*
X107028594Y-63276206D02*
X107028594Y-62780906D01*
X106702650Y-63602150D02*
X107028594Y-63276206D01*
D27*
%TO.N,/TXD*%
X113897200Y-61442577D02*
X119728633Y-67274010D01*
X113897200Y-59658800D02*
X113897200Y-61442577D01*
%TO.N,/RXD*%
X114862400Y-60420800D02*
X120475800Y-66034200D01*
X114862400Y-59709600D02*
X114862400Y-60420800D01*
%TO.N,/LED_SIG_5*%
X128040782Y-60434341D02*
X125944441Y-58338000D01*
X125944441Y-58338000D02*
X123718798Y-58338000D01*
%TO.N,/LED_SIG_3.3*%
X122330000Y-62376600D02*
X120425000Y-60471600D01*
X123244400Y-62376600D02*
X122330000Y-62376600D01*
%TO.N,Net-(D8-Pad2)*%
X125778741Y-92313988D02*
X128409812Y-92313988D01*
X128409812Y-92313988D02*
X133048800Y-87675000D01*
X133048800Y-81001200D02*
X134100000Y-79950000D01*
X133048800Y-87675000D02*
X133048800Y-81001200D01*
D25*
%TO.N,GND*%
X89995800Y-93087759D02*
X89221259Y-92313218D01*
X89995800Y-94507600D02*
X89995800Y-93087759D01*
X105261200Y-101111200D02*
X105050000Y-100900000D01*
X105261200Y-102457800D02*
X105261200Y-101111200D01*
X125046589Y-95778811D02*
X125911400Y-94914000D01*
X122313918Y-95778811D02*
X125046589Y-95778811D01*
D26*
X132207200Y-79950000D02*
X132210600Y-79953400D01*
X130900000Y-79950000D02*
X132207200Y-79950000D01*
D28*
X129753460Y-73222600D02*
X129963460Y-73432600D01*
X129753460Y-72722600D02*
X129753460Y-73222600D01*
X129963460Y-73432600D02*
X130963460Y-73432600D01*
X133617024Y-73367180D02*
X133627920Y-73367180D01*
X132472444Y-72222600D02*
X133617024Y-73367180D01*
X132173460Y-72222600D02*
X132472444Y-72222600D01*
X129357824Y-69607980D02*
X126190800Y-69607980D01*
X130463460Y-70713616D02*
X129357824Y-69607980D01*
X130463460Y-71012600D02*
X130463460Y-70713616D01*
D27*
%TO.N,/RST*%
X117199200Y-59795800D02*
X116167800Y-60827200D01*
X117199200Y-54274000D02*
X117199200Y-59795800D01*
X116767400Y-68609180D02*
X117275400Y-69117180D01*
X116767400Y-65246800D02*
X116767400Y-68609180D01*
%TO.N,Net-(MK1-Pad6)*%
X126419400Y-72892200D02*
X124057200Y-70530000D01*
%TO.N,/WS*%
X120145600Y-70377600D02*
X122965000Y-73197000D01*
X115370400Y-70377600D02*
X120145600Y-70377600D01*
%TO.N,/BCLK*%
X121039390Y-69747390D02*
X121314000Y-70022000D01*
X121314000Y-70022000D02*
X121212389Y-69920389D01*
X122939600Y-71647600D02*
X121314000Y-70022000D01*
X113287854Y-69747390D02*
X121039390Y-69747390D01*
%TO.N,/D_OUT_I2S*%
X113592400Y-71368200D02*
X116513400Y-71368200D01*
X120780600Y-75635400D02*
X122152200Y-75635400D01*
X116513400Y-71368200D02*
X120780600Y-75635400D01*
D25*
%TO.N,/SHIELD*%
X104300799Y-59649201D02*
X104386000Y-59564000D01*
X104386000Y-63864000D02*
X104300799Y-63778799D01*
X104300799Y-63778799D02*
X104300799Y-59649201D01*
D28*
%TO.N,/SDA*%
X125403400Y-69768000D02*
X125352600Y-69768000D01*
X133469023Y-69677163D02*
X133469023Y-71278658D01*
X130963460Y-69973220D02*
X132057962Y-68878718D01*
X130963460Y-71012600D02*
X130963460Y-69973220D01*
X132670578Y-68878718D02*
X133469023Y-69677163D01*
X132297242Y-68878718D02*
X132670578Y-68505382D01*
X132057962Y-68878718D02*
X132297242Y-68878718D01*
X132670578Y-68505382D02*
X132670578Y-68878718D01*
X127704640Y-63202100D02*
X130574840Y-63202100D01*
X132670578Y-65297838D02*
X132670578Y-68505382D01*
X124712520Y-66194220D02*
X127704640Y-63202100D01*
X125240840Y-68089060D02*
X124712520Y-67560740D01*
X124712520Y-67560740D02*
X124712520Y-66194220D01*
X125240840Y-68127160D02*
X125240840Y-68089060D01*
X125753920Y-68640240D02*
X125240840Y-68127160D01*
X125753920Y-69366680D02*
X125753920Y-68640240D01*
X130574840Y-63202100D02*
X132670578Y-65297838D01*
X125352600Y-69768000D02*
X125753920Y-69366680D01*
%TO.N,/SCL*%
X128289223Y-70758611D02*
X125538278Y-70758611D01*
X125538278Y-70758611D02*
X123992791Y-69213124D01*
X130969964Y-71805080D02*
X130745020Y-71805080D01*
X131463460Y-71311584D02*
X130969964Y-71805080D01*
X131463460Y-71012600D02*
X131463460Y-71311584D01*
X128289223Y-70835885D02*
X128385254Y-70931916D01*
X128289223Y-70758611D02*
X128289223Y-70835885D01*
%TO.N,/CHARGE_CAP_EN*%
X93374000Y-66669200D02*
X97463400Y-66669200D01*
X92840600Y-67202600D02*
X93374000Y-66669200D01*
D27*
%TO.N,Net-(MK1-Pad7)*%
X125581200Y-75432200D02*
X123117400Y-75432200D01*
X126470200Y-74543200D02*
X125581200Y-75432200D01*
%TD*%
%TO.N,GND*%
X102709800Y-50692200D02*
X102729800Y-50692200D01*
X102729800Y-50946200D01*
X102709800Y-50946200D01*
X102709800Y-52295450D01*
X102868550Y-52454200D01*
X103332800Y-52457272D01*
X103457282Y-52445012D01*
X103576980Y-52408702D01*
X103687294Y-52349737D01*
X103783985Y-52270385D01*
X103863337Y-52173694D01*
X103922302Y-52063380D01*
X103958612Y-51943682D01*
X103970872Y-51819200D01*
X103969852Y-51582088D01*
X103985019Y-51610463D01*
X104032131Y-51667869D01*
X104089537Y-51714981D01*
X104155030Y-51749988D01*
X104226095Y-51771545D01*
X104300000Y-51778824D01*
X105800000Y-51778824D01*
X105873905Y-51771545D01*
X105944970Y-51749988D01*
X106010463Y-51714981D01*
X106067869Y-51667869D01*
X106114981Y-51610463D01*
X106149988Y-51544970D01*
X106171545Y-51473905D01*
X106178430Y-51404000D01*
X107164837Y-51404000D01*
X108065600Y-52304763D01*
X108065600Y-52445528D01*
X108095459Y-52595643D01*
X108154031Y-52737048D01*
X108239064Y-52864309D01*
X108347291Y-52972536D01*
X108474552Y-53057569D01*
X108615957Y-53116141D01*
X108754943Y-53143786D01*
X108748815Y-53148815D01*
X108669463Y-53245506D01*
X108610498Y-53355820D01*
X108574188Y-53475518D01*
X108561928Y-53600000D01*
X108565000Y-53814250D01*
X108723750Y-53973000D01*
X109823000Y-53973000D01*
X109823000Y-53123750D01*
X110077000Y-53123750D01*
X110077000Y-53973000D01*
X111176250Y-53973000D01*
X111335000Y-53814250D01*
X111338072Y-53600000D01*
X111325812Y-53475518D01*
X111289502Y-53355820D01*
X111230537Y-53245506D01*
X111151185Y-53148815D01*
X111054494Y-53069463D01*
X110944180Y-53010498D01*
X110824482Y-52974188D01*
X110700000Y-52961928D01*
X110235750Y-52965000D01*
X110077000Y-53123750D01*
X109823000Y-53123750D01*
X109664250Y-52965000D01*
X109347541Y-52962904D01*
X109446136Y-52864309D01*
X109531169Y-52737048D01*
X109589741Y-52595643D01*
X109619600Y-52445528D01*
X109619600Y-52292472D01*
X109589741Y-52142357D01*
X109531169Y-52000952D01*
X109446136Y-51873691D01*
X109351269Y-51778824D01*
X110700000Y-51778824D01*
X110773905Y-51771545D01*
X110844970Y-51749988D01*
X110910463Y-51714981D01*
X110967869Y-51667869D01*
X111014981Y-51610463D01*
X111049988Y-51544970D01*
X111071545Y-51473905D01*
X111078430Y-51404000D01*
X111711437Y-51404000D01*
X113650314Y-53342878D01*
X113666094Y-53362106D01*
X113742838Y-53425088D01*
X113830395Y-53471888D01*
X113925399Y-53500707D01*
X113999446Y-53508000D01*
X113999448Y-53508000D01*
X114024199Y-53510438D01*
X114048950Y-53508000D01*
X119200237Y-53508000D01*
X121809219Y-56116983D01*
X121809218Y-58139861D01*
X121161466Y-58787613D01*
X121114354Y-58845019D01*
X121079347Y-58910512D01*
X121057790Y-58981577D01*
X121050511Y-59055482D01*
X121057790Y-59129387D01*
X121079347Y-59200452D01*
X121114354Y-59265945D01*
X121161466Y-59323351D01*
X122222126Y-60384011D01*
X122279532Y-60431123D01*
X122345025Y-60466130D01*
X122416090Y-60487687D01*
X122489995Y-60494966D01*
X122563900Y-60487687D01*
X122634965Y-60466130D01*
X122700458Y-60431123D01*
X122757864Y-60384011D01*
X123464970Y-59676905D01*
X123512082Y-59619499D01*
X123547089Y-59554006D01*
X123568646Y-59482941D01*
X123575925Y-59409036D01*
X123568646Y-59335131D01*
X123547089Y-59264066D01*
X123512082Y-59198573D01*
X123464970Y-59141167D01*
X123349611Y-59025808D01*
X123350750Y-59026569D01*
X123492155Y-59085141D01*
X123642270Y-59115000D01*
X123795326Y-59115000D01*
X123945441Y-59085141D01*
X124086846Y-59026569D01*
X124214107Y-58941536D01*
X124313643Y-58842000D01*
X125735678Y-58842000D01*
X126886480Y-59992802D01*
X126841918Y-60047101D01*
X126806911Y-60112594D01*
X126785354Y-60183659D01*
X126778075Y-60257564D01*
X126785354Y-60331469D01*
X126806911Y-60402534D01*
X126841918Y-60468027D01*
X126889030Y-60525433D01*
X127949690Y-61586093D01*
X128007096Y-61633205D01*
X128072589Y-61668212D01*
X128143654Y-61689769D01*
X128217559Y-61697048D01*
X128291464Y-61689769D01*
X128362529Y-61668212D01*
X128428022Y-61633205D01*
X128485428Y-61586093D01*
X129192534Y-60878987D01*
X129239646Y-60821581D01*
X129269725Y-60765309D01*
X131521189Y-63016773D01*
X131521190Y-63525489D01*
X130901622Y-62905922D01*
X130887827Y-62889113D01*
X130820753Y-62834066D01*
X130744228Y-62793162D01*
X130661193Y-62767974D01*
X130596476Y-62761600D01*
X130596469Y-62761600D01*
X130574840Y-62759470D01*
X130553211Y-62761600D01*
X127726269Y-62761600D01*
X127704640Y-62759470D01*
X127683011Y-62761600D01*
X127683004Y-62761600D01*
X127618287Y-62767974D01*
X127535252Y-62793162D01*
X127458727Y-62834066D01*
X127410240Y-62873859D01*
X127391653Y-62889113D01*
X127377863Y-62905916D01*
X127287987Y-62995792D01*
X127299996Y-62873859D01*
X127287736Y-62749377D01*
X127251427Y-62629679D01*
X127192462Y-62519365D01*
X127113110Y-62422674D01*
X126782663Y-62096572D01*
X126558157Y-62096572D01*
X125957646Y-62697082D01*
X125971789Y-62711225D01*
X125792184Y-62890830D01*
X125778041Y-62876687D01*
X125177531Y-63477198D01*
X125177531Y-63701704D01*
X125503633Y-64032151D01*
X125600324Y-64111503D01*
X125710638Y-64170468D01*
X125830336Y-64206777D01*
X125954818Y-64219037D01*
X126076752Y-64207028D01*
X124416337Y-65867443D01*
X124399534Y-65881233D01*
X124385744Y-65898036D01*
X124385741Y-65898039D01*
X124344486Y-65948308D01*
X124303582Y-66024833D01*
X124278394Y-66107868D01*
X124269890Y-66194220D01*
X124272021Y-66215858D01*
X124272020Y-67539111D01*
X124269890Y-67560740D01*
X124272020Y-67582369D01*
X124272020Y-67582375D01*
X124278394Y-67647092D01*
X124303582Y-67730127D01*
X124344486Y-67806652D01*
X124399533Y-67873727D01*
X124416342Y-67887522D01*
X124839407Y-68310588D01*
X124872806Y-68373072D01*
X124927853Y-68440147D01*
X124944662Y-68453942D01*
X125313421Y-68822701D01*
X125313420Y-69091000D01*
X125285921Y-69091000D01*
X125155126Y-69117016D01*
X125031920Y-69168050D01*
X124921037Y-69242140D01*
X124826740Y-69336437D01*
X124791622Y-69388995D01*
X124669791Y-69267164D01*
X124669791Y-69146445D01*
X124643775Y-69015650D01*
X124592741Y-68892444D01*
X124518651Y-68781561D01*
X124424354Y-68687264D01*
X124313471Y-68613174D01*
X124190265Y-68562140D01*
X124059470Y-68536124D01*
X123926112Y-68536124D01*
X123795317Y-68562140D01*
X123672111Y-68613174D01*
X123561228Y-68687264D01*
X123466931Y-68781561D01*
X123392841Y-68892444D01*
X123341807Y-69015650D01*
X123315791Y-69146445D01*
X123315791Y-69279803D01*
X123341807Y-69410598D01*
X123392841Y-69533804D01*
X123466931Y-69644687D01*
X123561228Y-69738984D01*
X123672111Y-69813074D01*
X123795317Y-69864108D01*
X123864996Y-69877968D01*
X123859726Y-69879016D01*
X123736520Y-69930050D01*
X123625637Y-70004140D01*
X123531340Y-70098437D01*
X123457250Y-70209320D01*
X123406216Y-70332526D01*
X123380200Y-70463321D01*
X123380200Y-70596679D01*
X123406216Y-70727474D01*
X123457250Y-70850680D01*
X123531340Y-70961563D01*
X123625637Y-71055860D01*
X123736520Y-71129950D01*
X123859726Y-71180984D01*
X123990521Y-71207000D01*
X124021437Y-71207000D01*
X125742400Y-72927964D01*
X125742400Y-72958879D01*
X125768416Y-73089674D01*
X125819450Y-73212880D01*
X125893540Y-73323763D01*
X125987837Y-73418060D01*
X126098720Y-73492150D01*
X126221926Y-73543184D01*
X126352721Y-73569200D01*
X126486079Y-73569200D01*
X126616874Y-73543184D01*
X126740080Y-73492150D01*
X126850963Y-73418060D01*
X126945260Y-73323763D01*
X127019350Y-73212880D01*
X127070384Y-73089674D01*
X127096400Y-72958879D01*
X127096400Y-72825521D01*
X127070384Y-72694726D01*
X127019350Y-72571520D01*
X126945260Y-72460637D01*
X126850963Y-72366340D01*
X126740080Y-72292250D01*
X126616874Y-72241216D01*
X126486079Y-72215200D01*
X126455164Y-72215200D01*
X125424330Y-71184366D01*
X125451925Y-71192737D01*
X125516642Y-71199111D01*
X125516649Y-71199111D01*
X125538278Y-71201241D01*
X125559907Y-71199111D01*
X127763150Y-71199111D01*
X127785304Y-71252596D01*
X127859394Y-71363479D01*
X127953691Y-71457776D01*
X128064574Y-71531866D01*
X128187780Y-71582900D01*
X128318575Y-71608916D01*
X128451933Y-71608916D01*
X128582728Y-71582900D01*
X128705934Y-71531866D01*
X128767820Y-71490515D01*
X128767821Y-73906896D01*
X128682460Y-73992257D01*
X128608370Y-74103140D01*
X128557336Y-74226346D01*
X128531320Y-74357141D01*
X128531320Y-74490499D01*
X128557336Y-74621294D01*
X128608370Y-74744500D01*
X128682460Y-74855383D01*
X128776757Y-74949680D01*
X128887640Y-75023770D01*
X129010846Y-75074804D01*
X129141641Y-75100820D01*
X129274999Y-75100820D01*
X129405794Y-75074804D01*
X129529000Y-75023770D01*
X129639883Y-74949680D01*
X129734180Y-74855383D01*
X129808270Y-74744500D01*
X129859304Y-74621294D01*
X129885320Y-74490499D01*
X129885320Y-74357141D01*
X129859304Y-74226346D01*
X129857447Y-74221863D01*
X129893599Y-74185711D01*
X129919397Y-74208108D01*
X130024328Y-74267992D01*
X130021176Y-74300000D01*
X130021176Y-75800000D01*
X130028455Y-75873905D01*
X130050012Y-75944970D01*
X130085019Y-76010463D01*
X130132131Y-76067869D01*
X130189537Y-76114981D01*
X130255030Y-76149988D01*
X130326095Y-76171545D01*
X130400000Y-76178824D01*
X131400000Y-76178824D01*
X131473905Y-76171545D01*
X131544970Y-76149988D01*
X131610463Y-76114981D01*
X131667869Y-76067869D01*
X131714981Y-76010463D01*
X131749988Y-75944970D01*
X131771545Y-75873905D01*
X131778824Y-75800000D01*
X131778824Y-74309887D01*
X131780240Y-74309721D01*
X131898886Y-74270107D01*
X132007523Y-74208108D01*
X132033321Y-74185711D01*
X132170210Y-74322600D01*
X132280240Y-74309721D01*
X132398886Y-74270107D01*
X132507523Y-74208108D01*
X132601978Y-74126105D01*
X132678620Y-74027252D01*
X132734503Y-73915346D01*
X132767482Y-73794687D01*
X132773460Y-73718350D01*
X132614710Y-73559600D01*
X130816460Y-73559600D01*
X130816460Y-73305600D01*
X132614710Y-73305600D01*
X132773460Y-73146850D01*
X132767482Y-73070513D01*
X132764215Y-73058560D01*
X132777382Y-73033927D01*
X132799736Y-72960236D01*
X132804747Y-72909356D01*
X132866965Y-72861118D01*
X132948968Y-72766663D01*
X133010967Y-72658026D01*
X133050581Y-72539380D01*
X133063460Y-72429350D01*
X132904710Y-72270600D01*
X132676107Y-72270600D01*
X132632701Y-72234979D01*
X132609542Y-72222600D01*
X132632701Y-72210221D01*
X132676107Y-72174600D01*
X132904710Y-72174600D01*
X133063460Y-72015850D01*
X133050581Y-71905820D01*
X133010967Y-71787174D01*
X132998805Y-71765863D01*
X133037460Y-71804518D01*
X133148343Y-71878608D01*
X133271549Y-71929642D01*
X133402344Y-71955658D01*
X133535702Y-71955658D01*
X133666497Y-71929642D01*
X133789703Y-71878608D01*
X133900586Y-71804518D01*
X133994883Y-71710221D01*
X134068973Y-71599338D01*
X134120007Y-71476132D01*
X134146023Y-71345337D01*
X134146023Y-71211979D01*
X134120007Y-71081184D01*
X134068973Y-70957978D01*
X133994883Y-70847095D01*
X133909523Y-70761735D01*
X133909523Y-69698792D01*
X133911653Y-69677163D01*
X133909523Y-69655534D01*
X133909523Y-69655527D01*
X133903149Y-69590810D01*
X133877961Y-69507775D01*
X133837057Y-69431250D01*
X133802616Y-69389284D01*
X133795802Y-69380981D01*
X133795800Y-69380979D01*
X133782010Y-69364176D01*
X133765208Y-69350387D01*
X133111078Y-68696258D01*
X133111078Y-68527011D01*
X133113208Y-68505382D01*
X133111078Y-68483753D01*
X133111078Y-68442062D01*
X134426201Y-69757186D01*
X134426202Y-73414616D01*
X133919642Y-73921176D01*
X133600000Y-73921176D01*
X133526095Y-73928455D01*
X133455030Y-73950012D01*
X133389537Y-73985019D01*
X133332131Y-74032131D01*
X133285019Y-74089537D01*
X133250012Y-74155030D01*
X133228455Y-74226095D01*
X133221176Y-74300000D01*
X133221176Y-74547354D01*
X133160511Y-74660851D01*
X133102643Y-74851613D01*
X133083104Y-75050000D01*
X133102643Y-75248387D01*
X133160511Y-75439149D01*
X133221176Y-75552646D01*
X133221176Y-75800000D01*
X133228455Y-75873905D01*
X133240913Y-75914973D01*
X133198431Y-75978552D01*
X133139859Y-76119957D01*
X133110000Y-76270072D01*
X133110000Y-76423128D01*
X133139859Y-76573243D01*
X133198431Y-76714648D01*
X133283464Y-76841909D01*
X133391691Y-76950136D01*
X133518952Y-77035169D01*
X133660357Y-77093741D01*
X133810472Y-77123600D01*
X133963528Y-77123600D01*
X134113643Y-77093741D01*
X134255048Y-77035169D01*
X134382309Y-76950136D01*
X134426201Y-76906244D01*
X134426201Y-78821176D01*
X133600000Y-78821176D01*
X133526095Y-78828455D01*
X133455030Y-78850012D01*
X133389537Y-78885019D01*
X133332131Y-78932131D01*
X133285019Y-78989537D01*
X133250012Y-79055030D01*
X133228455Y-79126095D01*
X133221176Y-79200000D01*
X133221176Y-80116060D01*
X132709923Y-80627314D01*
X132690695Y-80643094D01*
X132674915Y-80662322D01*
X132627713Y-80719838D01*
X132580913Y-80807395D01*
X132552093Y-80902399D01*
X132542362Y-81001200D01*
X132544801Y-81025964D01*
X132544800Y-85871707D01*
X85699200Y-85970781D01*
X85699200Y-83078402D01*
X85701638Y-83053648D01*
X85691907Y-82954847D01*
X85686359Y-82936559D01*
X85663088Y-82859843D01*
X85616288Y-82772286D01*
X85553306Y-82695542D01*
X85534073Y-82679758D01*
X84604000Y-81749685D01*
X84604000Y-81078430D01*
X84673905Y-81071545D01*
X84744970Y-81049988D01*
X84810463Y-81014981D01*
X84867869Y-80967869D01*
X84914981Y-80910463D01*
X84949988Y-80844970D01*
X84971545Y-80773905D01*
X84978824Y-80700000D01*
X84978824Y-79200000D01*
X84971545Y-79126095D01*
X84949988Y-79055030D01*
X84914981Y-78989537D01*
X84867869Y-78932131D01*
X84810463Y-78885019D01*
X84744970Y-78850012D01*
X84673905Y-78828455D01*
X84600000Y-78821176D01*
X83600000Y-78821176D01*
X83526095Y-78828455D01*
X83455030Y-78850012D01*
X83389537Y-78885019D01*
X83332131Y-78932131D01*
X83285019Y-78989537D01*
X83250012Y-79055030D01*
X83228455Y-79126095D01*
X83221176Y-79200000D01*
X83221176Y-80700000D01*
X83228455Y-80773905D01*
X83250012Y-80844970D01*
X83285019Y-80910463D01*
X83332131Y-80967869D01*
X83389537Y-81014981D01*
X83455030Y-81049988D01*
X83526095Y-81071545D01*
X83596001Y-81078430D01*
X83596001Y-81464817D01*
X81898948Y-79767764D01*
X81897357Y-79751614D01*
X81839489Y-79560851D01*
X81778824Y-79447354D01*
X81778824Y-79200000D01*
X81771545Y-79126095D01*
X81749988Y-79055030D01*
X81714981Y-78989537D01*
X81667869Y-78932131D01*
X81610463Y-78885019D01*
X81544970Y-78850012D01*
X81473905Y-78828455D01*
X81400000Y-78821176D01*
X81202360Y-78821176D01*
X80791946Y-78410762D01*
X80900643Y-78389141D01*
X81042048Y-78330569D01*
X81169309Y-78245536D01*
X81277536Y-78137309D01*
X81362569Y-78010048D01*
X81421141Y-77868643D01*
X81451000Y-77718528D01*
X81451000Y-77565472D01*
X81421141Y-77415357D01*
X81362569Y-77273952D01*
X81277536Y-77146691D01*
X81169309Y-77038464D01*
X81042048Y-76953431D01*
X80900643Y-76894859D01*
X80750528Y-76865000D01*
X80597472Y-76865000D01*
X80447357Y-76894859D01*
X80305952Y-76953431D01*
X80238200Y-76998701D01*
X80238200Y-76140992D01*
X80255030Y-76149988D01*
X80326095Y-76171545D01*
X80400000Y-76178824D01*
X81400000Y-76178824D01*
X81473905Y-76171545D01*
X81544970Y-76149988D01*
X81610463Y-76114981D01*
X81667869Y-76067869D01*
X81714981Y-76010463D01*
X81749988Y-75944970D01*
X81771545Y-75873905D01*
X81778824Y-75800000D01*
X82961928Y-75800000D01*
X82974188Y-75924482D01*
X83010498Y-76044180D01*
X83069463Y-76154494D01*
X83148815Y-76251185D01*
X83245506Y-76330537D01*
X83355820Y-76389502D01*
X83475518Y-76425812D01*
X83600000Y-76438072D01*
X83814250Y-76435000D01*
X83973000Y-76276250D01*
X83973000Y-75177000D01*
X84227000Y-75177000D01*
X84227000Y-76276250D01*
X84385750Y-76435000D01*
X84600000Y-76438072D01*
X84724482Y-76425812D01*
X84844180Y-76389502D01*
X84954494Y-76330537D01*
X85051185Y-76251185D01*
X85130537Y-76154494D01*
X85189502Y-76044180D01*
X85225812Y-75924482D01*
X85238072Y-75800000D01*
X85235000Y-75335750D01*
X85076250Y-75177000D01*
X84227000Y-75177000D01*
X83973000Y-75177000D01*
X83123750Y-75177000D01*
X82965000Y-75335750D01*
X82961928Y-75800000D01*
X81778824Y-75800000D01*
X81778824Y-74883939D01*
X82362763Y-74300000D01*
X82961928Y-74300000D01*
X82965000Y-74764250D01*
X83123750Y-74923000D01*
X83973000Y-74923000D01*
X83973000Y-73823750D01*
X84227000Y-73823750D01*
X84227000Y-74923000D01*
X85076250Y-74923000D01*
X85235000Y-74764250D01*
X85238072Y-74300000D01*
X85225812Y-74175518D01*
X85189502Y-74055820D01*
X85130537Y-73945506D01*
X85051185Y-73848815D01*
X84954494Y-73769463D01*
X84844180Y-73710498D01*
X84724482Y-73674188D01*
X84600000Y-73661928D01*
X84385750Y-73665000D01*
X84227000Y-73823750D01*
X83973000Y-73823750D01*
X83814250Y-73665000D01*
X83600000Y-73661928D01*
X83475518Y-73674188D01*
X83355820Y-73710498D01*
X83245506Y-73769463D01*
X83148815Y-73848815D01*
X83069463Y-73945506D01*
X83010498Y-74055820D01*
X82974188Y-74175518D01*
X82961928Y-74300000D01*
X82362763Y-74300000D01*
X83002563Y-73660201D01*
X86383407Y-73660201D01*
X86408161Y-73662639D01*
X86506962Y-73652908D01*
X86513591Y-73650897D01*
X86601966Y-73624089D01*
X86689523Y-73577289D01*
X86766267Y-73514307D01*
X86782052Y-73495073D01*
X86992667Y-73284457D01*
X87011905Y-73268669D01*
X87043560Y-73230097D01*
X87067080Y-73247641D01*
X87329901Y-73372825D01*
X87477110Y-73417476D01*
X87707000Y-73296155D01*
X87707000Y-72103000D01*
X87687000Y-72103000D01*
X87687000Y-71849000D01*
X87707000Y-71849000D01*
X87707000Y-71829000D01*
X87961000Y-71829000D01*
X87961000Y-71849000D01*
X87981000Y-71849000D01*
X87981000Y-72103000D01*
X87961000Y-72103000D01*
X87961000Y-73296155D01*
X88190890Y-73417476D01*
X88338099Y-73372825D01*
X88600920Y-73247641D01*
X88834269Y-73073588D01*
X89029178Y-72857355D01*
X89145176Y-72662620D01*
X89145176Y-72826000D01*
X89152455Y-72899905D01*
X89174012Y-72970970D01*
X89209019Y-73036463D01*
X89256131Y-73093869D01*
X89313537Y-73140981D01*
X89379030Y-73175988D01*
X89450095Y-73197545D01*
X89524000Y-73204824D01*
X89870000Y-73204824D01*
X89870001Y-75404636D01*
X89867562Y-75429400D01*
X89877293Y-75528201D01*
X89889852Y-75569600D01*
X89906113Y-75623205D01*
X89952913Y-75710762D01*
X90015895Y-75787506D01*
X90035123Y-75803286D01*
X93787514Y-79555678D01*
X93803294Y-79574906D01*
X93880038Y-79637888D01*
X93967595Y-79684688D01*
X94062599Y-79713507D01*
X94136646Y-79720800D01*
X94136648Y-79720800D01*
X94161399Y-79723238D01*
X94186150Y-79720800D01*
X97365577Y-79720800D01*
X97387437Y-79742660D01*
X97498320Y-79816750D01*
X97621526Y-79867784D01*
X97752321Y-79893800D01*
X97885679Y-79893800D01*
X98016474Y-79867784D01*
X98139680Y-79816750D01*
X98250563Y-79742660D01*
X98344860Y-79648363D01*
X98418950Y-79537480D01*
X98469984Y-79414274D01*
X98483401Y-79346822D01*
X98483401Y-82725776D01*
X98461540Y-82747637D01*
X98387450Y-82858520D01*
X98336416Y-82981726D01*
X98310400Y-83112521D01*
X98310400Y-83245879D01*
X98336416Y-83376674D01*
X98387450Y-83499880D01*
X98461540Y-83610763D01*
X98555837Y-83705060D01*
X98666720Y-83779150D01*
X98789926Y-83830184D01*
X98920721Y-83856200D01*
X99054079Y-83856200D01*
X99184874Y-83830184D01*
X99308080Y-83779150D01*
X99418963Y-83705060D01*
X99513260Y-83610763D01*
X99587350Y-83499880D01*
X99611872Y-83440680D01*
X99641596Y-83404461D01*
X99700189Y-83294842D01*
X99712650Y-83253760D01*
X126506296Y-83253760D01*
X126506296Y-84953760D01*
X126513575Y-85027665D01*
X126535132Y-85098730D01*
X126570139Y-85164223D01*
X126617251Y-85221629D01*
X126674657Y-85268741D01*
X126740150Y-85303748D01*
X126811215Y-85325305D01*
X126885120Y-85332584D01*
X128585120Y-85332584D01*
X128659025Y-85325305D01*
X128730090Y-85303748D01*
X128795583Y-85268741D01*
X128852989Y-85221629D01*
X128900101Y-85164223D01*
X128935108Y-85098730D01*
X128956665Y-85027665D01*
X128963944Y-84953760D01*
X128963944Y-83253760D01*
X128956665Y-83179855D01*
X128935108Y-83108790D01*
X128900101Y-83043297D01*
X128852989Y-82985891D01*
X128795583Y-82938779D01*
X128730090Y-82903772D01*
X128659025Y-82882215D01*
X128585120Y-82874936D01*
X126885120Y-82874936D01*
X126811215Y-82882215D01*
X126740150Y-82903772D01*
X126674657Y-82938779D01*
X126617251Y-82985891D01*
X126570139Y-83043297D01*
X126535132Y-83108790D01*
X126513575Y-83179855D01*
X126506296Y-83253760D01*
X99712650Y-83253760D01*
X99736270Y-83175898D01*
X99745400Y-83083198D01*
X99745400Y-83083189D01*
X99748452Y-83052201D01*
X99745400Y-83021213D01*
X99745400Y-81442911D01*
X126508120Y-81442911D01*
X126508120Y-81684609D01*
X126555273Y-81921663D01*
X126647767Y-82144962D01*
X126782047Y-82345927D01*
X126952953Y-82516833D01*
X127153918Y-82651113D01*
X127377217Y-82743607D01*
X127614271Y-82790760D01*
X127855969Y-82790760D01*
X128093023Y-82743607D01*
X128316322Y-82651113D01*
X128517287Y-82516833D01*
X128688193Y-82345927D01*
X128822473Y-82144962D01*
X128914967Y-81921663D01*
X128962120Y-81684609D01*
X128962120Y-81442911D01*
X128914967Y-81205857D01*
X128822473Y-80982558D01*
X128688193Y-80781593D01*
X128606600Y-80700000D01*
X129761928Y-80700000D01*
X129774188Y-80824482D01*
X129810498Y-80944180D01*
X129869463Y-81054494D01*
X129948815Y-81151185D01*
X130045506Y-81230537D01*
X130155820Y-81289502D01*
X130275518Y-81325812D01*
X130400000Y-81338072D01*
X130614250Y-81335000D01*
X130773000Y-81176250D01*
X130773000Y-80077000D01*
X131027000Y-80077000D01*
X131027000Y-81176250D01*
X131185750Y-81335000D01*
X131400000Y-81338072D01*
X131524482Y-81325812D01*
X131644180Y-81289502D01*
X131754494Y-81230537D01*
X131851185Y-81151185D01*
X131930537Y-81054494D01*
X131989502Y-80944180D01*
X132025812Y-80824482D01*
X132038072Y-80700000D01*
X132035000Y-80235750D01*
X131876250Y-80077000D01*
X131027000Y-80077000D01*
X130773000Y-80077000D01*
X129923750Y-80077000D01*
X129765000Y-80235750D01*
X129761928Y-80700000D01*
X128606600Y-80700000D01*
X128517287Y-80610687D01*
X128316322Y-80476407D01*
X128093023Y-80383913D01*
X127855969Y-80336760D01*
X127614271Y-80336760D01*
X127377217Y-80383913D01*
X127153918Y-80476407D01*
X126952953Y-80610687D01*
X126782047Y-80781593D01*
X126647767Y-80982558D01*
X126555273Y-81205857D01*
X126508120Y-81442911D01*
X99745400Y-81442911D01*
X99745400Y-78902911D01*
X126508120Y-78902911D01*
X126508120Y-79144609D01*
X126555273Y-79381663D01*
X126647767Y-79604962D01*
X126782047Y-79805927D01*
X126952953Y-79976833D01*
X127153918Y-80111113D01*
X127377217Y-80203607D01*
X127614271Y-80250760D01*
X127855969Y-80250760D01*
X128093023Y-80203607D01*
X128316322Y-80111113D01*
X128517287Y-79976833D01*
X128688193Y-79805927D01*
X128822473Y-79604962D01*
X128914967Y-79381663D01*
X128951102Y-79200000D01*
X129761928Y-79200000D01*
X129765000Y-79664250D01*
X129923750Y-79823000D01*
X130773000Y-79823000D01*
X130773000Y-78723750D01*
X131027000Y-78723750D01*
X131027000Y-79823000D01*
X131876250Y-79823000D01*
X132035000Y-79664250D01*
X132038072Y-79200000D01*
X132025812Y-79075518D01*
X131989502Y-78955820D01*
X131930537Y-78845506D01*
X131851185Y-78748815D01*
X131754494Y-78669463D01*
X131644180Y-78610498D01*
X131524482Y-78574188D01*
X131400000Y-78561928D01*
X131185750Y-78565000D01*
X131027000Y-78723750D01*
X130773000Y-78723750D01*
X130614250Y-78565000D01*
X130400000Y-78561928D01*
X130275518Y-78574188D01*
X130155820Y-78610498D01*
X130045506Y-78669463D01*
X129948815Y-78748815D01*
X129869463Y-78845506D01*
X129810498Y-78955820D01*
X129774188Y-79075518D01*
X129761928Y-79200000D01*
X128951102Y-79200000D01*
X128962120Y-79144609D01*
X128962120Y-78902911D01*
X128914967Y-78665857D01*
X128822473Y-78442558D01*
X128688193Y-78241593D01*
X128517287Y-78070687D01*
X128316322Y-77936407D01*
X128093023Y-77843913D01*
X127855969Y-77796760D01*
X127614271Y-77796760D01*
X127377217Y-77843913D01*
X127153918Y-77936407D01*
X126952953Y-78070687D01*
X126782047Y-78241593D01*
X126647767Y-78442558D01*
X126555273Y-78665857D01*
X126508120Y-78902911D01*
X99745400Y-78902911D01*
X99745400Y-73788568D01*
X107808569Y-65725400D01*
X109899020Y-65725400D01*
X109930010Y-65728452D01*
X109961000Y-65725400D01*
X109961008Y-65725400D01*
X110053708Y-65716270D01*
X110172652Y-65680189D01*
X110282271Y-65621596D01*
X110378353Y-65542743D01*
X110398115Y-65518663D01*
X111044302Y-64872477D01*
X111103395Y-64800472D01*
X111161988Y-64690853D01*
X111198068Y-64571909D01*
X111210251Y-64448212D01*
X111207382Y-64419083D01*
X111291666Y-64334799D01*
X111294411Y-64334799D01*
X111325401Y-64337851D01*
X111356391Y-64334799D01*
X111356399Y-64334799D01*
X111449099Y-64325669D01*
X111568043Y-64289588D01*
X111677662Y-64230995D01*
X111773744Y-64152142D01*
X111793506Y-64128062D01*
X111839011Y-64082557D01*
X111863091Y-64062795D01*
X111925032Y-63987319D01*
X111973799Y-63947297D01*
X112052652Y-63851215D01*
X112111245Y-63741596D01*
X112147326Y-63622652D01*
X112156456Y-63529952D01*
X112156456Y-62044005D01*
X112220640Y-62140063D01*
X112314937Y-62234360D01*
X112425820Y-62308450D01*
X112549026Y-62359484D01*
X112679821Y-62385500D01*
X112813179Y-62385500D01*
X112943974Y-62359484D01*
X113067180Y-62308450D01*
X113178063Y-62234360D01*
X113272360Y-62140063D01*
X113346450Y-62029180D01*
X113397484Y-61905974D01*
X113423500Y-61775179D01*
X113423500Y-61641821D01*
X113409288Y-61570370D01*
X113426551Y-61627277D01*
X113429313Y-61636382D01*
X113476113Y-61723939D01*
X113539095Y-61800683D01*
X113558323Y-61816463D01*
X116411946Y-64670086D01*
X116335837Y-64720940D01*
X116241540Y-64815237D01*
X116167450Y-64926120D01*
X116116416Y-65049326D01*
X116090400Y-65180121D01*
X116090400Y-65313479D01*
X116116416Y-65444274D01*
X116167450Y-65567480D01*
X116241540Y-65678363D01*
X116263400Y-65700223D01*
X116263401Y-68584416D01*
X116260962Y-68609180D01*
X116270693Y-68707981D01*
X116293014Y-68781561D01*
X116299513Y-68802985D01*
X116346313Y-68890542D01*
X116409295Y-68967286D01*
X116428522Y-68983066D01*
X116598400Y-69152943D01*
X116598400Y-69183859D01*
X116610241Y-69243390D01*
X113741277Y-69243390D01*
X113719417Y-69221530D01*
X113608534Y-69147440D01*
X113485328Y-69096406D01*
X113354533Y-69070390D01*
X113221175Y-69070390D01*
X113090380Y-69096406D01*
X112967174Y-69147440D01*
X112856291Y-69221530D01*
X112761994Y-69315827D01*
X112687904Y-69426710D01*
X112636870Y-69549916D01*
X112610854Y-69680711D01*
X112610854Y-69814069D01*
X112636870Y-69944864D01*
X112687904Y-70068070D01*
X112761994Y-70178953D01*
X112856291Y-70273250D01*
X112967174Y-70347340D01*
X113090380Y-70398374D01*
X113221175Y-70424390D01*
X113354533Y-70424390D01*
X113485328Y-70398374D01*
X113608534Y-70347340D01*
X113719417Y-70273250D01*
X113741277Y-70251390D01*
X114705241Y-70251390D01*
X114693400Y-70310921D01*
X114693400Y-70444279D01*
X114719416Y-70575074D01*
X114770450Y-70698280D01*
X114844540Y-70809163D01*
X114899577Y-70864200D01*
X114045823Y-70864200D01*
X114023963Y-70842340D01*
X113913080Y-70768250D01*
X113789874Y-70717216D01*
X113659079Y-70691200D01*
X113525721Y-70691200D01*
X113394926Y-70717216D01*
X113271720Y-70768250D01*
X113160837Y-70842340D01*
X113066540Y-70936637D01*
X112992450Y-71047520D01*
X112941416Y-71170726D01*
X112915400Y-71301521D01*
X112915400Y-71434879D01*
X112941416Y-71565674D01*
X112992450Y-71688880D01*
X113066540Y-71799763D01*
X113160837Y-71894060D01*
X113271720Y-71968150D01*
X113394926Y-72019184D01*
X113525721Y-72045200D01*
X113659079Y-72045200D01*
X113789874Y-72019184D01*
X113913080Y-71968150D01*
X114023963Y-71894060D01*
X114045823Y-71872200D01*
X116304637Y-71872200D01*
X120406714Y-75974278D01*
X120422494Y-75993506D01*
X120499238Y-76056488D01*
X120586795Y-76103288D01*
X120625342Y-76114981D01*
X120681798Y-76132107D01*
X120780599Y-76141838D01*
X120805353Y-76139400D01*
X121698777Y-76139400D01*
X121720637Y-76161260D01*
X121831520Y-76235350D01*
X121954726Y-76286384D01*
X122085521Y-76312400D01*
X122218879Y-76312400D01*
X122349674Y-76286384D01*
X122472880Y-76235350D01*
X122583763Y-76161260D01*
X122678060Y-76066963D01*
X122730767Y-75988082D01*
X122796720Y-76032150D01*
X122919926Y-76083184D01*
X123050721Y-76109200D01*
X123184079Y-76109200D01*
X123314874Y-76083184D01*
X123438080Y-76032150D01*
X123548963Y-75958060D01*
X123570823Y-75936200D01*
X125556446Y-75936200D01*
X125581200Y-75938638D01*
X125680001Y-75928907D01*
X125694588Y-75924482D01*
X125775005Y-75900088D01*
X125862562Y-75853288D01*
X125939306Y-75790306D01*
X125955090Y-75771073D01*
X126505963Y-75220200D01*
X126536879Y-75220200D01*
X126667674Y-75194184D01*
X126790880Y-75143150D01*
X126901763Y-75069060D01*
X126996060Y-74974763D01*
X127070150Y-74863880D01*
X127121184Y-74740674D01*
X127147200Y-74609879D01*
X127147200Y-74476521D01*
X127121184Y-74345726D01*
X127070150Y-74222520D01*
X126996060Y-74111637D01*
X126901763Y-74017340D01*
X126790880Y-73943250D01*
X126667674Y-73892216D01*
X126536879Y-73866200D01*
X126403521Y-73866200D01*
X126272726Y-73892216D01*
X126149520Y-73943250D01*
X126038637Y-74017340D01*
X125944340Y-74111637D01*
X125870250Y-74222520D01*
X125819216Y-74345726D01*
X125793200Y-74476521D01*
X125793200Y-74507437D01*
X125372437Y-74928200D01*
X123570823Y-74928200D01*
X123548963Y-74906340D01*
X123438080Y-74832250D01*
X123314874Y-74781216D01*
X123184079Y-74755200D01*
X123050721Y-74755200D01*
X122919926Y-74781216D01*
X122796720Y-74832250D01*
X122685837Y-74906340D01*
X122591540Y-75000637D01*
X122538833Y-75079518D01*
X122472880Y-75035450D01*
X122349674Y-74984416D01*
X122218879Y-74958400D01*
X122085521Y-74958400D01*
X121954726Y-74984416D01*
X121831520Y-75035450D01*
X121720637Y-75109540D01*
X121698777Y-75131400D01*
X120989364Y-75131400D01*
X116887290Y-71029327D01*
X116871506Y-71010094D01*
X116794762Y-70947112D01*
X116707205Y-70900312D01*
X116645519Y-70881600D01*
X119936837Y-70881600D01*
X122288000Y-73232763D01*
X122288000Y-73263679D01*
X122314016Y-73394474D01*
X122365050Y-73517680D01*
X122439140Y-73628563D01*
X122533437Y-73722860D01*
X122644320Y-73796950D01*
X122767526Y-73847984D01*
X122898321Y-73874000D01*
X123031679Y-73874000D01*
X123162474Y-73847984D01*
X123285680Y-73796950D01*
X123396563Y-73722860D01*
X123490860Y-73628563D01*
X123564950Y-73517680D01*
X123615984Y-73394474D01*
X123642000Y-73263679D01*
X123642000Y-73130321D01*
X123615984Y-72999526D01*
X123564950Y-72876320D01*
X123490860Y-72765437D01*
X123396563Y-72671140D01*
X123285680Y-72597050D01*
X123162474Y-72546016D01*
X123031679Y-72520000D01*
X123000763Y-72520000D01*
X122788589Y-72307826D01*
X122872921Y-72324600D01*
X123006279Y-72324600D01*
X123137074Y-72298584D01*
X123260280Y-72247550D01*
X123371163Y-72173460D01*
X123465460Y-72079163D01*
X123539550Y-71968280D01*
X123590584Y-71845074D01*
X123616600Y-71714279D01*
X123616600Y-71580921D01*
X123590584Y-71450126D01*
X123539550Y-71326920D01*
X123465460Y-71216037D01*
X123371163Y-71121740D01*
X123260280Y-71047650D01*
X123137074Y-70996616D01*
X123006279Y-70970600D01*
X122975363Y-70970600D01*
X121413280Y-69408517D01*
X121397496Y-69389284D01*
X121320752Y-69326302D01*
X121233195Y-69279502D01*
X121138191Y-69250683D01*
X121064144Y-69243390D01*
X121039390Y-69240952D01*
X121014636Y-69243390D01*
X117940559Y-69243390D01*
X117952400Y-69183859D01*
X117952400Y-69050501D01*
X117926384Y-68919706D01*
X117875350Y-68796500D01*
X117801260Y-68685617D01*
X117706963Y-68591320D01*
X117596080Y-68517230D01*
X117472874Y-68466196D01*
X117342079Y-68440180D01*
X117311163Y-68440180D01*
X117271400Y-68400417D01*
X117271400Y-65700223D01*
X117293260Y-65678363D01*
X117344114Y-65602254D01*
X119051633Y-67309773D01*
X119051633Y-67340689D01*
X119077649Y-67471484D01*
X119128683Y-67594690D01*
X119202773Y-67705573D01*
X119297070Y-67799870D01*
X119407953Y-67873960D01*
X119531159Y-67924994D01*
X119661954Y-67951010D01*
X119795312Y-67951010D01*
X119926107Y-67924994D01*
X120049313Y-67873960D01*
X120160196Y-67799870D01*
X120254493Y-67705573D01*
X120328583Y-67594690D01*
X120379617Y-67471484D01*
X120405633Y-67340689D01*
X120405633Y-67207331D01*
X120379617Y-67076536D01*
X120328583Y-66953330D01*
X120254493Y-66842447D01*
X120160196Y-66748150D01*
X120049313Y-66674060D01*
X119926107Y-66623026D01*
X119795312Y-66597010D01*
X119764396Y-66597010D01*
X114401200Y-61233814D01*
X114401200Y-60627116D01*
X114441313Y-60702162D01*
X114504295Y-60778906D01*
X114523523Y-60794686D01*
X119798800Y-66069964D01*
X119798800Y-66100879D01*
X119824816Y-66231674D01*
X119875850Y-66354880D01*
X119949940Y-66465763D01*
X120044237Y-66560060D01*
X120155120Y-66634150D01*
X120278326Y-66685184D01*
X120409121Y-66711200D01*
X120542479Y-66711200D01*
X120673274Y-66685184D01*
X120796480Y-66634150D01*
X120907363Y-66560060D01*
X121001660Y-66465763D01*
X121075750Y-66354880D01*
X121126784Y-66231674D01*
X121152800Y-66100879D01*
X121152800Y-65967521D01*
X121126784Y-65836726D01*
X121075750Y-65713520D01*
X121001660Y-65602637D01*
X120907363Y-65508340D01*
X120796480Y-65434250D01*
X120673274Y-65383216D01*
X120542479Y-65357200D01*
X120511564Y-65357200D01*
X116544249Y-61389886D01*
X116599363Y-61353060D01*
X116693660Y-61258763D01*
X116767750Y-61147880D01*
X116818784Y-61024674D01*
X116844800Y-60893879D01*
X116844800Y-60862963D01*
X117302842Y-60404921D01*
X119748000Y-60404921D01*
X119748000Y-60538279D01*
X119774016Y-60669074D01*
X119825050Y-60792280D01*
X119899140Y-60903163D01*
X119993437Y-60997460D01*
X120104320Y-61071550D01*
X120227526Y-61122584D01*
X120358321Y-61148600D01*
X120389237Y-61148600D01*
X121956110Y-62715473D01*
X121971894Y-62734706D01*
X122048638Y-62797688D01*
X122136195Y-62844488D01*
X122202379Y-62864565D01*
X122231198Y-62873307D01*
X122330000Y-62883038D01*
X122354754Y-62880600D01*
X122790977Y-62880600D01*
X122812837Y-62902460D01*
X122923720Y-62976550D01*
X123046926Y-63027584D01*
X123177721Y-63053600D01*
X123311079Y-63053600D01*
X123441874Y-63027584D01*
X123565080Y-62976550D01*
X123675963Y-62902460D01*
X123770260Y-62808163D01*
X123844350Y-62697280D01*
X123895384Y-62574074D01*
X123906079Y-62520305D01*
X124256086Y-62520305D01*
X124268346Y-62644787D01*
X124304655Y-62764485D01*
X124363620Y-62874799D01*
X124442972Y-62971490D01*
X124773419Y-63297592D01*
X124997925Y-63297592D01*
X125598436Y-62697082D01*
X124821149Y-61919795D01*
X124596642Y-61919795D01*
X124442972Y-62069120D01*
X124363620Y-62165811D01*
X124304655Y-62276126D01*
X124268346Y-62395824D01*
X124256086Y-62520305D01*
X123906079Y-62520305D01*
X123921400Y-62443279D01*
X123921400Y-62309921D01*
X123895384Y-62179126D01*
X123844350Y-62055920D01*
X123770260Y-61945037D01*
X123675963Y-61850740D01*
X123565080Y-61776650D01*
X123441874Y-61725616D01*
X123311079Y-61699600D01*
X123177721Y-61699600D01*
X123046926Y-61725616D01*
X122923720Y-61776650D01*
X122812837Y-61850740D01*
X122790977Y-61872600D01*
X122538763Y-61872600D01*
X122181846Y-61515683D01*
X125000754Y-61515683D01*
X125000754Y-61740190D01*
X125778041Y-62517477D01*
X126378551Y-61916966D01*
X126378551Y-61692460D01*
X126052449Y-61362013D01*
X125955758Y-61282661D01*
X125845444Y-61223696D01*
X125725746Y-61187387D01*
X125601264Y-61175127D01*
X125476783Y-61187387D01*
X125357085Y-61223696D01*
X125246770Y-61282661D01*
X125150079Y-61362013D01*
X125000754Y-61515683D01*
X122181846Y-61515683D01*
X121102000Y-60435837D01*
X121102000Y-60404921D01*
X121075984Y-60274126D01*
X121024950Y-60150920D01*
X120950860Y-60040037D01*
X120856563Y-59945740D01*
X120745680Y-59871650D01*
X120622474Y-59820616D01*
X120491679Y-59794600D01*
X120358321Y-59794600D01*
X120227526Y-59820616D01*
X120104320Y-59871650D01*
X119993437Y-59945740D01*
X119899140Y-60040037D01*
X119825050Y-60150920D01*
X119774016Y-60274126D01*
X119748000Y-60404921D01*
X117302842Y-60404921D01*
X117538078Y-60169686D01*
X117557306Y-60153906D01*
X117620288Y-60077162D01*
X117667088Y-59989605D01*
X117691974Y-59907566D01*
X117695907Y-59894602D01*
X117705638Y-59795800D01*
X117703200Y-59771046D01*
X117703200Y-54727423D01*
X117725060Y-54705563D01*
X117799150Y-54594680D01*
X117850184Y-54471474D01*
X117876200Y-54340679D01*
X117876200Y-54207321D01*
X117850184Y-54076526D01*
X117799150Y-53953320D01*
X117725060Y-53842437D01*
X117630763Y-53748140D01*
X117519880Y-53674050D01*
X117396674Y-53623016D01*
X117265879Y-53597000D01*
X117132521Y-53597000D01*
X117001726Y-53623016D01*
X116878520Y-53674050D01*
X116767637Y-53748140D01*
X116673340Y-53842437D01*
X116599250Y-53953320D01*
X116548216Y-54076526D01*
X116522200Y-54207321D01*
X116522200Y-54340679D01*
X116548216Y-54471474D01*
X116599250Y-54594680D01*
X116673340Y-54705563D01*
X116695200Y-54727423D01*
X116695201Y-59587035D01*
X116132037Y-60150200D01*
X116101121Y-60150200D01*
X115970326Y-60176216D01*
X115847120Y-60227250D01*
X115736237Y-60301340D01*
X115641940Y-60395637D01*
X115605114Y-60450751D01*
X115366400Y-60212037D01*
X115366400Y-60163023D01*
X115388260Y-60141163D01*
X115462350Y-60030280D01*
X115513384Y-59907074D01*
X115539400Y-59776279D01*
X115539400Y-59642921D01*
X115513384Y-59512126D01*
X115462350Y-59388920D01*
X115388260Y-59278037D01*
X115293963Y-59183740D01*
X115183080Y-59109650D01*
X115059874Y-59058616D01*
X114929079Y-59032600D01*
X114795721Y-59032600D01*
X114664926Y-59058616D01*
X114541720Y-59109650D01*
X114430837Y-59183740D01*
X114405200Y-59209377D01*
X114328763Y-59132940D01*
X114217880Y-59058850D01*
X114094674Y-59007816D01*
X113963879Y-58981800D01*
X113830521Y-58981800D01*
X113699726Y-59007816D01*
X113576520Y-59058850D01*
X113465637Y-59132940D01*
X113371340Y-59227237D01*
X113297250Y-59338120D01*
X113246216Y-59461326D01*
X113220200Y-59592121D01*
X113220200Y-59725479D01*
X113246216Y-59856274D01*
X113297250Y-59979480D01*
X113371340Y-60090363D01*
X113393200Y-60112223D01*
X113393201Y-61417814D01*
X113390762Y-61442577D01*
X113397523Y-61511221D01*
X113397484Y-61511026D01*
X113346450Y-61387820D01*
X113272360Y-61276937D01*
X113178063Y-61182640D01*
X113067180Y-61108550D01*
X113018935Y-61088566D01*
X111993562Y-60063194D01*
X111993559Y-60063190D01*
X111993557Y-60063188D01*
X111973799Y-60039113D01*
X111949725Y-60019356D01*
X111683400Y-59753032D01*
X111683400Y-57863608D01*
X111686452Y-57832620D01*
X111683400Y-57801632D01*
X111683400Y-57801623D01*
X111674270Y-57708923D01*
X111638189Y-57589979D01*
X111579596Y-57480360D01*
X111547918Y-57441760D01*
X111520503Y-57408355D01*
X111520501Y-57408353D01*
X111500743Y-57384278D01*
X111476669Y-57364521D01*
X110003473Y-55891326D01*
X109983711Y-55867246D01*
X109887629Y-55788393D01*
X109778010Y-55729800D01*
X109659066Y-55693719D01*
X109566366Y-55684589D01*
X109566358Y-55684589D01*
X109535368Y-55681537D01*
X109504378Y-55684589D01*
X108839444Y-55684589D01*
X108808454Y-55681537D01*
X108777463Y-55684589D01*
X108777456Y-55684589D01*
X108684756Y-55693719D01*
X108565812Y-55729800D01*
X108456193Y-55788393D01*
X108430577Y-55809416D01*
X108360111Y-55867246D01*
X108340353Y-55891321D01*
X108255881Y-55975793D01*
X103349361Y-55963884D01*
X103375536Y-55937709D01*
X103460569Y-55810448D01*
X103519141Y-55669043D01*
X103549000Y-55518928D01*
X103549000Y-55378163D01*
X104047051Y-54880113D01*
X104089537Y-54914981D01*
X104155030Y-54949988D01*
X104226095Y-54971545D01*
X104300000Y-54978824D01*
X105800000Y-54978824D01*
X105873905Y-54971545D01*
X105944970Y-54949988D01*
X106010463Y-54914981D01*
X106067869Y-54867869D01*
X106114981Y-54810463D01*
X106149988Y-54744970D01*
X106171545Y-54673905D01*
X106178824Y-54600000D01*
X108561928Y-54600000D01*
X108574188Y-54724482D01*
X108610498Y-54844180D01*
X108669463Y-54954494D01*
X108748815Y-55051185D01*
X108845506Y-55130537D01*
X108955820Y-55189502D01*
X109075518Y-55225812D01*
X109200000Y-55238072D01*
X109664250Y-55235000D01*
X109823000Y-55076250D01*
X109823000Y-54227000D01*
X110077000Y-54227000D01*
X110077000Y-55076250D01*
X110235750Y-55235000D01*
X110700000Y-55238072D01*
X110824482Y-55225812D01*
X110944180Y-55189502D01*
X111054494Y-55130537D01*
X111151185Y-55051185D01*
X111230537Y-54954494D01*
X111289502Y-54844180D01*
X111325812Y-54724482D01*
X111338072Y-54600000D01*
X111335000Y-54385750D01*
X111176250Y-54227000D01*
X110077000Y-54227000D01*
X109823000Y-54227000D01*
X108723750Y-54227000D01*
X108565000Y-54385750D01*
X108561928Y-54600000D01*
X106178824Y-54600000D01*
X106178824Y-53600000D01*
X106171545Y-53526095D01*
X106149988Y-53455030D01*
X106114981Y-53389537D01*
X106067869Y-53332131D01*
X106010463Y-53285019D01*
X105944970Y-53250012D01*
X105873905Y-53228455D01*
X105800000Y-53221176D01*
X104300000Y-53221176D01*
X104226095Y-53228455D01*
X104155030Y-53250012D01*
X104089537Y-53285019D01*
X104032131Y-53332131D01*
X103985019Y-53389537D01*
X103950012Y-53455030D01*
X103928455Y-53526095D01*
X103921176Y-53600000D01*
X103921176Y-53631936D01*
X103920595Y-53632112D01*
X103833038Y-53678912D01*
X103756294Y-53741894D01*
X103740514Y-53761122D01*
X102836237Y-54665400D01*
X102695472Y-54665400D01*
X102545357Y-54695259D01*
X102403952Y-54753831D01*
X102276691Y-54838864D01*
X102168464Y-54947091D01*
X102083431Y-55074352D01*
X102024859Y-55215757D01*
X101995000Y-55365872D01*
X101995000Y-55518928D01*
X102024859Y-55669043D01*
X102054406Y-55740376D01*
X101294800Y-55740376D01*
X101294800Y-52159732D01*
X101302263Y-52173694D01*
X101381615Y-52270385D01*
X101478306Y-52349737D01*
X101588620Y-52408702D01*
X101708318Y-52445012D01*
X101832800Y-52457272D01*
X102297050Y-52454200D01*
X102455800Y-52295450D01*
X102455800Y-50946200D01*
X102435800Y-50946200D01*
X102435800Y-50692200D01*
X102455800Y-50692200D01*
X102455800Y-50672200D01*
X102709800Y-50672200D01*
X102709800Y-50692200D01*
%TA.AperFunction,Conductor*%
D29*
G36*
X102709800Y-50692200D02*
G01*
X102729800Y-50692200D01*
X102729800Y-50946200D01*
X102709800Y-50946200D01*
X102709800Y-52295450D01*
X102868550Y-52454200D01*
X103332800Y-52457272D01*
X103457282Y-52445012D01*
X103576980Y-52408702D01*
X103687294Y-52349737D01*
X103783985Y-52270385D01*
X103863337Y-52173694D01*
X103922302Y-52063380D01*
X103958612Y-51943682D01*
X103970872Y-51819200D01*
X103969852Y-51582088D01*
X103985019Y-51610463D01*
X104032131Y-51667869D01*
X104089537Y-51714981D01*
X104155030Y-51749988D01*
X104226095Y-51771545D01*
X104300000Y-51778824D01*
X105800000Y-51778824D01*
X105873905Y-51771545D01*
X105944970Y-51749988D01*
X106010463Y-51714981D01*
X106067869Y-51667869D01*
X106114981Y-51610463D01*
X106149988Y-51544970D01*
X106171545Y-51473905D01*
X106178430Y-51404000D01*
X107164837Y-51404000D01*
X108065600Y-52304763D01*
X108065600Y-52445528D01*
X108095459Y-52595643D01*
X108154031Y-52737048D01*
X108239064Y-52864309D01*
X108347291Y-52972536D01*
X108474552Y-53057569D01*
X108615957Y-53116141D01*
X108754943Y-53143786D01*
X108748815Y-53148815D01*
X108669463Y-53245506D01*
X108610498Y-53355820D01*
X108574188Y-53475518D01*
X108561928Y-53600000D01*
X108565000Y-53814250D01*
X108723750Y-53973000D01*
X109823000Y-53973000D01*
X109823000Y-53123750D01*
X110077000Y-53123750D01*
X110077000Y-53973000D01*
X111176250Y-53973000D01*
X111335000Y-53814250D01*
X111338072Y-53600000D01*
X111325812Y-53475518D01*
X111289502Y-53355820D01*
X111230537Y-53245506D01*
X111151185Y-53148815D01*
X111054494Y-53069463D01*
X110944180Y-53010498D01*
X110824482Y-52974188D01*
X110700000Y-52961928D01*
X110235750Y-52965000D01*
X110077000Y-53123750D01*
X109823000Y-53123750D01*
X109664250Y-52965000D01*
X109347541Y-52962904D01*
X109446136Y-52864309D01*
X109531169Y-52737048D01*
X109589741Y-52595643D01*
X109619600Y-52445528D01*
X109619600Y-52292472D01*
X109589741Y-52142357D01*
X109531169Y-52000952D01*
X109446136Y-51873691D01*
X109351269Y-51778824D01*
X110700000Y-51778824D01*
X110773905Y-51771545D01*
X110844970Y-51749988D01*
X110910463Y-51714981D01*
X110967869Y-51667869D01*
X111014981Y-51610463D01*
X111049988Y-51544970D01*
X111071545Y-51473905D01*
X111078430Y-51404000D01*
X111711437Y-51404000D01*
X113650314Y-53342878D01*
X113666094Y-53362106D01*
X113742838Y-53425088D01*
X113830395Y-53471888D01*
X113925399Y-53500707D01*
X113999446Y-53508000D01*
X113999448Y-53508000D01*
X114024199Y-53510438D01*
X114048950Y-53508000D01*
X119200237Y-53508000D01*
X121809219Y-56116983D01*
X121809218Y-58139861D01*
X121161466Y-58787613D01*
X121114354Y-58845019D01*
X121079347Y-58910512D01*
X121057790Y-58981577D01*
X121050511Y-59055482D01*
X121057790Y-59129387D01*
X121079347Y-59200452D01*
X121114354Y-59265945D01*
X121161466Y-59323351D01*
X122222126Y-60384011D01*
X122279532Y-60431123D01*
X122345025Y-60466130D01*
X122416090Y-60487687D01*
X122489995Y-60494966D01*
X122563900Y-60487687D01*
X122634965Y-60466130D01*
X122700458Y-60431123D01*
X122757864Y-60384011D01*
X123464970Y-59676905D01*
X123512082Y-59619499D01*
X123547089Y-59554006D01*
X123568646Y-59482941D01*
X123575925Y-59409036D01*
X123568646Y-59335131D01*
X123547089Y-59264066D01*
X123512082Y-59198573D01*
X123464970Y-59141167D01*
X123349611Y-59025808D01*
X123350750Y-59026569D01*
X123492155Y-59085141D01*
X123642270Y-59115000D01*
X123795326Y-59115000D01*
X123945441Y-59085141D01*
X124086846Y-59026569D01*
X124214107Y-58941536D01*
X124313643Y-58842000D01*
X125735678Y-58842000D01*
X126886480Y-59992802D01*
X126841918Y-60047101D01*
X126806911Y-60112594D01*
X126785354Y-60183659D01*
X126778075Y-60257564D01*
X126785354Y-60331469D01*
X126806911Y-60402534D01*
X126841918Y-60468027D01*
X126889030Y-60525433D01*
X127949690Y-61586093D01*
X128007096Y-61633205D01*
X128072589Y-61668212D01*
X128143654Y-61689769D01*
X128217559Y-61697048D01*
X128291464Y-61689769D01*
X128362529Y-61668212D01*
X128428022Y-61633205D01*
X128485428Y-61586093D01*
X129192534Y-60878987D01*
X129239646Y-60821581D01*
X129269725Y-60765309D01*
X131521189Y-63016773D01*
X131521190Y-63525489D01*
X130901622Y-62905922D01*
X130887827Y-62889113D01*
X130820753Y-62834066D01*
X130744228Y-62793162D01*
X130661193Y-62767974D01*
X130596476Y-62761600D01*
X130596469Y-62761600D01*
X130574840Y-62759470D01*
X130553211Y-62761600D01*
X127726269Y-62761600D01*
X127704640Y-62759470D01*
X127683011Y-62761600D01*
X127683004Y-62761600D01*
X127618287Y-62767974D01*
X127535252Y-62793162D01*
X127458727Y-62834066D01*
X127410240Y-62873859D01*
X127391653Y-62889113D01*
X127377863Y-62905916D01*
X127287987Y-62995792D01*
X127299996Y-62873859D01*
X127287736Y-62749377D01*
X127251427Y-62629679D01*
X127192462Y-62519365D01*
X127113110Y-62422674D01*
X126782663Y-62096572D01*
X126558157Y-62096572D01*
X125957646Y-62697082D01*
X125971789Y-62711225D01*
X125792184Y-62890830D01*
X125778041Y-62876687D01*
X125177531Y-63477198D01*
X125177531Y-63701704D01*
X125503633Y-64032151D01*
X125600324Y-64111503D01*
X125710638Y-64170468D01*
X125830336Y-64206777D01*
X125954818Y-64219037D01*
X126076752Y-64207028D01*
X124416337Y-65867443D01*
X124399534Y-65881233D01*
X124385744Y-65898036D01*
X124385741Y-65898039D01*
X124344486Y-65948308D01*
X124303582Y-66024833D01*
X124278394Y-66107868D01*
X124269890Y-66194220D01*
X124272021Y-66215858D01*
X124272020Y-67539111D01*
X124269890Y-67560740D01*
X124272020Y-67582369D01*
X124272020Y-67582375D01*
X124278394Y-67647092D01*
X124303582Y-67730127D01*
X124344486Y-67806652D01*
X124399533Y-67873727D01*
X124416342Y-67887522D01*
X124839407Y-68310588D01*
X124872806Y-68373072D01*
X124927853Y-68440147D01*
X124944662Y-68453942D01*
X125313421Y-68822701D01*
X125313420Y-69091000D01*
X125285921Y-69091000D01*
X125155126Y-69117016D01*
X125031920Y-69168050D01*
X124921037Y-69242140D01*
X124826740Y-69336437D01*
X124791622Y-69388995D01*
X124669791Y-69267164D01*
X124669791Y-69146445D01*
X124643775Y-69015650D01*
X124592741Y-68892444D01*
X124518651Y-68781561D01*
X124424354Y-68687264D01*
X124313471Y-68613174D01*
X124190265Y-68562140D01*
X124059470Y-68536124D01*
X123926112Y-68536124D01*
X123795317Y-68562140D01*
X123672111Y-68613174D01*
X123561228Y-68687264D01*
X123466931Y-68781561D01*
X123392841Y-68892444D01*
X123341807Y-69015650D01*
X123315791Y-69146445D01*
X123315791Y-69279803D01*
X123341807Y-69410598D01*
X123392841Y-69533804D01*
X123466931Y-69644687D01*
X123561228Y-69738984D01*
X123672111Y-69813074D01*
X123795317Y-69864108D01*
X123864996Y-69877968D01*
X123859726Y-69879016D01*
X123736520Y-69930050D01*
X123625637Y-70004140D01*
X123531340Y-70098437D01*
X123457250Y-70209320D01*
X123406216Y-70332526D01*
X123380200Y-70463321D01*
X123380200Y-70596679D01*
X123406216Y-70727474D01*
X123457250Y-70850680D01*
X123531340Y-70961563D01*
X123625637Y-71055860D01*
X123736520Y-71129950D01*
X123859726Y-71180984D01*
X123990521Y-71207000D01*
X124021437Y-71207000D01*
X125742400Y-72927964D01*
X125742400Y-72958879D01*
X125768416Y-73089674D01*
X125819450Y-73212880D01*
X125893540Y-73323763D01*
X125987837Y-73418060D01*
X126098720Y-73492150D01*
X126221926Y-73543184D01*
X126352721Y-73569200D01*
X126486079Y-73569200D01*
X126616874Y-73543184D01*
X126740080Y-73492150D01*
X126850963Y-73418060D01*
X126945260Y-73323763D01*
X127019350Y-73212880D01*
X127070384Y-73089674D01*
X127096400Y-72958879D01*
X127096400Y-72825521D01*
X127070384Y-72694726D01*
X127019350Y-72571520D01*
X126945260Y-72460637D01*
X126850963Y-72366340D01*
X126740080Y-72292250D01*
X126616874Y-72241216D01*
X126486079Y-72215200D01*
X126455164Y-72215200D01*
X125424330Y-71184366D01*
X125451925Y-71192737D01*
X125516642Y-71199111D01*
X125516649Y-71199111D01*
X125538278Y-71201241D01*
X125559907Y-71199111D01*
X127763150Y-71199111D01*
X127785304Y-71252596D01*
X127859394Y-71363479D01*
X127953691Y-71457776D01*
X128064574Y-71531866D01*
X128187780Y-71582900D01*
X128318575Y-71608916D01*
X128451933Y-71608916D01*
X128582728Y-71582900D01*
X128705934Y-71531866D01*
X128767820Y-71490515D01*
X128767821Y-73906896D01*
X128682460Y-73992257D01*
X128608370Y-74103140D01*
X128557336Y-74226346D01*
X128531320Y-74357141D01*
X128531320Y-74490499D01*
X128557336Y-74621294D01*
X128608370Y-74744500D01*
X128682460Y-74855383D01*
X128776757Y-74949680D01*
X128887640Y-75023770D01*
X129010846Y-75074804D01*
X129141641Y-75100820D01*
X129274999Y-75100820D01*
X129405794Y-75074804D01*
X129529000Y-75023770D01*
X129639883Y-74949680D01*
X129734180Y-74855383D01*
X129808270Y-74744500D01*
X129859304Y-74621294D01*
X129885320Y-74490499D01*
X129885320Y-74357141D01*
X129859304Y-74226346D01*
X129857447Y-74221863D01*
X129893599Y-74185711D01*
X129919397Y-74208108D01*
X130024328Y-74267992D01*
X130021176Y-74300000D01*
X130021176Y-75800000D01*
X130028455Y-75873905D01*
X130050012Y-75944970D01*
X130085019Y-76010463D01*
X130132131Y-76067869D01*
X130189537Y-76114981D01*
X130255030Y-76149988D01*
X130326095Y-76171545D01*
X130400000Y-76178824D01*
X131400000Y-76178824D01*
X131473905Y-76171545D01*
X131544970Y-76149988D01*
X131610463Y-76114981D01*
X131667869Y-76067869D01*
X131714981Y-76010463D01*
X131749988Y-75944970D01*
X131771545Y-75873905D01*
X131778824Y-75800000D01*
X131778824Y-74309887D01*
X131780240Y-74309721D01*
X131898886Y-74270107D01*
X132007523Y-74208108D01*
X132033321Y-74185711D01*
X132170210Y-74322600D01*
X132280240Y-74309721D01*
X132398886Y-74270107D01*
X132507523Y-74208108D01*
X132601978Y-74126105D01*
X132678620Y-74027252D01*
X132734503Y-73915346D01*
X132767482Y-73794687D01*
X132773460Y-73718350D01*
X132614710Y-73559600D01*
X130816460Y-73559600D01*
X130816460Y-73305600D01*
X132614710Y-73305600D01*
X132773460Y-73146850D01*
X132767482Y-73070513D01*
X132764215Y-73058560D01*
X132777382Y-73033927D01*
X132799736Y-72960236D01*
X132804747Y-72909356D01*
X132866965Y-72861118D01*
X132948968Y-72766663D01*
X133010967Y-72658026D01*
X133050581Y-72539380D01*
X133063460Y-72429350D01*
X132904710Y-72270600D01*
X132676107Y-72270600D01*
X132632701Y-72234979D01*
X132609542Y-72222600D01*
X132632701Y-72210221D01*
X132676107Y-72174600D01*
X132904710Y-72174600D01*
X133063460Y-72015850D01*
X133050581Y-71905820D01*
X133010967Y-71787174D01*
X132998805Y-71765863D01*
X133037460Y-71804518D01*
X133148343Y-71878608D01*
X133271549Y-71929642D01*
X133402344Y-71955658D01*
X133535702Y-71955658D01*
X133666497Y-71929642D01*
X133789703Y-71878608D01*
X133900586Y-71804518D01*
X133994883Y-71710221D01*
X134068973Y-71599338D01*
X134120007Y-71476132D01*
X134146023Y-71345337D01*
X134146023Y-71211979D01*
X134120007Y-71081184D01*
X134068973Y-70957978D01*
X133994883Y-70847095D01*
X133909523Y-70761735D01*
X133909523Y-69698792D01*
X133911653Y-69677163D01*
X133909523Y-69655534D01*
X133909523Y-69655527D01*
X133903149Y-69590810D01*
X133877961Y-69507775D01*
X133837057Y-69431250D01*
X133802616Y-69389284D01*
X133795802Y-69380981D01*
X133795800Y-69380979D01*
X133782010Y-69364176D01*
X133765208Y-69350387D01*
X133111078Y-68696258D01*
X133111078Y-68527011D01*
X133113208Y-68505382D01*
X133111078Y-68483753D01*
X133111078Y-68442062D01*
X134426201Y-69757186D01*
X134426202Y-73414616D01*
X133919642Y-73921176D01*
X133600000Y-73921176D01*
X133526095Y-73928455D01*
X133455030Y-73950012D01*
X133389537Y-73985019D01*
X133332131Y-74032131D01*
X133285019Y-74089537D01*
X133250012Y-74155030D01*
X133228455Y-74226095D01*
X133221176Y-74300000D01*
X133221176Y-74547354D01*
X133160511Y-74660851D01*
X133102643Y-74851613D01*
X133083104Y-75050000D01*
X133102643Y-75248387D01*
X133160511Y-75439149D01*
X133221176Y-75552646D01*
X133221176Y-75800000D01*
X133228455Y-75873905D01*
X133240913Y-75914973D01*
X133198431Y-75978552D01*
X133139859Y-76119957D01*
X133110000Y-76270072D01*
X133110000Y-76423128D01*
X133139859Y-76573243D01*
X133198431Y-76714648D01*
X133283464Y-76841909D01*
X133391691Y-76950136D01*
X133518952Y-77035169D01*
X133660357Y-77093741D01*
X133810472Y-77123600D01*
X133963528Y-77123600D01*
X134113643Y-77093741D01*
X134255048Y-77035169D01*
X134382309Y-76950136D01*
X134426201Y-76906244D01*
X134426201Y-78821176D01*
X133600000Y-78821176D01*
X133526095Y-78828455D01*
X133455030Y-78850012D01*
X133389537Y-78885019D01*
X133332131Y-78932131D01*
X133285019Y-78989537D01*
X133250012Y-79055030D01*
X133228455Y-79126095D01*
X133221176Y-79200000D01*
X133221176Y-80116060D01*
X132709923Y-80627314D01*
X132690695Y-80643094D01*
X132674915Y-80662322D01*
X132627713Y-80719838D01*
X132580913Y-80807395D01*
X132552093Y-80902399D01*
X132542362Y-81001200D01*
X132544801Y-81025964D01*
X132544800Y-85871707D01*
X85699200Y-85970781D01*
X85699200Y-83078402D01*
X85701638Y-83053648D01*
X85691907Y-82954847D01*
X85686359Y-82936559D01*
X85663088Y-82859843D01*
X85616288Y-82772286D01*
X85553306Y-82695542D01*
X85534073Y-82679758D01*
X84604000Y-81749685D01*
X84604000Y-81078430D01*
X84673905Y-81071545D01*
X84744970Y-81049988D01*
X84810463Y-81014981D01*
X84867869Y-80967869D01*
X84914981Y-80910463D01*
X84949988Y-80844970D01*
X84971545Y-80773905D01*
X84978824Y-80700000D01*
X84978824Y-79200000D01*
X84971545Y-79126095D01*
X84949988Y-79055030D01*
X84914981Y-78989537D01*
X84867869Y-78932131D01*
X84810463Y-78885019D01*
X84744970Y-78850012D01*
X84673905Y-78828455D01*
X84600000Y-78821176D01*
X83600000Y-78821176D01*
X83526095Y-78828455D01*
X83455030Y-78850012D01*
X83389537Y-78885019D01*
X83332131Y-78932131D01*
X83285019Y-78989537D01*
X83250012Y-79055030D01*
X83228455Y-79126095D01*
X83221176Y-79200000D01*
X83221176Y-80700000D01*
X83228455Y-80773905D01*
X83250012Y-80844970D01*
X83285019Y-80910463D01*
X83332131Y-80967869D01*
X83389537Y-81014981D01*
X83455030Y-81049988D01*
X83526095Y-81071545D01*
X83596001Y-81078430D01*
X83596001Y-81464817D01*
X81898948Y-79767764D01*
X81897357Y-79751614D01*
X81839489Y-79560851D01*
X81778824Y-79447354D01*
X81778824Y-79200000D01*
X81771545Y-79126095D01*
X81749988Y-79055030D01*
X81714981Y-78989537D01*
X81667869Y-78932131D01*
X81610463Y-78885019D01*
X81544970Y-78850012D01*
X81473905Y-78828455D01*
X81400000Y-78821176D01*
X81202360Y-78821176D01*
X80791946Y-78410762D01*
X80900643Y-78389141D01*
X81042048Y-78330569D01*
X81169309Y-78245536D01*
X81277536Y-78137309D01*
X81362569Y-78010048D01*
X81421141Y-77868643D01*
X81451000Y-77718528D01*
X81451000Y-77565472D01*
X81421141Y-77415357D01*
X81362569Y-77273952D01*
X81277536Y-77146691D01*
X81169309Y-77038464D01*
X81042048Y-76953431D01*
X80900643Y-76894859D01*
X80750528Y-76865000D01*
X80597472Y-76865000D01*
X80447357Y-76894859D01*
X80305952Y-76953431D01*
X80238200Y-76998701D01*
X80238200Y-76140992D01*
X80255030Y-76149988D01*
X80326095Y-76171545D01*
X80400000Y-76178824D01*
X81400000Y-76178824D01*
X81473905Y-76171545D01*
X81544970Y-76149988D01*
X81610463Y-76114981D01*
X81667869Y-76067869D01*
X81714981Y-76010463D01*
X81749988Y-75944970D01*
X81771545Y-75873905D01*
X81778824Y-75800000D01*
X82961928Y-75800000D01*
X82974188Y-75924482D01*
X83010498Y-76044180D01*
X83069463Y-76154494D01*
X83148815Y-76251185D01*
X83245506Y-76330537D01*
X83355820Y-76389502D01*
X83475518Y-76425812D01*
X83600000Y-76438072D01*
X83814250Y-76435000D01*
X83973000Y-76276250D01*
X83973000Y-75177000D01*
X84227000Y-75177000D01*
X84227000Y-76276250D01*
X84385750Y-76435000D01*
X84600000Y-76438072D01*
X84724482Y-76425812D01*
X84844180Y-76389502D01*
X84954494Y-76330537D01*
X85051185Y-76251185D01*
X85130537Y-76154494D01*
X85189502Y-76044180D01*
X85225812Y-75924482D01*
X85238072Y-75800000D01*
X85235000Y-75335750D01*
X85076250Y-75177000D01*
X84227000Y-75177000D01*
X83973000Y-75177000D01*
X83123750Y-75177000D01*
X82965000Y-75335750D01*
X82961928Y-75800000D01*
X81778824Y-75800000D01*
X81778824Y-74883939D01*
X82362763Y-74300000D01*
X82961928Y-74300000D01*
X82965000Y-74764250D01*
X83123750Y-74923000D01*
X83973000Y-74923000D01*
X83973000Y-73823750D01*
X84227000Y-73823750D01*
X84227000Y-74923000D01*
X85076250Y-74923000D01*
X85235000Y-74764250D01*
X85238072Y-74300000D01*
X85225812Y-74175518D01*
X85189502Y-74055820D01*
X85130537Y-73945506D01*
X85051185Y-73848815D01*
X84954494Y-73769463D01*
X84844180Y-73710498D01*
X84724482Y-73674188D01*
X84600000Y-73661928D01*
X84385750Y-73665000D01*
X84227000Y-73823750D01*
X83973000Y-73823750D01*
X83814250Y-73665000D01*
X83600000Y-73661928D01*
X83475518Y-73674188D01*
X83355820Y-73710498D01*
X83245506Y-73769463D01*
X83148815Y-73848815D01*
X83069463Y-73945506D01*
X83010498Y-74055820D01*
X82974188Y-74175518D01*
X82961928Y-74300000D01*
X82362763Y-74300000D01*
X83002563Y-73660201D01*
X86383407Y-73660201D01*
X86408161Y-73662639D01*
X86506962Y-73652908D01*
X86513591Y-73650897D01*
X86601966Y-73624089D01*
X86689523Y-73577289D01*
X86766267Y-73514307D01*
X86782052Y-73495073D01*
X86992667Y-73284457D01*
X87011905Y-73268669D01*
X87043560Y-73230097D01*
X87067080Y-73247641D01*
X87329901Y-73372825D01*
X87477110Y-73417476D01*
X87707000Y-73296155D01*
X87707000Y-72103000D01*
X87687000Y-72103000D01*
X87687000Y-71849000D01*
X87707000Y-71849000D01*
X87707000Y-71829000D01*
X87961000Y-71829000D01*
X87961000Y-71849000D01*
X87981000Y-71849000D01*
X87981000Y-72103000D01*
X87961000Y-72103000D01*
X87961000Y-73296155D01*
X88190890Y-73417476D01*
X88338099Y-73372825D01*
X88600920Y-73247641D01*
X88834269Y-73073588D01*
X89029178Y-72857355D01*
X89145176Y-72662620D01*
X89145176Y-72826000D01*
X89152455Y-72899905D01*
X89174012Y-72970970D01*
X89209019Y-73036463D01*
X89256131Y-73093869D01*
X89313537Y-73140981D01*
X89379030Y-73175988D01*
X89450095Y-73197545D01*
X89524000Y-73204824D01*
X89870000Y-73204824D01*
X89870001Y-75404636D01*
X89867562Y-75429400D01*
X89877293Y-75528201D01*
X89889852Y-75569600D01*
X89906113Y-75623205D01*
X89952913Y-75710762D01*
X90015895Y-75787506D01*
X90035123Y-75803286D01*
X93787514Y-79555678D01*
X93803294Y-79574906D01*
X93880038Y-79637888D01*
X93967595Y-79684688D01*
X94062599Y-79713507D01*
X94136646Y-79720800D01*
X94136648Y-79720800D01*
X94161399Y-79723238D01*
X94186150Y-79720800D01*
X97365577Y-79720800D01*
X97387437Y-79742660D01*
X97498320Y-79816750D01*
X97621526Y-79867784D01*
X97752321Y-79893800D01*
X97885679Y-79893800D01*
X98016474Y-79867784D01*
X98139680Y-79816750D01*
X98250563Y-79742660D01*
X98344860Y-79648363D01*
X98418950Y-79537480D01*
X98469984Y-79414274D01*
X98483401Y-79346822D01*
X98483401Y-82725776D01*
X98461540Y-82747637D01*
X98387450Y-82858520D01*
X98336416Y-82981726D01*
X98310400Y-83112521D01*
X98310400Y-83245879D01*
X98336416Y-83376674D01*
X98387450Y-83499880D01*
X98461540Y-83610763D01*
X98555837Y-83705060D01*
X98666720Y-83779150D01*
X98789926Y-83830184D01*
X98920721Y-83856200D01*
X99054079Y-83856200D01*
X99184874Y-83830184D01*
X99308080Y-83779150D01*
X99418963Y-83705060D01*
X99513260Y-83610763D01*
X99587350Y-83499880D01*
X99611872Y-83440680D01*
X99641596Y-83404461D01*
X99700189Y-83294842D01*
X99712650Y-83253760D01*
X126506296Y-83253760D01*
X126506296Y-84953760D01*
X126513575Y-85027665D01*
X126535132Y-85098730D01*
X126570139Y-85164223D01*
X126617251Y-85221629D01*
X126674657Y-85268741D01*
X126740150Y-85303748D01*
X126811215Y-85325305D01*
X126885120Y-85332584D01*
X128585120Y-85332584D01*
X128659025Y-85325305D01*
X128730090Y-85303748D01*
X128795583Y-85268741D01*
X128852989Y-85221629D01*
X128900101Y-85164223D01*
X128935108Y-85098730D01*
X128956665Y-85027665D01*
X128963944Y-84953760D01*
X128963944Y-83253760D01*
X128956665Y-83179855D01*
X128935108Y-83108790D01*
X128900101Y-83043297D01*
X128852989Y-82985891D01*
X128795583Y-82938779D01*
X128730090Y-82903772D01*
X128659025Y-82882215D01*
X128585120Y-82874936D01*
X126885120Y-82874936D01*
X126811215Y-82882215D01*
X126740150Y-82903772D01*
X126674657Y-82938779D01*
X126617251Y-82985891D01*
X126570139Y-83043297D01*
X126535132Y-83108790D01*
X126513575Y-83179855D01*
X126506296Y-83253760D01*
X99712650Y-83253760D01*
X99736270Y-83175898D01*
X99745400Y-83083198D01*
X99745400Y-83083189D01*
X99748452Y-83052201D01*
X99745400Y-83021213D01*
X99745400Y-81442911D01*
X126508120Y-81442911D01*
X126508120Y-81684609D01*
X126555273Y-81921663D01*
X126647767Y-82144962D01*
X126782047Y-82345927D01*
X126952953Y-82516833D01*
X127153918Y-82651113D01*
X127377217Y-82743607D01*
X127614271Y-82790760D01*
X127855969Y-82790760D01*
X128093023Y-82743607D01*
X128316322Y-82651113D01*
X128517287Y-82516833D01*
X128688193Y-82345927D01*
X128822473Y-82144962D01*
X128914967Y-81921663D01*
X128962120Y-81684609D01*
X128962120Y-81442911D01*
X128914967Y-81205857D01*
X128822473Y-80982558D01*
X128688193Y-80781593D01*
X128606600Y-80700000D01*
X129761928Y-80700000D01*
X129774188Y-80824482D01*
X129810498Y-80944180D01*
X129869463Y-81054494D01*
X129948815Y-81151185D01*
X130045506Y-81230537D01*
X130155820Y-81289502D01*
X130275518Y-81325812D01*
X130400000Y-81338072D01*
X130614250Y-81335000D01*
X130773000Y-81176250D01*
X130773000Y-80077000D01*
X131027000Y-80077000D01*
X131027000Y-81176250D01*
X131185750Y-81335000D01*
X131400000Y-81338072D01*
X131524482Y-81325812D01*
X131644180Y-81289502D01*
X131754494Y-81230537D01*
X131851185Y-81151185D01*
X131930537Y-81054494D01*
X131989502Y-80944180D01*
X132025812Y-80824482D01*
X132038072Y-80700000D01*
X132035000Y-80235750D01*
X131876250Y-80077000D01*
X131027000Y-80077000D01*
X130773000Y-80077000D01*
X129923750Y-80077000D01*
X129765000Y-80235750D01*
X129761928Y-80700000D01*
X128606600Y-80700000D01*
X128517287Y-80610687D01*
X128316322Y-80476407D01*
X128093023Y-80383913D01*
X127855969Y-80336760D01*
X127614271Y-80336760D01*
X127377217Y-80383913D01*
X127153918Y-80476407D01*
X126952953Y-80610687D01*
X126782047Y-80781593D01*
X126647767Y-80982558D01*
X126555273Y-81205857D01*
X126508120Y-81442911D01*
X99745400Y-81442911D01*
X99745400Y-78902911D01*
X126508120Y-78902911D01*
X126508120Y-79144609D01*
X126555273Y-79381663D01*
X126647767Y-79604962D01*
X126782047Y-79805927D01*
X126952953Y-79976833D01*
X127153918Y-80111113D01*
X127377217Y-80203607D01*
X127614271Y-80250760D01*
X127855969Y-80250760D01*
X128093023Y-80203607D01*
X128316322Y-80111113D01*
X128517287Y-79976833D01*
X128688193Y-79805927D01*
X128822473Y-79604962D01*
X128914967Y-79381663D01*
X128951102Y-79200000D01*
X129761928Y-79200000D01*
X129765000Y-79664250D01*
X129923750Y-79823000D01*
X130773000Y-79823000D01*
X130773000Y-78723750D01*
X131027000Y-78723750D01*
X131027000Y-79823000D01*
X131876250Y-79823000D01*
X132035000Y-79664250D01*
X132038072Y-79200000D01*
X132025812Y-79075518D01*
X131989502Y-78955820D01*
X131930537Y-78845506D01*
X131851185Y-78748815D01*
X131754494Y-78669463D01*
X131644180Y-78610498D01*
X131524482Y-78574188D01*
X131400000Y-78561928D01*
X131185750Y-78565000D01*
X131027000Y-78723750D01*
X130773000Y-78723750D01*
X130614250Y-78565000D01*
X130400000Y-78561928D01*
X130275518Y-78574188D01*
X130155820Y-78610498D01*
X130045506Y-78669463D01*
X129948815Y-78748815D01*
X129869463Y-78845506D01*
X129810498Y-78955820D01*
X129774188Y-79075518D01*
X129761928Y-79200000D01*
X128951102Y-79200000D01*
X128962120Y-79144609D01*
X128962120Y-78902911D01*
X128914967Y-78665857D01*
X128822473Y-78442558D01*
X128688193Y-78241593D01*
X128517287Y-78070687D01*
X128316322Y-77936407D01*
X128093023Y-77843913D01*
X127855969Y-77796760D01*
X127614271Y-77796760D01*
X127377217Y-77843913D01*
X127153918Y-77936407D01*
X126952953Y-78070687D01*
X126782047Y-78241593D01*
X126647767Y-78442558D01*
X126555273Y-78665857D01*
X126508120Y-78902911D01*
X99745400Y-78902911D01*
X99745400Y-73788568D01*
X107808569Y-65725400D01*
X109899020Y-65725400D01*
X109930010Y-65728452D01*
X109961000Y-65725400D01*
X109961008Y-65725400D01*
X110053708Y-65716270D01*
X110172652Y-65680189D01*
X110282271Y-65621596D01*
X110378353Y-65542743D01*
X110398115Y-65518663D01*
X111044302Y-64872477D01*
X111103395Y-64800472D01*
X111161988Y-64690853D01*
X111198068Y-64571909D01*
X111210251Y-64448212D01*
X111207382Y-64419083D01*
X111291666Y-64334799D01*
X111294411Y-64334799D01*
X111325401Y-64337851D01*
X111356391Y-64334799D01*
X111356399Y-64334799D01*
X111449099Y-64325669D01*
X111568043Y-64289588D01*
X111677662Y-64230995D01*
X111773744Y-64152142D01*
X111793506Y-64128062D01*
X111839011Y-64082557D01*
X111863091Y-64062795D01*
X111925032Y-63987319D01*
X111973799Y-63947297D01*
X112052652Y-63851215D01*
X112111245Y-63741596D01*
X112147326Y-63622652D01*
X112156456Y-63529952D01*
X112156456Y-62044005D01*
X112220640Y-62140063D01*
X112314937Y-62234360D01*
X112425820Y-62308450D01*
X112549026Y-62359484D01*
X112679821Y-62385500D01*
X112813179Y-62385500D01*
X112943974Y-62359484D01*
X113067180Y-62308450D01*
X113178063Y-62234360D01*
X113272360Y-62140063D01*
X113346450Y-62029180D01*
X113397484Y-61905974D01*
X113423500Y-61775179D01*
X113423500Y-61641821D01*
X113409288Y-61570370D01*
X113426551Y-61627277D01*
X113429313Y-61636382D01*
X113476113Y-61723939D01*
X113539095Y-61800683D01*
X113558323Y-61816463D01*
X116411946Y-64670086D01*
X116335837Y-64720940D01*
X116241540Y-64815237D01*
X116167450Y-64926120D01*
X116116416Y-65049326D01*
X116090400Y-65180121D01*
X116090400Y-65313479D01*
X116116416Y-65444274D01*
X116167450Y-65567480D01*
X116241540Y-65678363D01*
X116263400Y-65700223D01*
X116263401Y-68584416D01*
X116260962Y-68609180D01*
X116270693Y-68707981D01*
X116293014Y-68781561D01*
X116299513Y-68802985D01*
X116346313Y-68890542D01*
X116409295Y-68967286D01*
X116428522Y-68983066D01*
X116598400Y-69152943D01*
X116598400Y-69183859D01*
X116610241Y-69243390D01*
X113741277Y-69243390D01*
X113719417Y-69221530D01*
X113608534Y-69147440D01*
X113485328Y-69096406D01*
X113354533Y-69070390D01*
X113221175Y-69070390D01*
X113090380Y-69096406D01*
X112967174Y-69147440D01*
X112856291Y-69221530D01*
X112761994Y-69315827D01*
X112687904Y-69426710D01*
X112636870Y-69549916D01*
X112610854Y-69680711D01*
X112610854Y-69814069D01*
X112636870Y-69944864D01*
X112687904Y-70068070D01*
X112761994Y-70178953D01*
X112856291Y-70273250D01*
X112967174Y-70347340D01*
X113090380Y-70398374D01*
X113221175Y-70424390D01*
X113354533Y-70424390D01*
X113485328Y-70398374D01*
X113608534Y-70347340D01*
X113719417Y-70273250D01*
X113741277Y-70251390D01*
X114705241Y-70251390D01*
X114693400Y-70310921D01*
X114693400Y-70444279D01*
X114719416Y-70575074D01*
X114770450Y-70698280D01*
X114844540Y-70809163D01*
X114899577Y-70864200D01*
X114045823Y-70864200D01*
X114023963Y-70842340D01*
X113913080Y-70768250D01*
X113789874Y-70717216D01*
X113659079Y-70691200D01*
X113525721Y-70691200D01*
X113394926Y-70717216D01*
X113271720Y-70768250D01*
X113160837Y-70842340D01*
X113066540Y-70936637D01*
X112992450Y-71047520D01*
X112941416Y-71170726D01*
X112915400Y-71301521D01*
X112915400Y-71434879D01*
X112941416Y-71565674D01*
X112992450Y-71688880D01*
X113066540Y-71799763D01*
X113160837Y-71894060D01*
X113271720Y-71968150D01*
X113394926Y-72019184D01*
X113525721Y-72045200D01*
X113659079Y-72045200D01*
X113789874Y-72019184D01*
X113913080Y-71968150D01*
X114023963Y-71894060D01*
X114045823Y-71872200D01*
X116304637Y-71872200D01*
X120406714Y-75974278D01*
X120422494Y-75993506D01*
X120499238Y-76056488D01*
X120586795Y-76103288D01*
X120625342Y-76114981D01*
X120681798Y-76132107D01*
X120780599Y-76141838D01*
X120805353Y-76139400D01*
X121698777Y-76139400D01*
X121720637Y-76161260D01*
X121831520Y-76235350D01*
X121954726Y-76286384D01*
X122085521Y-76312400D01*
X122218879Y-76312400D01*
X122349674Y-76286384D01*
X122472880Y-76235350D01*
X122583763Y-76161260D01*
X122678060Y-76066963D01*
X122730767Y-75988082D01*
X122796720Y-76032150D01*
X122919926Y-76083184D01*
X123050721Y-76109200D01*
X123184079Y-76109200D01*
X123314874Y-76083184D01*
X123438080Y-76032150D01*
X123548963Y-75958060D01*
X123570823Y-75936200D01*
X125556446Y-75936200D01*
X125581200Y-75938638D01*
X125680001Y-75928907D01*
X125694588Y-75924482D01*
X125775005Y-75900088D01*
X125862562Y-75853288D01*
X125939306Y-75790306D01*
X125955090Y-75771073D01*
X126505963Y-75220200D01*
X126536879Y-75220200D01*
X126667674Y-75194184D01*
X126790880Y-75143150D01*
X126901763Y-75069060D01*
X126996060Y-74974763D01*
X127070150Y-74863880D01*
X127121184Y-74740674D01*
X127147200Y-74609879D01*
X127147200Y-74476521D01*
X127121184Y-74345726D01*
X127070150Y-74222520D01*
X126996060Y-74111637D01*
X126901763Y-74017340D01*
X126790880Y-73943250D01*
X126667674Y-73892216D01*
X126536879Y-73866200D01*
X126403521Y-73866200D01*
X126272726Y-73892216D01*
X126149520Y-73943250D01*
X126038637Y-74017340D01*
X125944340Y-74111637D01*
X125870250Y-74222520D01*
X125819216Y-74345726D01*
X125793200Y-74476521D01*
X125793200Y-74507437D01*
X125372437Y-74928200D01*
X123570823Y-74928200D01*
X123548963Y-74906340D01*
X123438080Y-74832250D01*
X123314874Y-74781216D01*
X123184079Y-74755200D01*
X123050721Y-74755200D01*
X122919926Y-74781216D01*
X122796720Y-74832250D01*
X122685837Y-74906340D01*
X122591540Y-75000637D01*
X122538833Y-75079518D01*
X122472880Y-75035450D01*
X122349674Y-74984416D01*
X122218879Y-74958400D01*
X122085521Y-74958400D01*
X121954726Y-74984416D01*
X121831520Y-75035450D01*
X121720637Y-75109540D01*
X121698777Y-75131400D01*
X120989364Y-75131400D01*
X116887290Y-71029327D01*
X116871506Y-71010094D01*
X116794762Y-70947112D01*
X116707205Y-70900312D01*
X116645519Y-70881600D01*
X119936837Y-70881600D01*
X122288000Y-73232763D01*
X122288000Y-73263679D01*
X122314016Y-73394474D01*
X122365050Y-73517680D01*
X122439140Y-73628563D01*
X122533437Y-73722860D01*
X122644320Y-73796950D01*
X122767526Y-73847984D01*
X122898321Y-73874000D01*
X123031679Y-73874000D01*
X123162474Y-73847984D01*
X123285680Y-73796950D01*
X123396563Y-73722860D01*
X123490860Y-73628563D01*
X123564950Y-73517680D01*
X123615984Y-73394474D01*
X123642000Y-73263679D01*
X123642000Y-73130321D01*
X123615984Y-72999526D01*
X123564950Y-72876320D01*
X123490860Y-72765437D01*
X123396563Y-72671140D01*
X123285680Y-72597050D01*
X123162474Y-72546016D01*
X123031679Y-72520000D01*
X123000763Y-72520000D01*
X122788589Y-72307826D01*
X122872921Y-72324600D01*
X123006279Y-72324600D01*
X123137074Y-72298584D01*
X123260280Y-72247550D01*
X123371163Y-72173460D01*
X123465460Y-72079163D01*
X123539550Y-71968280D01*
X123590584Y-71845074D01*
X123616600Y-71714279D01*
X123616600Y-71580921D01*
X123590584Y-71450126D01*
X123539550Y-71326920D01*
X123465460Y-71216037D01*
X123371163Y-71121740D01*
X123260280Y-71047650D01*
X123137074Y-70996616D01*
X123006279Y-70970600D01*
X122975363Y-70970600D01*
X121413280Y-69408517D01*
X121397496Y-69389284D01*
X121320752Y-69326302D01*
X121233195Y-69279502D01*
X121138191Y-69250683D01*
X121064144Y-69243390D01*
X121039390Y-69240952D01*
X121014636Y-69243390D01*
X117940559Y-69243390D01*
X117952400Y-69183859D01*
X117952400Y-69050501D01*
X117926384Y-68919706D01*
X117875350Y-68796500D01*
X117801260Y-68685617D01*
X117706963Y-68591320D01*
X117596080Y-68517230D01*
X117472874Y-68466196D01*
X117342079Y-68440180D01*
X117311163Y-68440180D01*
X117271400Y-68400417D01*
X117271400Y-65700223D01*
X117293260Y-65678363D01*
X117344114Y-65602254D01*
X119051633Y-67309773D01*
X119051633Y-67340689D01*
X119077649Y-67471484D01*
X119128683Y-67594690D01*
X119202773Y-67705573D01*
X119297070Y-67799870D01*
X119407953Y-67873960D01*
X119531159Y-67924994D01*
X119661954Y-67951010D01*
X119795312Y-67951010D01*
X119926107Y-67924994D01*
X120049313Y-67873960D01*
X120160196Y-67799870D01*
X120254493Y-67705573D01*
X120328583Y-67594690D01*
X120379617Y-67471484D01*
X120405633Y-67340689D01*
X120405633Y-67207331D01*
X120379617Y-67076536D01*
X120328583Y-66953330D01*
X120254493Y-66842447D01*
X120160196Y-66748150D01*
X120049313Y-66674060D01*
X119926107Y-66623026D01*
X119795312Y-66597010D01*
X119764396Y-66597010D01*
X114401200Y-61233814D01*
X114401200Y-60627116D01*
X114441313Y-60702162D01*
X114504295Y-60778906D01*
X114523523Y-60794686D01*
X119798800Y-66069964D01*
X119798800Y-66100879D01*
X119824816Y-66231674D01*
X119875850Y-66354880D01*
X119949940Y-66465763D01*
X120044237Y-66560060D01*
X120155120Y-66634150D01*
X120278326Y-66685184D01*
X120409121Y-66711200D01*
X120542479Y-66711200D01*
X120673274Y-66685184D01*
X120796480Y-66634150D01*
X120907363Y-66560060D01*
X121001660Y-66465763D01*
X121075750Y-66354880D01*
X121126784Y-66231674D01*
X121152800Y-66100879D01*
X121152800Y-65967521D01*
X121126784Y-65836726D01*
X121075750Y-65713520D01*
X121001660Y-65602637D01*
X120907363Y-65508340D01*
X120796480Y-65434250D01*
X120673274Y-65383216D01*
X120542479Y-65357200D01*
X120511564Y-65357200D01*
X116544249Y-61389886D01*
X116599363Y-61353060D01*
X116693660Y-61258763D01*
X116767750Y-61147880D01*
X116818784Y-61024674D01*
X116844800Y-60893879D01*
X116844800Y-60862963D01*
X117302842Y-60404921D01*
X119748000Y-60404921D01*
X119748000Y-60538279D01*
X119774016Y-60669074D01*
X119825050Y-60792280D01*
X119899140Y-60903163D01*
X119993437Y-60997460D01*
X120104320Y-61071550D01*
X120227526Y-61122584D01*
X120358321Y-61148600D01*
X120389237Y-61148600D01*
X121956110Y-62715473D01*
X121971894Y-62734706D01*
X122048638Y-62797688D01*
X122136195Y-62844488D01*
X122202379Y-62864565D01*
X122231198Y-62873307D01*
X122330000Y-62883038D01*
X122354754Y-62880600D01*
X122790977Y-62880600D01*
X122812837Y-62902460D01*
X122923720Y-62976550D01*
X123046926Y-63027584D01*
X123177721Y-63053600D01*
X123311079Y-63053600D01*
X123441874Y-63027584D01*
X123565080Y-62976550D01*
X123675963Y-62902460D01*
X123770260Y-62808163D01*
X123844350Y-62697280D01*
X123895384Y-62574074D01*
X123906079Y-62520305D01*
X124256086Y-62520305D01*
X124268346Y-62644787D01*
X124304655Y-62764485D01*
X124363620Y-62874799D01*
X124442972Y-62971490D01*
X124773419Y-63297592D01*
X124997925Y-63297592D01*
X125598436Y-62697082D01*
X124821149Y-61919795D01*
X124596642Y-61919795D01*
X124442972Y-62069120D01*
X124363620Y-62165811D01*
X124304655Y-62276126D01*
X124268346Y-62395824D01*
X124256086Y-62520305D01*
X123906079Y-62520305D01*
X123921400Y-62443279D01*
X123921400Y-62309921D01*
X123895384Y-62179126D01*
X123844350Y-62055920D01*
X123770260Y-61945037D01*
X123675963Y-61850740D01*
X123565080Y-61776650D01*
X123441874Y-61725616D01*
X123311079Y-61699600D01*
X123177721Y-61699600D01*
X123046926Y-61725616D01*
X122923720Y-61776650D01*
X122812837Y-61850740D01*
X122790977Y-61872600D01*
X122538763Y-61872600D01*
X122181846Y-61515683D01*
X125000754Y-61515683D01*
X125000754Y-61740190D01*
X125778041Y-62517477D01*
X126378551Y-61916966D01*
X126378551Y-61692460D01*
X126052449Y-61362013D01*
X125955758Y-61282661D01*
X125845444Y-61223696D01*
X125725746Y-61187387D01*
X125601264Y-61175127D01*
X125476783Y-61187387D01*
X125357085Y-61223696D01*
X125246770Y-61282661D01*
X125150079Y-61362013D01*
X125000754Y-61515683D01*
X122181846Y-61515683D01*
X121102000Y-60435837D01*
X121102000Y-60404921D01*
X121075984Y-60274126D01*
X121024950Y-60150920D01*
X120950860Y-60040037D01*
X120856563Y-59945740D01*
X120745680Y-59871650D01*
X120622474Y-59820616D01*
X120491679Y-59794600D01*
X120358321Y-59794600D01*
X120227526Y-59820616D01*
X120104320Y-59871650D01*
X119993437Y-59945740D01*
X119899140Y-60040037D01*
X119825050Y-60150920D01*
X119774016Y-60274126D01*
X119748000Y-60404921D01*
X117302842Y-60404921D01*
X117538078Y-60169686D01*
X117557306Y-60153906D01*
X117620288Y-60077162D01*
X117667088Y-59989605D01*
X117691974Y-59907566D01*
X117695907Y-59894602D01*
X117705638Y-59795800D01*
X117703200Y-59771046D01*
X117703200Y-54727423D01*
X117725060Y-54705563D01*
X117799150Y-54594680D01*
X117850184Y-54471474D01*
X117876200Y-54340679D01*
X117876200Y-54207321D01*
X117850184Y-54076526D01*
X117799150Y-53953320D01*
X117725060Y-53842437D01*
X117630763Y-53748140D01*
X117519880Y-53674050D01*
X117396674Y-53623016D01*
X117265879Y-53597000D01*
X117132521Y-53597000D01*
X117001726Y-53623016D01*
X116878520Y-53674050D01*
X116767637Y-53748140D01*
X116673340Y-53842437D01*
X116599250Y-53953320D01*
X116548216Y-54076526D01*
X116522200Y-54207321D01*
X116522200Y-54340679D01*
X116548216Y-54471474D01*
X116599250Y-54594680D01*
X116673340Y-54705563D01*
X116695200Y-54727423D01*
X116695201Y-59587035D01*
X116132037Y-60150200D01*
X116101121Y-60150200D01*
X115970326Y-60176216D01*
X115847120Y-60227250D01*
X115736237Y-60301340D01*
X115641940Y-60395637D01*
X115605114Y-60450751D01*
X115366400Y-60212037D01*
X115366400Y-60163023D01*
X115388260Y-60141163D01*
X115462350Y-60030280D01*
X115513384Y-59907074D01*
X115539400Y-59776279D01*
X115539400Y-59642921D01*
X115513384Y-59512126D01*
X115462350Y-59388920D01*
X115388260Y-59278037D01*
X115293963Y-59183740D01*
X115183080Y-59109650D01*
X115059874Y-59058616D01*
X114929079Y-59032600D01*
X114795721Y-59032600D01*
X114664926Y-59058616D01*
X114541720Y-59109650D01*
X114430837Y-59183740D01*
X114405200Y-59209377D01*
X114328763Y-59132940D01*
X114217880Y-59058850D01*
X114094674Y-59007816D01*
X113963879Y-58981800D01*
X113830521Y-58981800D01*
X113699726Y-59007816D01*
X113576520Y-59058850D01*
X113465637Y-59132940D01*
X113371340Y-59227237D01*
X113297250Y-59338120D01*
X113246216Y-59461326D01*
X113220200Y-59592121D01*
X113220200Y-59725479D01*
X113246216Y-59856274D01*
X113297250Y-59979480D01*
X113371340Y-60090363D01*
X113393200Y-60112223D01*
X113393201Y-61417814D01*
X113390762Y-61442577D01*
X113397523Y-61511221D01*
X113397484Y-61511026D01*
X113346450Y-61387820D01*
X113272360Y-61276937D01*
X113178063Y-61182640D01*
X113067180Y-61108550D01*
X113018935Y-61088566D01*
X111993562Y-60063194D01*
X111993559Y-60063190D01*
X111993557Y-60063188D01*
X111973799Y-60039113D01*
X111949725Y-60019356D01*
X111683400Y-59753032D01*
X111683400Y-57863608D01*
X111686452Y-57832620D01*
X111683400Y-57801632D01*
X111683400Y-57801623D01*
X111674270Y-57708923D01*
X111638189Y-57589979D01*
X111579596Y-57480360D01*
X111547918Y-57441760D01*
X111520503Y-57408355D01*
X111520501Y-57408353D01*
X111500743Y-57384278D01*
X111476669Y-57364521D01*
X110003473Y-55891326D01*
X109983711Y-55867246D01*
X109887629Y-55788393D01*
X109778010Y-55729800D01*
X109659066Y-55693719D01*
X109566366Y-55684589D01*
X109566358Y-55684589D01*
X109535368Y-55681537D01*
X109504378Y-55684589D01*
X108839444Y-55684589D01*
X108808454Y-55681537D01*
X108777463Y-55684589D01*
X108777456Y-55684589D01*
X108684756Y-55693719D01*
X108565812Y-55729800D01*
X108456193Y-55788393D01*
X108430577Y-55809416D01*
X108360111Y-55867246D01*
X108340353Y-55891321D01*
X108255881Y-55975793D01*
X103349361Y-55963884D01*
X103375536Y-55937709D01*
X103460569Y-55810448D01*
X103519141Y-55669043D01*
X103549000Y-55518928D01*
X103549000Y-55378163D01*
X104047051Y-54880113D01*
X104089537Y-54914981D01*
X104155030Y-54949988D01*
X104226095Y-54971545D01*
X104300000Y-54978824D01*
X105800000Y-54978824D01*
X105873905Y-54971545D01*
X105944970Y-54949988D01*
X106010463Y-54914981D01*
X106067869Y-54867869D01*
X106114981Y-54810463D01*
X106149988Y-54744970D01*
X106171545Y-54673905D01*
X106178824Y-54600000D01*
X108561928Y-54600000D01*
X108574188Y-54724482D01*
X108610498Y-54844180D01*
X108669463Y-54954494D01*
X108748815Y-55051185D01*
X108845506Y-55130537D01*
X108955820Y-55189502D01*
X109075518Y-55225812D01*
X109200000Y-55238072D01*
X109664250Y-55235000D01*
X109823000Y-55076250D01*
X109823000Y-54227000D01*
X110077000Y-54227000D01*
X110077000Y-55076250D01*
X110235750Y-55235000D01*
X110700000Y-55238072D01*
X110824482Y-55225812D01*
X110944180Y-55189502D01*
X111054494Y-55130537D01*
X111151185Y-55051185D01*
X111230537Y-54954494D01*
X111289502Y-54844180D01*
X111325812Y-54724482D01*
X111338072Y-54600000D01*
X111335000Y-54385750D01*
X111176250Y-54227000D01*
X110077000Y-54227000D01*
X109823000Y-54227000D01*
X108723750Y-54227000D01*
X108565000Y-54385750D01*
X108561928Y-54600000D01*
X106178824Y-54600000D01*
X106178824Y-53600000D01*
X106171545Y-53526095D01*
X106149988Y-53455030D01*
X106114981Y-53389537D01*
X106067869Y-53332131D01*
X106010463Y-53285019D01*
X105944970Y-53250012D01*
X105873905Y-53228455D01*
X105800000Y-53221176D01*
X104300000Y-53221176D01*
X104226095Y-53228455D01*
X104155030Y-53250012D01*
X104089537Y-53285019D01*
X104032131Y-53332131D01*
X103985019Y-53389537D01*
X103950012Y-53455030D01*
X103928455Y-53526095D01*
X103921176Y-53600000D01*
X103921176Y-53631936D01*
X103920595Y-53632112D01*
X103833038Y-53678912D01*
X103756294Y-53741894D01*
X103740514Y-53761122D01*
X102836237Y-54665400D01*
X102695472Y-54665400D01*
X102545357Y-54695259D01*
X102403952Y-54753831D01*
X102276691Y-54838864D01*
X102168464Y-54947091D01*
X102083431Y-55074352D01*
X102024859Y-55215757D01*
X101995000Y-55365872D01*
X101995000Y-55518928D01*
X102024859Y-55669043D01*
X102054406Y-55740376D01*
X101294800Y-55740376D01*
X101294800Y-52159732D01*
X101302263Y-52173694D01*
X101381615Y-52270385D01*
X101478306Y-52349737D01*
X101588620Y-52408702D01*
X101708318Y-52445012D01*
X101832800Y-52457272D01*
X102297050Y-52454200D01*
X102455800Y-52295450D01*
X102455800Y-50946200D01*
X102435800Y-50946200D01*
X102435800Y-50692200D01*
X102455800Y-50692200D01*
X102455800Y-50672200D01*
X102709800Y-50672200D01*
X102709800Y-50692200D01*
G37*
%TD.AperFunction*%
D27*
X89271589Y-56867426D02*
X89224477Y-56924832D01*
X89189470Y-56990325D01*
X89167913Y-57061390D01*
X89160634Y-57135295D01*
X89167913Y-57209200D01*
X89189470Y-57280265D01*
X89224477Y-57345758D01*
X89271589Y-57403164D01*
X89978695Y-58110270D01*
X90036101Y-58157382D01*
X90101594Y-58192389D01*
X90172659Y-58213946D01*
X90246564Y-58221225D01*
X90320469Y-58213946D01*
X90391534Y-58192389D01*
X90457027Y-58157382D01*
X90514433Y-58110270D01*
X90808632Y-57816071D01*
X92497115Y-57816071D01*
X92411674Y-57886190D01*
X92085572Y-58216637D01*
X92085572Y-58441143D01*
X92686082Y-59041654D01*
X93463369Y-58264367D01*
X93463369Y-58039860D01*
X93314044Y-57886190D01*
X93228603Y-57816071D01*
X96772546Y-57816071D01*
X98827148Y-59870673D01*
X98842932Y-59889906D01*
X98919676Y-59952888D01*
X99007233Y-59999688D01*
X99073417Y-60019765D01*
X99102236Y-60028507D01*
X99201038Y-60038238D01*
X99225792Y-60035800D01*
X100729355Y-60035800D01*
X100828891Y-60135336D01*
X100956152Y-60220369D01*
X101097557Y-60278941D01*
X101247672Y-60308800D01*
X101400728Y-60308800D01*
X101550843Y-60278941D01*
X101692248Y-60220369D01*
X101819509Y-60135336D01*
X101927736Y-60027109D01*
X102012769Y-59899848D01*
X102071341Y-59758443D01*
X102101200Y-59608328D01*
X102101200Y-59455272D01*
X102071341Y-59305157D01*
X102012769Y-59163752D01*
X101927736Y-59036491D01*
X101819509Y-58928264D01*
X101692248Y-58843231D01*
X101550843Y-58784659D01*
X101400728Y-58754800D01*
X101247672Y-58754800D01*
X101097557Y-58784659D01*
X100956152Y-58843231D01*
X100828891Y-58928264D01*
X100729355Y-59027800D01*
X99409801Y-59027800D01*
X98880025Y-58498024D01*
X100059016Y-58498024D01*
X100074002Y-58499500D01*
X102823727Y-58499500D01*
X102661733Y-58782990D01*
X102651559Y-58805713D01*
X102646014Y-58829984D01*
X102645001Y-58846454D01*
X102651351Y-60624454D01*
X102653880Y-60649221D01*
X102661192Y-60673020D01*
X102673006Y-60694934D01*
X102688869Y-60714123D01*
X102708170Y-60729848D01*
X102730169Y-60741506D01*
X102754019Y-60748647D01*
X102776072Y-60750980D01*
X103669800Y-60767011D01*
X103669800Y-61635171D01*
X103648520Y-61528194D01*
X103600502Y-61412267D01*
X103530790Y-61307936D01*
X103442064Y-61219210D01*
X103337733Y-61149498D01*
X103221806Y-61101480D01*
X103098739Y-61077000D01*
X102973261Y-61077000D01*
X102850194Y-61101480D01*
X102734267Y-61149498D01*
X102629936Y-61219210D01*
X102541210Y-61307936D01*
X102471498Y-61412267D01*
X102423480Y-61528194D01*
X102399000Y-61651261D01*
X102399000Y-61776739D01*
X102423480Y-61899806D01*
X102471498Y-62015733D01*
X102541210Y-62120064D01*
X102629936Y-62208790D01*
X102734267Y-62278502D01*
X102850194Y-62326520D01*
X102973261Y-62351000D01*
X103098739Y-62351000D01*
X103221806Y-62326520D01*
X103337733Y-62278502D01*
X103442064Y-62208790D01*
X103530790Y-62120064D01*
X103600502Y-62015733D01*
X103648520Y-61899806D01*
X103669799Y-61792829D01*
X103669799Y-62948884D01*
X103654276Y-62950413D01*
X103479536Y-63003420D01*
X103318495Y-63089499D01*
X103177341Y-63205341D01*
X103061499Y-63346495D01*
X102975420Y-63507536D01*
X102922413Y-63682276D01*
X102904515Y-63864000D01*
X102922413Y-64045724D01*
X102975420Y-64220464D01*
X103061499Y-64381505D01*
X103177341Y-64522659D01*
X103318495Y-64638501D01*
X103479536Y-64724580D01*
X103654276Y-64777587D01*
X103790462Y-64791000D01*
X104981538Y-64791000D01*
X105117724Y-64777587D01*
X105292464Y-64724580D01*
X105312210Y-64714025D01*
X105312210Y-65123421D01*
X99222824Y-71212808D01*
X99222824Y-71126000D01*
X99215545Y-71052095D01*
X99193988Y-70981030D01*
X99158981Y-70915537D01*
X99111869Y-70858131D01*
X99054463Y-70811019D01*
X98988970Y-70776012D01*
X98917905Y-70754455D01*
X98844000Y-70747176D01*
X97144000Y-70747176D01*
X97070095Y-70754455D01*
X96999030Y-70776012D01*
X96933537Y-70811019D01*
X96876131Y-70858131D01*
X96829019Y-70915537D01*
X96794012Y-70981030D01*
X96772455Y-71052095D01*
X96765176Y-71126000D01*
X96765176Y-71289380D01*
X96649178Y-71094645D01*
X96454269Y-70878412D01*
X96220920Y-70704359D01*
X95958099Y-70579175D01*
X95810890Y-70534524D01*
X95581000Y-70655845D01*
X95581000Y-71849000D01*
X95601000Y-71849000D01*
X95601000Y-72103000D01*
X95581000Y-72103000D01*
X95581000Y-73296155D01*
X95810890Y-73417476D01*
X95958099Y-73372825D01*
X96220920Y-73247641D01*
X96454269Y-73073588D01*
X96649178Y-72857355D01*
X96765176Y-72662620D01*
X96765176Y-72826000D01*
X96772455Y-72899905D01*
X96794012Y-72970970D01*
X96829019Y-73036463D01*
X96876131Y-73093869D01*
X96933537Y-73140981D01*
X96999030Y-73175988D01*
X97070095Y-73197545D01*
X97144000Y-73204824D01*
X98571231Y-73204824D01*
X98528611Y-73284559D01*
X98492530Y-73403503D01*
X98483400Y-73496203D01*
X98483400Y-73496210D01*
X98480348Y-73527200D01*
X98483400Y-73558190D01*
X98483401Y-79086778D01*
X98469984Y-79019326D01*
X98418950Y-78896120D01*
X98344860Y-78785237D01*
X98250563Y-78690940D01*
X98139680Y-78616850D01*
X98016474Y-78565816D01*
X97885679Y-78539800D01*
X97752321Y-78539800D01*
X97621526Y-78565816D01*
X97498320Y-78616850D01*
X97387437Y-78690940D01*
X97365577Y-78712800D01*
X94370164Y-78712800D01*
X90878000Y-75220637D01*
X90878000Y-73204824D01*
X91224000Y-73204824D01*
X91297905Y-73197545D01*
X91368970Y-73175988D01*
X91434463Y-73140981D01*
X91491869Y-73093869D01*
X91538981Y-73036463D01*
X91556120Y-73004397D01*
X92065208Y-73004397D01*
X92142843Y-73253472D01*
X92406883Y-73379371D01*
X92690411Y-73451339D01*
X92982531Y-73466611D01*
X93272019Y-73424599D01*
X93547747Y-73326919D01*
X93685157Y-73253472D01*
X93762792Y-73004397D01*
X92914000Y-72155605D01*
X92065208Y-73004397D01*
X91556120Y-73004397D01*
X91573988Y-72970970D01*
X91595545Y-72899905D01*
X91602824Y-72826000D01*
X91602824Y-72684101D01*
X91636528Y-72747157D01*
X91885603Y-72824792D01*
X92734395Y-71976000D01*
X93093605Y-71976000D01*
X93942397Y-72824792D01*
X94191472Y-72747157D01*
X94192231Y-72745564D01*
X94258822Y-72857355D01*
X94453731Y-73073588D01*
X94687080Y-73247641D01*
X94949901Y-73372825D01*
X95097110Y-73417476D01*
X95327000Y-73296155D01*
X95327000Y-72103000D01*
X95307000Y-72103000D01*
X95307000Y-71849000D01*
X95327000Y-71849000D01*
X95327000Y-70655845D01*
X95097110Y-70534524D01*
X94949901Y-70579175D01*
X94687080Y-70704359D01*
X94453731Y-70878412D01*
X94258822Y-71094645D01*
X94192280Y-71206355D01*
X94191472Y-71204843D01*
X93942397Y-71127208D01*
X93093605Y-71976000D01*
X92734395Y-71976000D01*
X91885603Y-71127208D01*
X91636528Y-71204843D01*
X91602824Y-71275528D01*
X91602824Y-71126000D01*
X91595545Y-71052095D01*
X91573988Y-70981030D01*
X91556121Y-70947603D01*
X92065208Y-70947603D01*
X92914000Y-71796395D01*
X93762792Y-70947603D01*
X93685157Y-70698528D01*
X93421117Y-70572629D01*
X93137589Y-70500661D01*
X92845469Y-70485389D01*
X92555981Y-70527401D01*
X92280253Y-70625081D01*
X92142843Y-70698528D01*
X92065208Y-70947603D01*
X91556121Y-70947603D01*
X91538981Y-70915537D01*
X91491869Y-70858131D01*
X91434463Y-70811019D01*
X91368970Y-70776012D01*
X91297905Y-70754455D01*
X91224000Y-70747176D01*
X89524000Y-70747176D01*
X89450095Y-70754455D01*
X89379030Y-70776012D01*
X89313537Y-70811019D01*
X89256131Y-70858131D01*
X89209019Y-70915537D01*
X89174012Y-70981030D01*
X89152455Y-71052095D01*
X89145176Y-71126000D01*
X89145176Y-71289380D01*
X89029178Y-71094645D01*
X88834269Y-70878412D01*
X88600920Y-70704359D01*
X88338099Y-70579175D01*
X88287220Y-70563743D01*
X90258478Y-68592486D01*
X90277706Y-68576706D01*
X90340688Y-68499962D01*
X90387488Y-68412405D01*
X90413147Y-68327818D01*
X90416307Y-68317402D01*
X90426038Y-68218600D01*
X90423600Y-68193846D01*
X90423600Y-67135921D01*
X92163600Y-67135921D01*
X92163600Y-67269279D01*
X92189616Y-67400074D01*
X92240650Y-67523280D01*
X92314740Y-67634163D01*
X92409037Y-67728460D01*
X92519920Y-67802550D01*
X92643126Y-67853584D01*
X92773921Y-67879600D01*
X92907279Y-67879600D01*
X93038074Y-67853584D01*
X93161280Y-67802550D01*
X93272163Y-67728460D01*
X93366460Y-67634163D01*
X93440550Y-67523280D01*
X93491584Y-67400074D01*
X93517600Y-67269279D01*
X93517600Y-67148561D01*
X93556461Y-67109700D01*
X96946477Y-67109700D01*
X97031837Y-67195060D01*
X97142720Y-67269150D01*
X97265926Y-67320184D01*
X97396721Y-67346200D01*
X97530079Y-67346200D01*
X97660874Y-67320184D01*
X97784080Y-67269150D01*
X97894963Y-67195060D01*
X97989260Y-67100763D01*
X98063350Y-66989880D01*
X98114384Y-66866674D01*
X98140400Y-66735879D01*
X98140400Y-66602521D01*
X98114384Y-66471726D01*
X98063350Y-66348520D01*
X97989260Y-66237637D01*
X97894963Y-66143340D01*
X97784080Y-66069250D01*
X97660874Y-66018216D01*
X97530079Y-65992200D01*
X97396721Y-65992200D01*
X97265926Y-66018216D01*
X97142720Y-66069250D01*
X97031837Y-66143340D01*
X96946477Y-66228700D01*
X93395629Y-66228700D01*
X93374000Y-66226570D01*
X93352371Y-66228700D01*
X93352364Y-66228700D01*
X93287647Y-66235074D01*
X93204612Y-66260262D01*
X93128087Y-66301166D01*
X93061013Y-66356213D01*
X93047222Y-66373017D01*
X92894639Y-66525600D01*
X92773921Y-66525600D01*
X92643126Y-66551616D01*
X92519920Y-66602650D01*
X92409037Y-66676740D01*
X92314740Y-66771037D01*
X92240650Y-66881920D01*
X92189616Y-67005126D01*
X92163600Y-67135921D01*
X90423600Y-67135921D01*
X90423600Y-63409173D01*
X90426038Y-63384422D01*
X90422302Y-63346495D01*
X90416307Y-63285622D01*
X90387488Y-63190618D01*
X90340688Y-63103061D01*
X90277706Y-63026317D01*
X90258478Y-63010537D01*
X90199063Y-62951122D01*
X90373011Y-62777174D01*
X90420123Y-62719768D01*
X90455130Y-62654275D01*
X90476687Y-62583210D01*
X90483966Y-62509305D01*
X90476687Y-62435400D01*
X90455130Y-62364335D01*
X90420123Y-62298842D01*
X90373011Y-62241436D01*
X89665905Y-61534330D01*
X89608499Y-61487218D01*
X89543006Y-61452211D01*
X89471941Y-61430654D01*
X89398036Y-61423375D01*
X89324131Y-61430654D01*
X89253066Y-61452211D01*
X89187573Y-61487218D01*
X89130167Y-61534330D01*
X88069507Y-62594990D01*
X88022395Y-62652396D01*
X87987388Y-62717889D01*
X87965831Y-62788954D01*
X87958552Y-62862859D01*
X87965831Y-62936764D01*
X87987388Y-63007829D01*
X88022395Y-63073322D01*
X88069507Y-63130728D01*
X88776613Y-63837834D01*
X88834019Y-63884946D01*
X88899512Y-63919953D01*
X88970577Y-63941510D01*
X89044482Y-63948789D01*
X89118387Y-63941510D01*
X89189452Y-63919953D01*
X89254945Y-63884946D01*
X89312351Y-63837834D01*
X89415601Y-63734584D01*
X89415600Y-68009836D01*
X87704237Y-69721200D01*
X87124950Y-69721200D01*
X87100199Y-69718762D01*
X87075448Y-69721200D01*
X87075446Y-69721200D01*
X87001399Y-69728493D01*
X86906395Y-69757312D01*
X86818838Y-69804112D01*
X86742094Y-69867094D01*
X86726314Y-69886322D01*
X86314921Y-70297716D01*
X86295694Y-70313495D01*
X86279914Y-70332723D01*
X86232712Y-70390239D01*
X86185912Y-70477796D01*
X86157092Y-70572800D01*
X86147361Y-70671601D01*
X86149800Y-70696364D01*
X86149800Y-70747747D01*
X86144000Y-70747176D01*
X84444000Y-70747176D01*
X84370095Y-70754455D01*
X84299030Y-70776012D01*
X84233537Y-70811019D01*
X84176131Y-70858131D01*
X84129019Y-70915537D01*
X84103115Y-70964000D01*
X83275784Y-70964000D01*
X81739343Y-69427559D01*
X81739343Y-69376926D01*
X82141842Y-68974427D01*
X82180454Y-68942739D01*
X82214688Y-68901025D01*
X82306919Y-68788642D01*
X82400889Y-68612834D01*
X82407415Y-68591320D01*
X82458757Y-68422072D01*
X82473400Y-68273396D01*
X82473400Y-68273386D01*
X82478295Y-68223685D01*
X82473400Y-68173984D01*
X82473400Y-66405282D01*
X84023000Y-66405282D01*
X84023000Y-66794718D01*
X84098975Y-67176670D01*
X84248005Y-67536461D01*
X84464364Y-67860264D01*
X84739736Y-68135636D01*
X85063539Y-68351995D01*
X85423330Y-68501025D01*
X85805282Y-68577000D01*
X86194718Y-68577000D01*
X86576670Y-68501025D01*
X86936461Y-68351995D01*
X87260264Y-68135636D01*
X87535636Y-67860264D01*
X87751995Y-67536461D01*
X87901025Y-67176670D01*
X87977000Y-66794718D01*
X87977000Y-66405282D01*
X87901025Y-66023330D01*
X87751995Y-65663539D01*
X87535636Y-65339736D01*
X87260264Y-65064364D01*
X86936461Y-64848005D01*
X86576670Y-64698975D01*
X86194718Y-64623000D01*
X85805282Y-64623000D01*
X85423330Y-64698975D01*
X85063539Y-64848005D01*
X84739736Y-65064364D01*
X84464364Y-65339736D01*
X84248005Y-65663539D01*
X84098975Y-66023330D01*
X84023000Y-66405282D01*
X82473400Y-66405282D01*
X82473400Y-65284984D01*
X86323043Y-61435341D01*
X86374120Y-61435341D01*
X86513872Y-61575093D01*
X86571278Y-61622205D01*
X86636771Y-61657212D01*
X86707836Y-61678769D01*
X86781741Y-61686048D01*
X86855646Y-61678769D01*
X86926711Y-61657212D01*
X86992204Y-61622205D01*
X87049610Y-61575093D01*
X87224514Y-61400189D01*
X87347667Y-61362830D01*
X87523475Y-61268859D01*
X87677572Y-61142395D01*
X87804036Y-60988298D01*
X87898007Y-60812490D01*
X87935366Y-60689337D01*
X88110270Y-60514433D01*
X88157382Y-60457027D01*
X88192389Y-60391534D01*
X88213946Y-60320469D01*
X88221225Y-60246564D01*
X88214487Y-60178151D01*
X91908795Y-60178151D01*
X91908795Y-60402658D01*
X92058120Y-60556328D01*
X92154811Y-60635680D01*
X92265126Y-60694645D01*
X92384824Y-60730954D01*
X92509305Y-60743214D01*
X92633787Y-60730954D01*
X92753485Y-60694645D01*
X92863799Y-60635680D01*
X92960490Y-60556328D01*
X93286592Y-60225881D01*
X93286592Y-60001375D01*
X92686082Y-59400864D01*
X91908795Y-60178151D01*
X88214487Y-60178151D01*
X88213946Y-60172659D01*
X88192389Y-60101594D01*
X88157382Y-60036101D01*
X88110270Y-59978695D01*
X87970518Y-59838943D01*
X87970518Y-59398036D01*
X91164127Y-59398036D01*
X91176387Y-59522517D01*
X91212696Y-59642215D01*
X91271661Y-59752530D01*
X91351013Y-59849221D01*
X91504683Y-59998546D01*
X91729190Y-59998546D01*
X92506477Y-59221259D01*
X92865687Y-59221259D01*
X93466198Y-59821769D01*
X93690704Y-59821769D01*
X93956435Y-59559532D01*
X94234383Y-59559532D01*
X94238431Y-59633684D01*
X94256868Y-59705621D01*
X95077716Y-61960883D01*
X95109833Y-62027842D01*
X95154396Y-62087248D01*
X95209692Y-62136819D01*
X95273596Y-62174649D01*
X95343653Y-62199286D01*
X95417170Y-62209781D01*
X95491322Y-62205733D01*
X95563259Y-62187296D01*
X97818521Y-61366448D01*
X97885480Y-61334331D01*
X97944886Y-61289768D01*
X97994457Y-61234472D01*
X98032287Y-61170568D01*
X98056924Y-61100511D01*
X98067419Y-61026994D01*
X98063371Y-60952842D01*
X98044934Y-60880905D01*
X97224086Y-58625643D01*
X97191969Y-58558684D01*
X97147406Y-58499278D01*
X97092110Y-58449707D01*
X97028206Y-58411877D01*
X96958149Y-58387240D01*
X96884632Y-58376745D01*
X96810480Y-58380793D01*
X96738543Y-58399230D01*
X94483281Y-59220078D01*
X94416322Y-59252195D01*
X94356916Y-59296758D01*
X94307345Y-59352054D01*
X94269515Y-59415958D01*
X94244878Y-59486015D01*
X94234383Y-59559532D01*
X93956435Y-59559532D01*
X94021151Y-59495667D01*
X94100503Y-59398976D01*
X94159468Y-59288662D01*
X94195777Y-59168964D01*
X94208037Y-59044482D01*
X94195777Y-58920001D01*
X94159468Y-58800303D01*
X94100503Y-58689988D01*
X94021151Y-58593297D01*
X93867481Y-58443972D01*
X93642974Y-58443972D01*
X92865687Y-59221259D01*
X92506477Y-59221259D01*
X91905966Y-58620749D01*
X91681460Y-58620749D01*
X91351013Y-58946851D01*
X91271661Y-59043542D01*
X91212696Y-59153856D01*
X91176387Y-59273554D01*
X91164127Y-59398036D01*
X87970518Y-59398036D01*
X87970518Y-57578066D01*
X89424384Y-56124200D01*
X90014815Y-56124200D01*
X89271589Y-56867426D01*
%TA.AperFunction,Conductor*%
D29*
G36*
X89271589Y-56867426D02*
G01*
X89224477Y-56924832D01*
X89189470Y-56990325D01*
X89167913Y-57061390D01*
X89160634Y-57135295D01*
X89167913Y-57209200D01*
X89189470Y-57280265D01*
X89224477Y-57345758D01*
X89271589Y-57403164D01*
X89978695Y-58110270D01*
X90036101Y-58157382D01*
X90101594Y-58192389D01*
X90172659Y-58213946D01*
X90246564Y-58221225D01*
X90320469Y-58213946D01*
X90391534Y-58192389D01*
X90457027Y-58157382D01*
X90514433Y-58110270D01*
X90808632Y-57816071D01*
X92497115Y-57816071D01*
X92411674Y-57886190D01*
X92085572Y-58216637D01*
X92085572Y-58441143D01*
X92686082Y-59041654D01*
X93463369Y-58264367D01*
X93463369Y-58039860D01*
X93314044Y-57886190D01*
X93228603Y-57816071D01*
X96772546Y-57816071D01*
X98827148Y-59870673D01*
X98842932Y-59889906D01*
X98919676Y-59952888D01*
X99007233Y-59999688D01*
X99073417Y-60019765D01*
X99102236Y-60028507D01*
X99201038Y-60038238D01*
X99225792Y-60035800D01*
X100729355Y-60035800D01*
X100828891Y-60135336D01*
X100956152Y-60220369D01*
X101097557Y-60278941D01*
X101247672Y-60308800D01*
X101400728Y-60308800D01*
X101550843Y-60278941D01*
X101692248Y-60220369D01*
X101819509Y-60135336D01*
X101927736Y-60027109D01*
X102012769Y-59899848D01*
X102071341Y-59758443D01*
X102101200Y-59608328D01*
X102101200Y-59455272D01*
X102071341Y-59305157D01*
X102012769Y-59163752D01*
X101927736Y-59036491D01*
X101819509Y-58928264D01*
X101692248Y-58843231D01*
X101550843Y-58784659D01*
X101400728Y-58754800D01*
X101247672Y-58754800D01*
X101097557Y-58784659D01*
X100956152Y-58843231D01*
X100828891Y-58928264D01*
X100729355Y-59027800D01*
X99409801Y-59027800D01*
X98880025Y-58498024D01*
X100059016Y-58498024D01*
X100074002Y-58499500D01*
X102823727Y-58499500D01*
X102661733Y-58782990D01*
X102651559Y-58805713D01*
X102646014Y-58829984D01*
X102645001Y-58846454D01*
X102651351Y-60624454D01*
X102653880Y-60649221D01*
X102661192Y-60673020D01*
X102673006Y-60694934D01*
X102688869Y-60714123D01*
X102708170Y-60729848D01*
X102730169Y-60741506D01*
X102754019Y-60748647D01*
X102776072Y-60750980D01*
X103669800Y-60767011D01*
X103669800Y-61635171D01*
X103648520Y-61528194D01*
X103600502Y-61412267D01*
X103530790Y-61307936D01*
X103442064Y-61219210D01*
X103337733Y-61149498D01*
X103221806Y-61101480D01*
X103098739Y-61077000D01*
X102973261Y-61077000D01*
X102850194Y-61101480D01*
X102734267Y-61149498D01*
X102629936Y-61219210D01*
X102541210Y-61307936D01*
X102471498Y-61412267D01*
X102423480Y-61528194D01*
X102399000Y-61651261D01*
X102399000Y-61776739D01*
X102423480Y-61899806D01*
X102471498Y-62015733D01*
X102541210Y-62120064D01*
X102629936Y-62208790D01*
X102734267Y-62278502D01*
X102850194Y-62326520D01*
X102973261Y-62351000D01*
X103098739Y-62351000D01*
X103221806Y-62326520D01*
X103337733Y-62278502D01*
X103442064Y-62208790D01*
X103530790Y-62120064D01*
X103600502Y-62015733D01*
X103648520Y-61899806D01*
X103669799Y-61792829D01*
X103669799Y-62948884D01*
X103654276Y-62950413D01*
X103479536Y-63003420D01*
X103318495Y-63089499D01*
X103177341Y-63205341D01*
X103061499Y-63346495D01*
X102975420Y-63507536D01*
X102922413Y-63682276D01*
X102904515Y-63864000D01*
X102922413Y-64045724D01*
X102975420Y-64220464D01*
X103061499Y-64381505D01*
X103177341Y-64522659D01*
X103318495Y-64638501D01*
X103479536Y-64724580D01*
X103654276Y-64777587D01*
X103790462Y-64791000D01*
X104981538Y-64791000D01*
X105117724Y-64777587D01*
X105292464Y-64724580D01*
X105312210Y-64714025D01*
X105312210Y-65123421D01*
X99222824Y-71212808D01*
X99222824Y-71126000D01*
X99215545Y-71052095D01*
X99193988Y-70981030D01*
X99158981Y-70915537D01*
X99111869Y-70858131D01*
X99054463Y-70811019D01*
X98988970Y-70776012D01*
X98917905Y-70754455D01*
X98844000Y-70747176D01*
X97144000Y-70747176D01*
X97070095Y-70754455D01*
X96999030Y-70776012D01*
X96933537Y-70811019D01*
X96876131Y-70858131D01*
X96829019Y-70915537D01*
X96794012Y-70981030D01*
X96772455Y-71052095D01*
X96765176Y-71126000D01*
X96765176Y-71289380D01*
X96649178Y-71094645D01*
X96454269Y-70878412D01*
X96220920Y-70704359D01*
X95958099Y-70579175D01*
X95810890Y-70534524D01*
X95581000Y-70655845D01*
X95581000Y-71849000D01*
X95601000Y-71849000D01*
X95601000Y-72103000D01*
X95581000Y-72103000D01*
X95581000Y-73296155D01*
X95810890Y-73417476D01*
X95958099Y-73372825D01*
X96220920Y-73247641D01*
X96454269Y-73073588D01*
X96649178Y-72857355D01*
X96765176Y-72662620D01*
X96765176Y-72826000D01*
X96772455Y-72899905D01*
X96794012Y-72970970D01*
X96829019Y-73036463D01*
X96876131Y-73093869D01*
X96933537Y-73140981D01*
X96999030Y-73175988D01*
X97070095Y-73197545D01*
X97144000Y-73204824D01*
X98571231Y-73204824D01*
X98528611Y-73284559D01*
X98492530Y-73403503D01*
X98483400Y-73496203D01*
X98483400Y-73496210D01*
X98480348Y-73527200D01*
X98483400Y-73558190D01*
X98483401Y-79086778D01*
X98469984Y-79019326D01*
X98418950Y-78896120D01*
X98344860Y-78785237D01*
X98250563Y-78690940D01*
X98139680Y-78616850D01*
X98016474Y-78565816D01*
X97885679Y-78539800D01*
X97752321Y-78539800D01*
X97621526Y-78565816D01*
X97498320Y-78616850D01*
X97387437Y-78690940D01*
X97365577Y-78712800D01*
X94370164Y-78712800D01*
X90878000Y-75220637D01*
X90878000Y-73204824D01*
X91224000Y-73204824D01*
X91297905Y-73197545D01*
X91368970Y-73175988D01*
X91434463Y-73140981D01*
X91491869Y-73093869D01*
X91538981Y-73036463D01*
X91556120Y-73004397D01*
X92065208Y-73004397D01*
X92142843Y-73253472D01*
X92406883Y-73379371D01*
X92690411Y-73451339D01*
X92982531Y-73466611D01*
X93272019Y-73424599D01*
X93547747Y-73326919D01*
X93685157Y-73253472D01*
X93762792Y-73004397D01*
X92914000Y-72155605D01*
X92065208Y-73004397D01*
X91556120Y-73004397D01*
X91573988Y-72970970D01*
X91595545Y-72899905D01*
X91602824Y-72826000D01*
X91602824Y-72684101D01*
X91636528Y-72747157D01*
X91885603Y-72824792D01*
X92734395Y-71976000D01*
X93093605Y-71976000D01*
X93942397Y-72824792D01*
X94191472Y-72747157D01*
X94192231Y-72745564D01*
X94258822Y-72857355D01*
X94453731Y-73073588D01*
X94687080Y-73247641D01*
X94949901Y-73372825D01*
X95097110Y-73417476D01*
X95327000Y-73296155D01*
X95327000Y-72103000D01*
X95307000Y-72103000D01*
X95307000Y-71849000D01*
X95327000Y-71849000D01*
X95327000Y-70655845D01*
X95097110Y-70534524D01*
X94949901Y-70579175D01*
X94687080Y-70704359D01*
X94453731Y-70878412D01*
X94258822Y-71094645D01*
X94192280Y-71206355D01*
X94191472Y-71204843D01*
X93942397Y-71127208D01*
X93093605Y-71976000D01*
X92734395Y-71976000D01*
X91885603Y-71127208D01*
X91636528Y-71204843D01*
X91602824Y-71275528D01*
X91602824Y-71126000D01*
X91595545Y-71052095D01*
X91573988Y-70981030D01*
X91556121Y-70947603D01*
X92065208Y-70947603D01*
X92914000Y-71796395D01*
X93762792Y-70947603D01*
X93685157Y-70698528D01*
X93421117Y-70572629D01*
X93137589Y-70500661D01*
X92845469Y-70485389D01*
X92555981Y-70527401D01*
X92280253Y-70625081D01*
X92142843Y-70698528D01*
X92065208Y-70947603D01*
X91556121Y-70947603D01*
X91538981Y-70915537D01*
X91491869Y-70858131D01*
X91434463Y-70811019D01*
X91368970Y-70776012D01*
X91297905Y-70754455D01*
X91224000Y-70747176D01*
X89524000Y-70747176D01*
X89450095Y-70754455D01*
X89379030Y-70776012D01*
X89313537Y-70811019D01*
X89256131Y-70858131D01*
X89209019Y-70915537D01*
X89174012Y-70981030D01*
X89152455Y-71052095D01*
X89145176Y-71126000D01*
X89145176Y-71289380D01*
X89029178Y-71094645D01*
X88834269Y-70878412D01*
X88600920Y-70704359D01*
X88338099Y-70579175D01*
X88287220Y-70563743D01*
X90258478Y-68592486D01*
X90277706Y-68576706D01*
X90340688Y-68499962D01*
X90387488Y-68412405D01*
X90413147Y-68327818D01*
X90416307Y-68317402D01*
X90426038Y-68218600D01*
X90423600Y-68193846D01*
X90423600Y-67135921D01*
X92163600Y-67135921D01*
X92163600Y-67269279D01*
X92189616Y-67400074D01*
X92240650Y-67523280D01*
X92314740Y-67634163D01*
X92409037Y-67728460D01*
X92519920Y-67802550D01*
X92643126Y-67853584D01*
X92773921Y-67879600D01*
X92907279Y-67879600D01*
X93038074Y-67853584D01*
X93161280Y-67802550D01*
X93272163Y-67728460D01*
X93366460Y-67634163D01*
X93440550Y-67523280D01*
X93491584Y-67400074D01*
X93517600Y-67269279D01*
X93517600Y-67148561D01*
X93556461Y-67109700D01*
X96946477Y-67109700D01*
X97031837Y-67195060D01*
X97142720Y-67269150D01*
X97265926Y-67320184D01*
X97396721Y-67346200D01*
X97530079Y-67346200D01*
X97660874Y-67320184D01*
X97784080Y-67269150D01*
X97894963Y-67195060D01*
X97989260Y-67100763D01*
X98063350Y-66989880D01*
X98114384Y-66866674D01*
X98140400Y-66735879D01*
X98140400Y-66602521D01*
X98114384Y-66471726D01*
X98063350Y-66348520D01*
X97989260Y-66237637D01*
X97894963Y-66143340D01*
X97784080Y-66069250D01*
X97660874Y-66018216D01*
X97530079Y-65992200D01*
X97396721Y-65992200D01*
X97265926Y-66018216D01*
X97142720Y-66069250D01*
X97031837Y-66143340D01*
X96946477Y-66228700D01*
X93395629Y-66228700D01*
X93374000Y-66226570D01*
X93352371Y-66228700D01*
X93352364Y-66228700D01*
X93287647Y-66235074D01*
X93204612Y-66260262D01*
X93128087Y-66301166D01*
X93061013Y-66356213D01*
X93047222Y-66373017D01*
X92894639Y-66525600D01*
X92773921Y-66525600D01*
X92643126Y-66551616D01*
X92519920Y-66602650D01*
X92409037Y-66676740D01*
X92314740Y-66771037D01*
X92240650Y-66881920D01*
X92189616Y-67005126D01*
X92163600Y-67135921D01*
X90423600Y-67135921D01*
X90423600Y-63409173D01*
X90426038Y-63384422D01*
X90422302Y-63346495D01*
X90416307Y-63285622D01*
X90387488Y-63190618D01*
X90340688Y-63103061D01*
X90277706Y-63026317D01*
X90258478Y-63010537D01*
X90199063Y-62951122D01*
X90373011Y-62777174D01*
X90420123Y-62719768D01*
X90455130Y-62654275D01*
X90476687Y-62583210D01*
X90483966Y-62509305D01*
X90476687Y-62435400D01*
X90455130Y-62364335D01*
X90420123Y-62298842D01*
X90373011Y-62241436D01*
X89665905Y-61534330D01*
X89608499Y-61487218D01*
X89543006Y-61452211D01*
X89471941Y-61430654D01*
X89398036Y-61423375D01*
X89324131Y-61430654D01*
X89253066Y-61452211D01*
X89187573Y-61487218D01*
X89130167Y-61534330D01*
X88069507Y-62594990D01*
X88022395Y-62652396D01*
X87987388Y-62717889D01*
X87965831Y-62788954D01*
X87958552Y-62862859D01*
X87965831Y-62936764D01*
X87987388Y-63007829D01*
X88022395Y-63073322D01*
X88069507Y-63130728D01*
X88776613Y-63837834D01*
X88834019Y-63884946D01*
X88899512Y-63919953D01*
X88970577Y-63941510D01*
X89044482Y-63948789D01*
X89118387Y-63941510D01*
X89189452Y-63919953D01*
X89254945Y-63884946D01*
X89312351Y-63837834D01*
X89415601Y-63734584D01*
X89415600Y-68009836D01*
X87704237Y-69721200D01*
X87124950Y-69721200D01*
X87100199Y-69718762D01*
X87075448Y-69721200D01*
X87075446Y-69721200D01*
X87001399Y-69728493D01*
X86906395Y-69757312D01*
X86818838Y-69804112D01*
X86742094Y-69867094D01*
X86726314Y-69886322D01*
X86314921Y-70297716D01*
X86295694Y-70313495D01*
X86279914Y-70332723D01*
X86232712Y-70390239D01*
X86185912Y-70477796D01*
X86157092Y-70572800D01*
X86147361Y-70671601D01*
X86149800Y-70696364D01*
X86149800Y-70747747D01*
X86144000Y-70747176D01*
X84444000Y-70747176D01*
X84370095Y-70754455D01*
X84299030Y-70776012D01*
X84233537Y-70811019D01*
X84176131Y-70858131D01*
X84129019Y-70915537D01*
X84103115Y-70964000D01*
X83275784Y-70964000D01*
X81739343Y-69427559D01*
X81739343Y-69376926D01*
X82141842Y-68974427D01*
X82180454Y-68942739D01*
X82214688Y-68901025D01*
X82306919Y-68788642D01*
X82400889Y-68612834D01*
X82407415Y-68591320D01*
X82458757Y-68422072D01*
X82473400Y-68273396D01*
X82473400Y-68273386D01*
X82478295Y-68223685D01*
X82473400Y-68173984D01*
X82473400Y-66405282D01*
X84023000Y-66405282D01*
X84023000Y-66794718D01*
X84098975Y-67176670D01*
X84248005Y-67536461D01*
X84464364Y-67860264D01*
X84739736Y-68135636D01*
X85063539Y-68351995D01*
X85423330Y-68501025D01*
X85805282Y-68577000D01*
X86194718Y-68577000D01*
X86576670Y-68501025D01*
X86936461Y-68351995D01*
X87260264Y-68135636D01*
X87535636Y-67860264D01*
X87751995Y-67536461D01*
X87901025Y-67176670D01*
X87977000Y-66794718D01*
X87977000Y-66405282D01*
X87901025Y-66023330D01*
X87751995Y-65663539D01*
X87535636Y-65339736D01*
X87260264Y-65064364D01*
X86936461Y-64848005D01*
X86576670Y-64698975D01*
X86194718Y-64623000D01*
X85805282Y-64623000D01*
X85423330Y-64698975D01*
X85063539Y-64848005D01*
X84739736Y-65064364D01*
X84464364Y-65339736D01*
X84248005Y-65663539D01*
X84098975Y-66023330D01*
X84023000Y-66405282D01*
X82473400Y-66405282D01*
X82473400Y-65284984D01*
X86323043Y-61435341D01*
X86374120Y-61435341D01*
X86513872Y-61575093D01*
X86571278Y-61622205D01*
X86636771Y-61657212D01*
X86707836Y-61678769D01*
X86781741Y-61686048D01*
X86855646Y-61678769D01*
X86926711Y-61657212D01*
X86992204Y-61622205D01*
X87049610Y-61575093D01*
X87224514Y-61400189D01*
X87347667Y-61362830D01*
X87523475Y-61268859D01*
X87677572Y-61142395D01*
X87804036Y-60988298D01*
X87898007Y-60812490D01*
X87935366Y-60689337D01*
X88110270Y-60514433D01*
X88157382Y-60457027D01*
X88192389Y-60391534D01*
X88213946Y-60320469D01*
X88221225Y-60246564D01*
X88214487Y-60178151D01*
X91908795Y-60178151D01*
X91908795Y-60402658D01*
X92058120Y-60556328D01*
X92154811Y-60635680D01*
X92265126Y-60694645D01*
X92384824Y-60730954D01*
X92509305Y-60743214D01*
X92633787Y-60730954D01*
X92753485Y-60694645D01*
X92863799Y-60635680D01*
X92960490Y-60556328D01*
X93286592Y-60225881D01*
X93286592Y-60001375D01*
X92686082Y-59400864D01*
X91908795Y-60178151D01*
X88214487Y-60178151D01*
X88213946Y-60172659D01*
X88192389Y-60101594D01*
X88157382Y-60036101D01*
X88110270Y-59978695D01*
X87970518Y-59838943D01*
X87970518Y-59398036D01*
X91164127Y-59398036D01*
X91176387Y-59522517D01*
X91212696Y-59642215D01*
X91271661Y-59752530D01*
X91351013Y-59849221D01*
X91504683Y-59998546D01*
X91729190Y-59998546D01*
X92506477Y-59221259D01*
X92865687Y-59221259D01*
X93466198Y-59821769D01*
X93690704Y-59821769D01*
X93956435Y-59559532D01*
X94234383Y-59559532D01*
X94238431Y-59633684D01*
X94256868Y-59705621D01*
X95077716Y-61960883D01*
X95109833Y-62027842D01*
X95154396Y-62087248D01*
X95209692Y-62136819D01*
X95273596Y-62174649D01*
X95343653Y-62199286D01*
X95417170Y-62209781D01*
X95491322Y-62205733D01*
X95563259Y-62187296D01*
X97818521Y-61366448D01*
X97885480Y-61334331D01*
X97944886Y-61289768D01*
X97994457Y-61234472D01*
X98032287Y-61170568D01*
X98056924Y-61100511D01*
X98067419Y-61026994D01*
X98063371Y-60952842D01*
X98044934Y-60880905D01*
X97224086Y-58625643D01*
X97191969Y-58558684D01*
X97147406Y-58499278D01*
X97092110Y-58449707D01*
X97028206Y-58411877D01*
X96958149Y-58387240D01*
X96884632Y-58376745D01*
X96810480Y-58380793D01*
X96738543Y-58399230D01*
X94483281Y-59220078D01*
X94416322Y-59252195D01*
X94356916Y-59296758D01*
X94307345Y-59352054D01*
X94269515Y-59415958D01*
X94244878Y-59486015D01*
X94234383Y-59559532D01*
X93956435Y-59559532D01*
X94021151Y-59495667D01*
X94100503Y-59398976D01*
X94159468Y-59288662D01*
X94195777Y-59168964D01*
X94208037Y-59044482D01*
X94195777Y-58920001D01*
X94159468Y-58800303D01*
X94100503Y-58689988D01*
X94021151Y-58593297D01*
X93867481Y-58443972D01*
X93642974Y-58443972D01*
X92865687Y-59221259D01*
X92506477Y-59221259D01*
X91905966Y-58620749D01*
X91681460Y-58620749D01*
X91351013Y-58946851D01*
X91271661Y-59043542D01*
X91212696Y-59153856D01*
X91176387Y-59273554D01*
X91164127Y-59398036D01*
X87970518Y-59398036D01*
X87970518Y-57578066D01*
X89424384Y-56124200D01*
X90014815Y-56124200D01*
X89271589Y-56867426D01*
G37*
%TD.AperFunction*%
D27*
X129880460Y-73373850D02*
X130039210Y-73532600D01*
X130115547Y-73526622D01*
X130153460Y-73516259D01*
X130153460Y-73559600D01*
X129816460Y-73559600D01*
X129816460Y-73305600D01*
X129880460Y-73305600D01*
X129880460Y-73373850D01*
%TA.AperFunction,Conductor*%
D29*
G36*
X129880460Y-73373850D02*
G01*
X130039210Y-73532600D01*
X130115547Y-73526622D01*
X130153460Y-73516259D01*
X130153460Y-73559600D01*
X129816460Y-73559600D01*
X129816460Y-73305600D01*
X129880460Y-73305600D01*
X129880460Y-73373850D01*
G37*
%TD.AperFunction*%
D27*
X132230078Y-65480299D02*
X132230079Y-68322920D01*
X132114782Y-68438218D01*
X132079591Y-68438218D01*
X132057962Y-68436088D01*
X132036333Y-68438218D01*
X132036326Y-68438218D01*
X131971609Y-68444592D01*
X131888574Y-68469780D01*
X131812049Y-68510684D01*
X131781051Y-68536124D01*
X131744975Y-68565731D01*
X131731185Y-68582535D01*
X130667277Y-69646443D01*
X130650474Y-69660233D01*
X130636684Y-69677036D01*
X130636681Y-69677039D01*
X130595426Y-69727308D01*
X130554522Y-69803833D01*
X130529334Y-69886868D01*
X130520830Y-69973220D01*
X130522961Y-69994858D01*
X130522961Y-70269849D01*
X130511460Y-70281350D01*
X130511460Y-70509953D01*
X130475839Y-70553359D01*
X130463460Y-70576518D01*
X130451081Y-70553359D01*
X130415460Y-70509953D01*
X130415460Y-70281350D01*
X130256710Y-70122600D01*
X130146680Y-70135479D01*
X130028034Y-70175093D01*
X129919397Y-70237092D01*
X129824942Y-70319095D01*
X129776704Y-70381313D01*
X129725824Y-70386324D01*
X129652133Y-70408678D01*
X129584219Y-70444979D01*
X129524691Y-70493831D01*
X129475839Y-70553359D01*
X129439538Y-70621273D01*
X129435164Y-70635693D01*
X129418563Y-70644566D01*
X129384821Y-70672258D01*
X129351489Y-70699613D01*
X129337698Y-70716417D01*
X129062254Y-70991862D01*
X129062254Y-70865237D01*
X129036238Y-70734442D01*
X128985204Y-70611236D01*
X128911114Y-70500353D01*
X128816817Y-70406056D01*
X128705934Y-70331966D01*
X128582728Y-70280932D01*
X128451933Y-70254916D01*
X128318575Y-70254916D01*
X128187780Y-70280932D01*
X128098023Y-70318111D01*
X125747869Y-70318111D01*
X125784163Y-70293860D01*
X125878460Y-70199563D01*
X125952550Y-70088680D01*
X126003584Y-69965474D01*
X126029600Y-69834679D01*
X126029600Y-69713961D01*
X126050104Y-69693457D01*
X126066907Y-69679667D01*
X126082857Y-69660233D01*
X126121954Y-69612593D01*
X126162858Y-69536068D01*
X126164520Y-69530589D01*
X126188046Y-69453033D01*
X126194420Y-69388316D01*
X126194420Y-69388307D01*
X126196550Y-69366681D01*
X126194420Y-69345055D01*
X126194420Y-68661869D01*
X126196550Y-68640240D01*
X126194420Y-68618611D01*
X126194420Y-68618604D01*
X126188046Y-68553887D01*
X126162858Y-68470852D01*
X126121954Y-68394327D01*
X126066907Y-68327253D01*
X126050103Y-68313462D01*
X125642275Y-67905635D01*
X125608874Y-67843147D01*
X125567619Y-67792878D01*
X125567617Y-67792876D01*
X125553827Y-67776073D01*
X125537023Y-67762282D01*
X125153020Y-67378280D01*
X125153020Y-66805282D01*
X127023000Y-66805282D01*
X127023000Y-67194718D01*
X127098975Y-67576670D01*
X127248005Y-67936461D01*
X127464364Y-68260264D01*
X127739736Y-68535636D01*
X128063539Y-68751995D01*
X128423330Y-68901025D01*
X128805282Y-68977000D01*
X129194718Y-68977000D01*
X129576670Y-68901025D01*
X129936461Y-68751995D01*
X130260264Y-68535636D01*
X130535636Y-68260264D01*
X130751995Y-67936461D01*
X130901025Y-67576670D01*
X130977000Y-67194718D01*
X130977000Y-66805282D01*
X130901025Y-66423330D01*
X130751995Y-66063539D01*
X130535636Y-65739736D01*
X130260264Y-65464364D01*
X129936461Y-65248005D01*
X129576670Y-65098975D01*
X129194718Y-65023000D01*
X128805282Y-65023000D01*
X128423330Y-65098975D01*
X128063539Y-65248005D01*
X127739736Y-65464364D01*
X127464364Y-65739736D01*
X127248005Y-66063539D01*
X127098975Y-66423330D01*
X127023000Y-66805282D01*
X125153020Y-66805282D01*
X125153020Y-66376680D01*
X127887101Y-63642600D01*
X130392380Y-63642600D01*
X132230078Y-65480299D01*
%TA.AperFunction,Conductor*%
D29*
G36*
X132230078Y-65480299D02*
G01*
X132230079Y-68322920D01*
X132114782Y-68438218D01*
X132079591Y-68438218D01*
X132057962Y-68436088D01*
X132036333Y-68438218D01*
X132036326Y-68438218D01*
X131971609Y-68444592D01*
X131888574Y-68469780D01*
X131812049Y-68510684D01*
X131781051Y-68536124D01*
X131744975Y-68565731D01*
X131731185Y-68582535D01*
X130667277Y-69646443D01*
X130650474Y-69660233D01*
X130636684Y-69677036D01*
X130636681Y-69677039D01*
X130595426Y-69727308D01*
X130554522Y-69803833D01*
X130529334Y-69886868D01*
X130520830Y-69973220D01*
X130522961Y-69994858D01*
X130522961Y-70269849D01*
X130511460Y-70281350D01*
X130511460Y-70509953D01*
X130475839Y-70553359D01*
X130463460Y-70576518D01*
X130451081Y-70553359D01*
X130415460Y-70509953D01*
X130415460Y-70281350D01*
X130256710Y-70122600D01*
X130146680Y-70135479D01*
X130028034Y-70175093D01*
X129919397Y-70237092D01*
X129824942Y-70319095D01*
X129776704Y-70381313D01*
X129725824Y-70386324D01*
X129652133Y-70408678D01*
X129584219Y-70444979D01*
X129524691Y-70493831D01*
X129475839Y-70553359D01*
X129439538Y-70621273D01*
X129435164Y-70635693D01*
X129418563Y-70644566D01*
X129384821Y-70672258D01*
X129351489Y-70699613D01*
X129337698Y-70716417D01*
X129062254Y-70991862D01*
X129062254Y-70865237D01*
X129036238Y-70734442D01*
X128985204Y-70611236D01*
X128911114Y-70500353D01*
X128816817Y-70406056D01*
X128705934Y-70331966D01*
X128582728Y-70280932D01*
X128451933Y-70254916D01*
X128318575Y-70254916D01*
X128187780Y-70280932D01*
X128098023Y-70318111D01*
X125747869Y-70318111D01*
X125784163Y-70293860D01*
X125878460Y-70199563D01*
X125952550Y-70088680D01*
X126003584Y-69965474D01*
X126029600Y-69834679D01*
X126029600Y-69713961D01*
X126050104Y-69693457D01*
X126066907Y-69679667D01*
X126082857Y-69660233D01*
X126121954Y-69612593D01*
X126162858Y-69536068D01*
X126164520Y-69530589D01*
X126188046Y-69453033D01*
X126194420Y-69388316D01*
X126194420Y-69388307D01*
X126196550Y-69366681D01*
X126194420Y-69345055D01*
X126194420Y-68661869D01*
X126196550Y-68640240D01*
X126194420Y-68618611D01*
X126194420Y-68618604D01*
X126188046Y-68553887D01*
X126162858Y-68470852D01*
X126121954Y-68394327D01*
X126066907Y-68327253D01*
X126050103Y-68313462D01*
X125642275Y-67905635D01*
X125608874Y-67843147D01*
X125567619Y-67792878D01*
X125567617Y-67792876D01*
X125553827Y-67776073D01*
X125537023Y-67762282D01*
X125153020Y-67378280D01*
X125153020Y-66805282D01*
X127023000Y-66805282D01*
X127023000Y-67194718D01*
X127098975Y-67576670D01*
X127248005Y-67936461D01*
X127464364Y-68260264D01*
X127739736Y-68535636D01*
X128063539Y-68751995D01*
X128423330Y-68901025D01*
X128805282Y-68977000D01*
X129194718Y-68977000D01*
X129576670Y-68901025D01*
X129936461Y-68751995D01*
X130260264Y-68535636D01*
X130535636Y-68260264D01*
X130751995Y-67936461D01*
X130901025Y-67576670D01*
X130977000Y-67194718D01*
X130977000Y-66805282D01*
X130901025Y-66423330D01*
X130751995Y-66063539D01*
X130535636Y-65739736D01*
X130260264Y-65464364D01*
X129936461Y-65248005D01*
X129576670Y-65098975D01*
X129194718Y-65023000D01*
X128805282Y-65023000D01*
X128423330Y-65098975D01*
X128063539Y-65248005D01*
X127739736Y-65464364D01*
X127464364Y-65739736D01*
X127248005Y-66063539D01*
X127098975Y-66423330D01*
X127023000Y-66805282D01*
X125153020Y-66805282D01*
X125153020Y-66376680D01*
X127887101Y-63642600D01*
X130392380Y-63642600D01*
X132230078Y-65480299D01*
G37*
%TD.AperFunction*%
D27*
X99153976Y-51819200D02*
X99161255Y-51893105D01*
X99182812Y-51964170D01*
X99217819Y-52029663D01*
X99264931Y-52087069D01*
X99270800Y-52091886D01*
X99270800Y-52757130D01*
X99230859Y-52853557D01*
X99201000Y-53003672D01*
X99201000Y-53156728D01*
X99230859Y-53306843D01*
X99270800Y-53403270D01*
X99270801Y-55740376D01*
X98382800Y-55740376D01*
X98308895Y-55747655D01*
X98237830Y-55769212D01*
X98172337Y-55804219D01*
X98114931Y-55851331D01*
X98067819Y-55908737D01*
X98032812Y-55974230D01*
X98011255Y-56045295D01*
X98003976Y-56119200D01*
X98003976Y-57621975D01*
X97355199Y-56973198D01*
X97339415Y-56953965D01*
X97262671Y-56890983D01*
X97175114Y-56844183D01*
X97080110Y-56815364D01*
X97006063Y-56808071D01*
X96981309Y-56805633D01*
X96956555Y-56808071D01*
X95833679Y-56808071D01*
X95828399Y-56802791D01*
X95894797Y-56728724D01*
X95910029Y-56420042D01*
X95039904Y-56014296D01*
X94634549Y-55608941D01*
X94454941Y-55788549D01*
X94479248Y-55812856D01*
X94015171Y-56808071D01*
X93734913Y-56808071D01*
X94021304Y-56193904D01*
X94426659Y-55788549D01*
X94247051Y-55608941D01*
X94222744Y-55633248D01*
X94008558Y-55533371D01*
X94609574Y-55533371D01*
X96017374Y-56189840D01*
X96244047Y-55979755D01*
X96284499Y-55620561D01*
X96254099Y-55260378D01*
X96154014Y-54913048D01*
X95988091Y-54591916D01*
X95762708Y-54309324D01*
X95574724Y-54140803D01*
X95266042Y-54125571D01*
X94609574Y-55533371D01*
X94008558Y-55533371D01*
X92864226Y-54999760D01*
X92637553Y-55209845D01*
X92597101Y-55569039D01*
X92627501Y-55929222D01*
X92727586Y-56276552D01*
X92893509Y-56597684D01*
X93055366Y-56800626D01*
X93047921Y-56808071D01*
X91683455Y-56808071D01*
X91686048Y-56781741D01*
X91678769Y-56707836D01*
X91657212Y-56636771D01*
X91622205Y-56571278D01*
X91575093Y-56513872D01*
X90926903Y-55865682D01*
X90968854Y-55831254D01*
X91000542Y-55792642D01*
X92023626Y-54769558D01*
X92971571Y-54769558D01*
X94379371Y-55426026D01*
X95035840Y-54018226D01*
X94825755Y-53791553D01*
X94466561Y-53751101D01*
X94106378Y-53781501D01*
X93759048Y-53881586D01*
X93437916Y-54047509D01*
X93155324Y-54272892D01*
X92986803Y-54460876D01*
X92971571Y-54769558D01*
X92023626Y-54769558D01*
X93183584Y-53609600D01*
X94264099Y-53609600D01*
X94313800Y-53614495D01*
X94363501Y-53609600D01*
X94363511Y-53609600D01*
X94512187Y-53594957D01*
X94702949Y-53537089D01*
X94878757Y-53443118D01*
X95032854Y-53316654D01*
X95064542Y-53278042D01*
X96511384Y-51831200D01*
X96855158Y-51831200D01*
X96861255Y-51893105D01*
X96882812Y-51964170D01*
X96917819Y-52029663D01*
X96964931Y-52087069D01*
X97022337Y-52134181D01*
X97087830Y-52169188D01*
X97158895Y-52190745D01*
X97232800Y-52198024D01*
X98732800Y-52198024D01*
X98806705Y-52190745D01*
X98877770Y-52169188D01*
X98943263Y-52134181D01*
X99000669Y-52087069D01*
X99047781Y-52029663D01*
X99082788Y-51964170D01*
X99104345Y-51893105D01*
X99111624Y-51819200D01*
X99111624Y-50582745D01*
X99153976Y-50540393D01*
X99153976Y-51819200D01*
%TA.AperFunction,Conductor*%
D29*
G36*
X99153976Y-51819200D02*
G01*
X99161255Y-51893105D01*
X99182812Y-51964170D01*
X99217819Y-52029663D01*
X99264931Y-52087069D01*
X99270800Y-52091886D01*
X99270800Y-52757130D01*
X99230859Y-52853557D01*
X99201000Y-53003672D01*
X99201000Y-53156728D01*
X99230859Y-53306843D01*
X99270800Y-53403270D01*
X99270801Y-55740376D01*
X98382800Y-55740376D01*
X98308895Y-55747655D01*
X98237830Y-55769212D01*
X98172337Y-55804219D01*
X98114931Y-55851331D01*
X98067819Y-55908737D01*
X98032812Y-55974230D01*
X98011255Y-56045295D01*
X98003976Y-56119200D01*
X98003976Y-57621975D01*
X97355199Y-56973198D01*
X97339415Y-56953965D01*
X97262671Y-56890983D01*
X97175114Y-56844183D01*
X97080110Y-56815364D01*
X97006063Y-56808071D01*
X96981309Y-56805633D01*
X96956555Y-56808071D01*
X95833679Y-56808071D01*
X95828399Y-56802791D01*
X95894797Y-56728724D01*
X95910029Y-56420042D01*
X95039904Y-56014296D01*
X94634549Y-55608941D01*
X94454941Y-55788549D01*
X94479248Y-55812856D01*
X94015171Y-56808071D01*
X93734913Y-56808071D01*
X94021304Y-56193904D01*
X94426659Y-55788549D01*
X94247051Y-55608941D01*
X94222744Y-55633248D01*
X94008558Y-55533371D01*
X94609574Y-55533371D01*
X96017374Y-56189840D01*
X96244047Y-55979755D01*
X96284499Y-55620561D01*
X96254099Y-55260378D01*
X96154014Y-54913048D01*
X95988091Y-54591916D01*
X95762708Y-54309324D01*
X95574724Y-54140803D01*
X95266042Y-54125571D01*
X94609574Y-55533371D01*
X94008558Y-55533371D01*
X92864226Y-54999760D01*
X92637553Y-55209845D01*
X92597101Y-55569039D01*
X92627501Y-55929222D01*
X92727586Y-56276552D01*
X92893509Y-56597684D01*
X93055366Y-56800626D01*
X93047921Y-56808071D01*
X91683455Y-56808071D01*
X91686048Y-56781741D01*
X91678769Y-56707836D01*
X91657212Y-56636771D01*
X91622205Y-56571278D01*
X91575093Y-56513872D01*
X90926903Y-55865682D01*
X90968854Y-55831254D01*
X91000542Y-55792642D01*
X92023626Y-54769558D01*
X92971571Y-54769558D01*
X94379371Y-55426026D01*
X95035840Y-54018226D01*
X94825755Y-53791553D01*
X94466561Y-53751101D01*
X94106378Y-53781501D01*
X93759048Y-53881586D01*
X93437916Y-54047509D01*
X93155324Y-54272892D01*
X92986803Y-54460876D01*
X92971571Y-54769558D01*
X92023626Y-54769558D01*
X93183584Y-53609600D01*
X94264099Y-53609600D01*
X94313800Y-53614495D01*
X94363501Y-53609600D01*
X94363511Y-53609600D01*
X94512187Y-53594957D01*
X94702949Y-53537089D01*
X94878757Y-53443118D01*
X95032854Y-53316654D01*
X95064542Y-53278042D01*
X96511384Y-51831200D01*
X96855158Y-51831200D01*
X96861255Y-51893105D01*
X96882812Y-51964170D01*
X96917819Y-52029663D01*
X96964931Y-52087069D01*
X97022337Y-52134181D01*
X97087830Y-52169188D01*
X97158895Y-52190745D01*
X97232800Y-52198024D01*
X98732800Y-52198024D01*
X98806705Y-52190745D01*
X98877770Y-52169188D01*
X98943263Y-52134181D01*
X99000669Y-52087069D01*
X99047781Y-52029663D01*
X99082788Y-51964170D01*
X99104345Y-51893105D01*
X99111624Y-51819200D01*
X99111624Y-50582745D01*
X99153976Y-50540393D01*
X99153976Y-51819200D01*
G37*
%TD.AperFunction*%
%TD*%
M02*
