%TF.GenerationSoftware,KiCad,Pcbnew,(5.1.10)-1*%
%TF.CreationDate,2021-12-05T21:12:05-05:00*%
%TF.ProjectId,poi_PCB,706f695f-5043-4422-9e6b-696361645f70,rev?*%
%TF.SameCoordinates,Original*%
%TF.FileFunction,Soldermask,Top*%
%TF.FilePolarity,Negative*%
%FSLAX46Y46*%
G04 Gerber Fmt 4.6, Leading zero omitted, Abs format (unit mm)*
G04 Created by KiCad (PCBNEW (5.1.10)-1) date 2021-12-05 21:12:05*
%MOMM*%
%LPD*%
G01*
G04 APERTURE LIST*
%ADD10C,7.500000*%
%ADD11C,3.200000*%
%ADD12O,1.700000X1.700000*%
%ADD13R,1.700000X1.700000*%
%ADD14C,0.520000*%
%ADD15O,2.200000X1.100000*%
%ADD16C,2.000000*%
%ADD17C,2.400000*%
%ADD18C,0.100000*%
%ADD19C,1.700000*%
%ADD20C,3.000000*%
%ADD21R,1.500000X2.000000*%
%ADD22R,3.800000X2.000000*%
%ADD23R,1.000000X1.500000*%
%ADD24R,1.500000X1.000000*%
G04 APERTURE END LIST*
D10*
X111248940Y-77499760D02*
G75*
G03*
X111248940Y-77499760I-3750000J0D01*
G01*
D11*
%TO.C,H3*%
X100000000Y-100300000D03*
%TD*%
D12*
%TO.C,J1*%
X127735120Y-79023760D03*
X127735120Y-81563760D03*
D13*
X127735120Y-84103760D03*
%TD*%
D14*
%TO.C,J4*%
X103036000Y-61714000D03*
X110536000Y-61714000D03*
D15*
X104386000Y-63864000D03*
X104386000Y-59564000D03*
X109186000Y-63864000D03*
X109186000Y-59564000D03*
%TD*%
D16*
%TO.C,TP1*%
X115726000Y-50032200D03*
%TD*%
%TO.C,U4*%
G36*
G01*
X131802460Y-70757600D02*
X132124460Y-70757600D01*
G75*
G02*
X132138460Y-70771600I0J-14000D01*
G01*
X132138460Y-71253600D01*
G75*
G02*
X132124460Y-71267600I-14000J0D01*
G01*
X131802460Y-71267600D01*
G75*
G02*
X131788460Y-71253600I0J14000D01*
G01*
X131788460Y-70771600D01*
G75*
G02*
X131802460Y-70757600I14000J0D01*
G01*
G37*
G36*
G01*
X131302460Y-70757600D02*
X131624460Y-70757600D01*
G75*
G02*
X131638460Y-70771600I0J-14000D01*
G01*
X131638460Y-71253600D01*
G75*
G02*
X131624460Y-71267600I-14000J0D01*
G01*
X131302460Y-71267600D01*
G75*
G02*
X131288460Y-71253600I0J14000D01*
G01*
X131288460Y-70771600D01*
G75*
G02*
X131302460Y-70757600I14000J0D01*
G01*
G37*
G36*
G01*
X130802460Y-70757600D02*
X131124460Y-70757600D01*
G75*
G02*
X131138460Y-70771600I0J-14000D01*
G01*
X131138460Y-71253600D01*
G75*
G02*
X131124460Y-71267600I-14000J0D01*
G01*
X130802460Y-71267600D01*
G75*
G02*
X130788460Y-71253600I0J14000D01*
G01*
X130788460Y-70771600D01*
G75*
G02*
X130802460Y-70757600I14000J0D01*
G01*
G37*
G36*
G01*
X130302460Y-70757600D02*
X130624460Y-70757600D01*
G75*
G02*
X130638460Y-70771600I0J-14000D01*
G01*
X130638460Y-71253600D01*
G75*
G02*
X130624460Y-71267600I-14000J0D01*
G01*
X130302460Y-71267600D01*
G75*
G02*
X130288460Y-71253600I0J14000D01*
G01*
X130288460Y-70771600D01*
G75*
G02*
X130302460Y-70757600I14000J0D01*
G01*
G37*
G36*
G01*
X129802460Y-70757600D02*
X130124460Y-70757600D01*
G75*
G02*
X130138460Y-70771600I0J-14000D01*
G01*
X130138460Y-71253600D01*
G75*
G02*
X130124460Y-71267600I-14000J0D01*
G01*
X129802460Y-71267600D01*
G75*
G02*
X129788460Y-71253600I0J14000D01*
G01*
X129788460Y-70771600D01*
G75*
G02*
X129802460Y-70757600I14000J0D01*
G01*
G37*
G36*
G01*
X129512460Y-71547600D02*
X129994460Y-71547600D01*
G75*
G02*
X130008460Y-71561600I0J-14000D01*
G01*
X130008460Y-71883600D01*
G75*
G02*
X129994460Y-71897600I-14000J0D01*
G01*
X129512460Y-71897600D01*
G75*
G02*
X129498460Y-71883600I0J14000D01*
G01*
X129498460Y-71561600D01*
G75*
G02*
X129512460Y-71547600I14000J0D01*
G01*
G37*
G36*
G01*
X129512460Y-72047600D02*
X129994460Y-72047600D01*
G75*
G02*
X130008460Y-72061600I0J-14000D01*
G01*
X130008460Y-72383600D01*
G75*
G02*
X129994460Y-72397600I-14000J0D01*
G01*
X129512460Y-72397600D01*
G75*
G02*
X129498460Y-72383600I0J14000D01*
G01*
X129498460Y-72061600D01*
G75*
G02*
X129512460Y-72047600I14000J0D01*
G01*
G37*
G36*
G01*
X129512460Y-72547600D02*
X129994460Y-72547600D01*
G75*
G02*
X130008460Y-72561600I0J-14000D01*
G01*
X130008460Y-72883600D01*
G75*
G02*
X129994460Y-72897600I-14000J0D01*
G01*
X129512460Y-72897600D01*
G75*
G02*
X129498460Y-72883600I0J14000D01*
G01*
X129498460Y-72561600D01*
G75*
G02*
X129512460Y-72547600I14000J0D01*
G01*
G37*
G36*
G01*
X129802460Y-73177600D02*
X130124460Y-73177600D01*
G75*
G02*
X130138460Y-73191600I0J-14000D01*
G01*
X130138460Y-73673600D01*
G75*
G02*
X130124460Y-73687600I-14000J0D01*
G01*
X129802460Y-73687600D01*
G75*
G02*
X129788460Y-73673600I0J14000D01*
G01*
X129788460Y-73191600D01*
G75*
G02*
X129802460Y-73177600I14000J0D01*
G01*
G37*
G36*
G01*
X130302460Y-73177600D02*
X130624460Y-73177600D01*
G75*
G02*
X130638460Y-73191600I0J-14000D01*
G01*
X130638460Y-73673600D01*
G75*
G02*
X130624460Y-73687600I-14000J0D01*
G01*
X130302460Y-73687600D01*
G75*
G02*
X130288460Y-73673600I0J14000D01*
G01*
X130288460Y-73191600D01*
G75*
G02*
X130302460Y-73177600I14000J0D01*
G01*
G37*
G36*
G01*
X130802460Y-73177600D02*
X131124460Y-73177600D01*
G75*
G02*
X131138460Y-73191600I0J-14000D01*
G01*
X131138460Y-73673600D01*
G75*
G02*
X131124460Y-73687600I-14000J0D01*
G01*
X130802460Y-73687600D01*
G75*
G02*
X130788460Y-73673600I0J14000D01*
G01*
X130788460Y-73191600D01*
G75*
G02*
X130802460Y-73177600I14000J0D01*
G01*
G37*
G36*
G01*
X131302460Y-73177600D02*
X131624460Y-73177600D01*
G75*
G02*
X131638460Y-73191600I0J-14000D01*
G01*
X131638460Y-73673600D01*
G75*
G02*
X131624460Y-73687600I-14000J0D01*
G01*
X131302460Y-73687600D01*
G75*
G02*
X131288460Y-73673600I0J14000D01*
G01*
X131288460Y-73191600D01*
G75*
G02*
X131302460Y-73177600I14000J0D01*
G01*
G37*
G36*
G01*
X131802460Y-73177600D02*
X132124460Y-73177600D01*
G75*
G02*
X132138460Y-73191600I0J-14000D01*
G01*
X132138460Y-73673600D01*
G75*
G02*
X132124460Y-73687600I-14000J0D01*
G01*
X131802460Y-73687600D01*
G75*
G02*
X131788460Y-73673600I0J14000D01*
G01*
X131788460Y-73191600D01*
G75*
G02*
X131802460Y-73177600I14000J0D01*
G01*
G37*
G36*
G01*
X131932460Y-72547600D02*
X132414460Y-72547600D01*
G75*
G02*
X132428460Y-72561600I0J-14000D01*
G01*
X132428460Y-72883600D01*
G75*
G02*
X132414460Y-72897600I-14000J0D01*
G01*
X131932460Y-72897600D01*
G75*
G02*
X131918460Y-72883600I0J14000D01*
G01*
X131918460Y-72561600D01*
G75*
G02*
X131932460Y-72547600I14000J0D01*
G01*
G37*
G36*
G01*
X131932460Y-72047600D02*
X132414460Y-72047600D01*
G75*
G02*
X132428460Y-72061600I0J-14000D01*
G01*
X132428460Y-72383600D01*
G75*
G02*
X132414460Y-72397600I-14000J0D01*
G01*
X131932460Y-72397600D01*
G75*
G02*
X131918460Y-72383600I0J14000D01*
G01*
X131918460Y-72061600D01*
G75*
G02*
X131932460Y-72047600I14000J0D01*
G01*
G37*
G36*
G01*
X131932460Y-71547600D02*
X132414460Y-71547600D01*
G75*
G02*
X132428460Y-71561600I0J-14000D01*
G01*
X132428460Y-71883600D01*
G75*
G02*
X132414460Y-71897600I-14000J0D01*
G01*
X131932460Y-71897600D01*
G75*
G02*
X131918460Y-71883600I0J14000D01*
G01*
X131918460Y-71561600D01*
G75*
G02*
X131932460Y-71547600I14000J0D01*
G01*
G37*
%TD*%
D17*
%TO.C,C4*%
X94440800Y-55594800D03*
D18*
G36*
X97688956Y-61010470D02*
G01*
X95433694Y-61831318D01*
X94612846Y-59576056D01*
X96868108Y-58755208D01*
X97688956Y-61010470D01*
G37*
%TD*%
%TO.C,D2*%
G36*
X123692076Y-56792741D02*
G01*
X124399182Y-56085635D01*
X125459842Y-57146295D01*
X124752736Y-57853401D01*
X123692076Y-56792741D01*
G37*
G36*
X121429335Y-59055482D02*
G01*
X122136441Y-58348376D01*
X123197101Y-59409036D01*
X122489995Y-60116142D01*
X121429335Y-59055482D01*
G37*
G36*
X127156899Y-60257564D02*
G01*
X127864005Y-59550458D01*
X128924665Y-60611118D01*
X128217559Y-61318224D01*
X127156899Y-60257564D01*
G37*
G36*
X124894158Y-62520305D02*
G01*
X125601264Y-61813199D01*
X126661924Y-62873859D01*
X125954818Y-63580965D01*
X124894158Y-62520305D01*
G37*
%TD*%
D13*
%TO.C,U6*%
X97994000Y-71976000D03*
D12*
X95454000Y-71976000D03*
D19*
X92914000Y-71976000D03*
D13*
X90374000Y-71976000D03*
D12*
X87834000Y-71976000D03*
D13*
X85294000Y-71976000D03*
%TD*%
D11*
%TO.C,H2*%
X86000000Y-66600000D03*
%TD*%
%TO.C,H1*%
X129000000Y-67000000D03*
%TD*%
D20*
%TO.C,TP2*%
X81484000Y-84168000D03*
%TD*%
D21*
%TO.C,U3*%
X102582800Y-50819200D03*
X97982800Y-50819200D03*
X100282800Y-50819200D03*
D22*
X100282800Y-57119200D03*
%TD*%
D23*
%TO.C,D9*%
X134100000Y-75050000D03*
X130900000Y-75050000D03*
X134100000Y-79950000D03*
X130900000Y-79950000D03*
%TD*%
%TO.C,D5*%
X80900000Y-79950000D03*
X84100000Y-79950000D03*
X80900000Y-75050000D03*
X84100000Y-75050000D03*
%TD*%
D18*
%TO.C,D8*%
G36*
X128218259Y-93692846D02*
G01*
X128925365Y-94399952D01*
X127864705Y-95460612D01*
X127157599Y-94753506D01*
X128218259Y-93692846D01*
G37*
G36*
X125955518Y-91430105D02*
G01*
X126662624Y-92137211D01*
X125601964Y-93197871D01*
X124894858Y-92490765D01*
X125955518Y-91430105D01*
G37*
G36*
X124753436Y-97157669D02*
G01*
X125460542Y-97864775D01*
X124399882Y-98925435D01*
X123692776Y-98218329D01*
X124753436Y-97157669D01*
G37*
G36*
X122490695Y-94894928D02*
G01*
X123197801Y-95602034D01*
X122137141Y-96662694D01*
X121430035Y-95955588D01*
X122490695Y-94894928D01*
G37*
%TD*%
%TO.C,D4*%
G36*
X86781741Y-61307224D02*
G01*
X86074635Y-60600118D01*
X87135295Y-59539458D01*
X87842401Y-60246564D01*
X86781741Y-61307224D01*
G37*
G36*
X89044482Y-63569965D02*
G01*
X88337376Y-62862859D01*
X89398036Y-61802199D01*
X90105142Y-62509305D01*
X89044482Y-63569965D01*
G37*
G36*
X90246564Y-57842401D02*
G01*
X89539458Y-57135295D01*
X90600118Y-56074635D01*
X91307224Y-56781741D01*
X90246564Y-57842401D01*
G37*
G36*
X92509305Y-60105142D02*
G01*
X91802199Y-59398036D01*
X92862859Y-58337376D01*
X93569965Y-59044482D01*
X92509305Y-60105142D01*
G37*
%TD*%
D24*
%TO.C,D7*%
X109950000Y-104100000D03*
X109950000Y-100900000D03*
X105050000Y-104100000D03*
X105050000Y-100900000D03*
%TD*%
%TO.C,D3*%
X105050000Y-50900000D03*
X105050000Y-54100000D03*
X109950000Y-50900000D03*
X109950000Y-54100000D03*
%TD*%
D18*
%TO.C,D6*%
G36*
X91307224Y-98217559D02*
G01*
X90600118Y-98924665D01*
X89539458Y-97864005D01*
X90246564Y-97156899D01*
X91307224Y-98217559D01*
G37*
G36*
X93569965Y-95954818D02*
G01*
X92862859Y-96661924D01*
X91802199Y-95601264D01*
X92509305Y-94894158D01*
X93569965Y-95954818D01*
G37*
G36*
X87842401Y-94752736D02*
G01*
X87135295Y-95459842D01*
X86074635Y-94399182D01*
X86781741Y-93692076D01*
X87842401Y-94752736D01*
G37*
G36*
X90105142Y-92489995D02*
G01*
X89398036Y-93197101D01*
X88337376Y-92136441D01*
X89044482Y-91429335D01*
X90105142Y-92489995D01*
G37*
%TD*%
M02*
