%TF.GenerationSoftware,KiCad,Pcbnew,(5.1.10)-1*%
%TF.CreationDate,2021-12-05T21:12:05-05:00*%
%TF.ProjectId,poi_PCB,706f695f-5043-4422-9e6b-696361645f70,rev?*%
%TF.SameCoordinates,Original*%
%TF.FileFunction,Paste,Bot*%
%TF.FilePolarity,Positive*%
%FSLAX46Y46*%
G04 Gerber Fmt 4.6, Leading zero omitted, Abs format (unit mm)*
G04 Created by KiCad (PCBNEW (5.1.10)-1) date 2021-12-05 21:12:05*
%MOMM*%
%LPD*%
G01*
G04 APERTURE LIST*
%ADD10R,0.800000X0.900000*%
%ADD11R,0.375000X0.350000*%
%ADD12R,0.350000X0.375000*%
%ADD13R,0.300000X0.870000*%
%ADD14R,2.000000X0.900000*%
%ADD15R,0.900000X2.000000*%
%ADD16R,5.000000X5.000000*%
%ADD17R,2.350000X1.000000*%
%ADD18R,0.900000X0.600000*%
%ADD19R,0.900000X0.800000*%
%ADD20R,0.450000X0.600000*%
G04 APERTURE END LIST*
D10*
%TO.C,Q8*%
X123373940Y-83705740D03*
X122423940Y-85705740D03*
X124323940Y-85705740D03*
%TD*%
%TO.C,Q7*%
X123356160Y-80253880D03*
X122406160Y-82253880D03*
X124306160Y-82253880D03*
%TD*%
%TO.C,Q6*%
X123356160Y-76789320D03*
X122406160Y-78789320D03*
X124306160Y-78789320D03*
%TD*%
D11*
%TO.C,U5*%
X130993440Y-72941920D03*
X130993440Y-73441920D03*
X132518440Y-73441920D03*
X132518440Y-72941920D03*
D12*
X131005940Y-73954420D03*
X131005940Y-72429420D03*
X132505940Y-73954420D03*
X132505940Y-72429420D03*
X132005940Y-73954420D03*
X131505940Y-73954420D03*
X132005940Y-72429420D03*
X131505940Y-72429420D03*
%TD*%
D13*
%TO.C,J4*%
X104036000Y-62579000D03*
X109536000Y-62579000D03*
X106536000Y-62579000D03*
X107036000Y-62579000D03*
X106036000Y-62579000D03*
X105536000Y-62579000D03*
X107536000Y-62579000D03*
X108036000Y-62579000D03*
X104036000Y-60849000D03*
X109536000Y-60849000D03*
X106536000Y-60849000D03*
X107036000Y-60849000D03*
X106036000Y-60849000D03*
X105536000Y-60849000D03*
X107536000Y-60849000D03*
X108036000Y-60849000D03*
%TD*%
D14*
%TO.C,U1*%
X120210000Y-84754000D03*
X120210000Y-83484000D03*
X120210000Y-82214000D03*
X120210000Y-80944000D03*
X120210000Y-79674000D03*
X120210000Y-78404000D03*
X120210000Y-77134000D03*
X120210000Y-75864000D03*
X120210000Y-74594000D03*
X120210000Y-73324000D03*
X120210000Y-72054000D03*
X120210000Y-70784000D03*
X120210000Y-69514000D03*
X120210000Y-68244000D03*
D15*
X117425000Y-67244000D03*
X116155000Y-67244000D03*
X114885000Y-67244000D03*
X113615000Y-67244000D03*
X112345000Y-67244000D03*
X111075000Y-67244000D03*
X109805000Y-67244000D03*
X108535000Y-67244000D03*
X107265000Y-67244000D03*
X105995000Y-67244000D03*
D14*
X103210000Y-68244000D03*
X103210000Y-69514000D03*
X103210000Y-70784000D03*
X103210000Y-72054000D03*
X103210000Y-73324000D03*
X103210000Y-74594000D03*
X103210000Y-75864000D03*
X103210000Y-77134000D03*
X103210000Y-78404000D03*
X103210000Y-79674000D03*
X103210000Y-80944000D03*
X103210000Y-82214000D03*
X103210000Y-83484000D03*
X103210000Y-84754000D03*
D16*
X110710000Y-77254000D03*
%TD*%
%TO.C,R23*%
G36*
G01*
X101712400Y-62185400D02*
X101342400Y-62185400D01*
G75*
G02*
X101207400Y-62050400I0J135000D01*
G01*
X101207400Y-61780400D01*
G75*
G02*
X101342400Y-61645400I135000J0D01*
G01*
X101712400Y-61645400D01*
G75*
G02*
X101847400Y-61780400I0J-135000D01*
G01*
X101847400Y-62050400D01*
G75*
G02*
X101712400Y-62185400I-135000J0D01*
G01*
G37*
G36*
G01*
X101712400Y-63205400D02*
X101342400Y-63205400D01*
G75*
G02*
X101207400Y-63070400I0J135000D01*
G01*
X101207400Y-62800400D01*
G75*
G02*
X101342400Y-62665400I135000J0D01*
G01*
X101712400Y-62665400D01*
G75*
G02*
X101847400Y-62800400I0J-135000D01*
G01*
X101847400Y-63070400D01*
G75*
G02*
X101712400Y-63205400I-135000J0D01*
G01*
G37*
%TD*%
%TO.C,R22*%
G36*
G01*
X101312200Y-64111000D02*
X101312200Y-63741000D01*
G75*
G02*
X101447200Y-63606000I135000J0D01*
G01*
X101717200Y-63606000D01*
G75*
G02*
X101852200Y-63741000I0J-135000D01*
G01*
X101852200Y-64111000D01*
G75*
G02*
X101717200Y-64246000I-135000J0D01*
G01*
X101447200Y-64246000D01*
G75*
G02*
X101312200Y-64111000I0J135000D01*
G01*
G37*
G36*
G01*
X100292200Y-64111000D02*
X100292200Y-63741000D01*
G75*
G02*
X100427200Y-63606000I135000J0D01*
G01*
X100697200Y-63606000D01*
G75*
G02*
X100832200Y-63741000I0J-135000D01*
G01*
X100832200Y-64111000D01*
G75*
G02*
X100697200Y-64246000I-135000J0D01*
G01*
X100427200Y-64246000D01*
G75*
G02*
X100292200Y-64111000I0J135000D01*
G01*
G37*
%TD*%
%TO.C,R21*%
G36*
G01*
X100525400Y-77990400D02*
X100525400Y-78360400D01*
G75*
G02*
X100390400Y-78495400I-135000J0D01*
G01*
X100120400Y-78495400D01*
G75*
G02*
X99985400Y-78360400I0J135000D01*
G01*
X99985400Y-77990400D01*
G75*
G02*
X100120400Y-77855400I135000J0D01*
G01*
X100390400Y-77855400D01*
G75*
G02*
X100525400Y-77990400I0J-135000D01*
G01*
G37*
G36*
G01*
X101545400Y-77990400D02*
X101545400Y-78360400D01*
G75*
G02*
X101410400Y-78495400I-135000J0D01*
G01*
X101140400Y-78495400D01*
G75*
G02*
X101005400Y-78360400I0J135000D01*
G01*
X101005400Y-77990400D01*
G75*
G02*
X101140400Y-77855400I135000J0D01*
G01*
X101410400Y-77855400D01*
G75*
G02*
X101545400Y-77990400I0J-135000D01*
G01*
G37*
%TD*%
%TO.C,R16*%
G36*
G01*
X101020601Y-79389399D02*
X101020601Y-79019399D01*
G75*
G02*
X101155601Y-78884399I135000J0D01*
G01*
X101425601Y-78884399D01*
G75*
G02*
X101560601Y-79019399I0J-135000D01*
G01*
X101560601Y-79389399D01*
G75*
G02*
X101425601Y-79524399I-135000J0D01*
G01*
X101155601Y-79524399D01*
G75*
G02*
X101020601Y-79389399I0J135000D01*
G01*
G37*
G36*
G01*
X100000601Y-79389399D02*
X100000601Y-79019399D01*
G75*
G02*
X100135601Y-78884399I135000J0D01*
G01*
X100405601Y-78884399D01*
G75*
G02*
X100540601Y-79019399I0J-135000D01*
G01*
X100540601Y-79389399D01*
G75*
G02*
X100405601Y-79524399I-135000J0D01*
G01*
X100135601Y-79524399D01*
G75*
G02*
X100000601Y-79389399I0J135000D01*
G01*
G37*
%TD*%
D17*
%TO.C,SW3*%
X119084500Y-56093500D03*
X112434500Y-56093500D03*
X119084500Y-54093500D03*
X112434500Y-54093500D03*
X119084500Y-52093500D03*
X112434500Y-52093500D03*
%TD*%
D18*
%TO.C,MK1*%
X125418600Y-75281200D03*
X125418600Y-74281200D03*
X125418600Y-73281200D03*
X125418600Y-72281200D03*
X127318600Y-72281200D03*
X127318600Y-73281200D03*
X127318600Y-74281200D03*
X127318600Y-75281200D03*
%TD*%
D19*
%TO.C,Q4*%
X106836000Y-49514000D03*
X104836000Y-48564000D03*
X104836000Y-50464000D03*
%TD*%
%TO.C,Q2*%
X91739000Y-66923200D03*
X93739000Y-67873200D03*
X93739000Y-65973200D03*
%TD*%
%TO.C,R20*%
G36*
G01*
X131543000Y-70865980D02*
X131913000Y-70865980D01*
G75*
G02*
X132048000Y-71000980I0J-135000D01*
G01*
X132048000Y-71270980D01*
G75*
G02*
X131913000Y-71405980I-135000J0D01*
G01*
X131543000Y-71405980D01*
G75*
G02*
X131408000Y-71270980I0J135000D01*
G01*
X131408000Y-71000980D01*
G75*
G02*
X131543000Y-70865980I135000J0D01*
G01*
G37*
G36*
G01*
X131543000Y-69845980D02*
X131913000Y-69845980D01*
G75*
G02*
X132048000Y-69980980I0J-135000D01*
G01*
X132048000Y-70250980D01*
G75*
G02*
X131913000Y-70385980I-135000J0D01*
G01*
X131543000Y-70385980D01*
G75*
G02*
X131408000Y-70250980I0J135000D01*
G01*
X131408000Y-69980980D01*
G75*
G02*
X131543000Y-69845980I135000J0D01*
G01*
G37*
%TD*%
%TO.C,R19*%
G36*
G01*
X132622500Y-70848200D02*
X132992500Y-70848200D01*
G75*
G02*
X133127500Y-70983200I0J-135000D01*
G01*
X133127500Y-71253200D01*
G75*
G02*
X132992500Y-71388200I-135000J0D01*
G01*
X132622500Y-71388200D01*
G75*
G02*
X132487500Y-71253200I0J135000D01*
G01*
X132487500Y-70983200D01*
G75*
G02*
X132622500Y-70848200I135000J0D01*
G01*
G37*
G36*
G01*
X132622500Y-69828200D02*
X132992500Y-69828200D01*
G75*
G02*
X133127500Y-69963200I0J-135000D01*
G01*
X133127500Y-70233200D01*
G75*
G02*
X132992500Y-70368200I-135000J0D01*
G01*
X132622500Y-70368200D01*
G75*
G02*
X132487500Y-70233200I0J135000D01*
G01*
X132487500Y-69963200D01*
G75*
G02*
X132622500Y-69828200I135000J0D01*
G01*
G37*
%TD*%
%TO.C,C15*%
G36*
G01*
X129292800Y-72925400D02*
X129292800Y-73265400D01*
G75*
G02*
X129152800Y-73405400I-140000J0D01*
G01*
X128872800Y-73405400D01*
G75*
G02*
X128732800Y-73265400I0J140000D01*
G01*
X128732800Y-72925400D01*
G75*
G02*
X128872800Y-72785400I140000J0D01*
G01*
X129152800Y-72785400D01*
G75*
G02*
X129292800Y-72925400I0J-140000D01*
G01*
G37*
G36*
G01*
X130252800Y-72925400D02*
X130252800Y-73265400D01*
G75*
G02*
X130112800Y-73405400I-140000J0D01*
G01*
X129832800Y-73405400D01*
G75*
G02*
X129692800Y-73265400I0J140000D01*
G01*
X129692800Y-72925400D01*
G75*
G02*
X129832800Y-72785400I140000J0D01*
G01*
X130112800Y-72785400D01*
G75*
G02*
X130252800Y-72925400I0J-140000D01*
G01*
G37*
%TD*%
%TO.C,C13*%
G36*
G01*
X129292800Y-71960200D02*
X129292800Y-72300200D01*
G75*
G02*
X129152800Y-72440200I-140000J0D01*
G01*
X128872800Y-72440200D01*
G75*
G02*
X128732800Y-72300200I0J140000D01*
G01*
X128732800Y-71960200D01*
G75*
G02*
X128872800Y-71820200I140000J0D01*
G01*
X129152800Y-71820200D01*
G75*
G02*
X129292800Y-71960200I0J-140000D01*
G01*
G37*
G36*
G01*
X130252800Y-71960200D02*
X130252800Y-72300200D01*
G75*
G02*
X130112800Y-72440200I-140000J0D01*
G01*
X129832800Y-72440200D01*
G75*
G02*
X129692800Y-72300200I0J140000D01*
G01*
X129692800Y-71960200D01*
G75*
G02*
X129832800Y-71820200I140000J0D01*
G01*
X130112800Y-71820200D01*
G75*
G02*
X130252800Y-71960200I0J-140000D01*
G01*
G37*
%TD*%
%TO.C,R18*%
G36*
G01*
X108323200Y-50533000D02*
X108323200Y-50903000D01*
G75*
G02*
X108188200Y-51038000I-135000J0D01*
G01*
X107918200Y-51038000D01*
G75*
G02*
X107783200Y-50903000I0J135000D01*
G01*
X107783200Y-50533000D01*
G75*
G02*
X107918200Y-50398000I135000J0D01*
G01*
X108188200Y-50398000D01*
G75*
G02*
X108323200Y-50533000I0J-135000D01*
G01*
G37*
G36*
G01*
X109343200Y-50533000D02*
X109343200Y-50903000D01*
G75*
G02*
X109208200Y-51038000I-135000J0D01*
G01*
X108938200Y-51038000D01*
G75*
G02*
X108803200Y-50903000I0J135000D01*
G01*
X108803200Y-50533000D01*
G75*
G02*
X108938200Y-50398000I135000J0D01*
G01*
X109208200Y-50398000D01*
G75*
G02*
X109343200Y-50533000I0J-135000D01*
G01*
G37*
%TD*%
%TO.C,R17*%
G36*
G01*
X107921000Y-48849800D02*
X108291000Y-48849800D01*
G75*
G02*
X108426000Y-48984800I0J-135000D01*
G01*
X108426000Y-49254800D01*
G75*
G02*
X108291000Y-49389800I-135000J0D01*
G01*
X107921000Y-49389800D01*
G75*
G02*
X107786000Y-49254800I0J135000D01*
G01*
X107786000Y-48984800D01*
G75*
G02*
X107921000Y-48849800I135000J0D01*
G01*
G37*
G36*
G01*
X107921000Y-47829800D02*
X108291000Y-47829800D01*
G75*
G02*
X108426000Y-47964800I0J-135000D01*
G01*
X108426000Y-48234800D01*
G75*
G02*
X108291000Y-48369800I-135000J0D01*
G01*
X107921000Y-48369800D01*
G75*
G02*
X107786000Y-48234800I0J135000D01*
G01*
X107786000Y-47964800D01*
G75*
G02*
X107921000Y-47829800I135000J0D01*
G01*
G37*
%TD*%
%TO.C,R13*%
G36*
G01*
X90293400Y-67899800D02*
X90663400Y-67899800D01*
G75*
G02*
X90798400Y-68034800I0J-135000D01*
G01*
X90798400Y-68304800D01*
G75*
G02*
X90663400Y-68439800I-135000J0D01*
G01*
X90293400Y-68439800D01*
G75*
G02*
X90158400Y-68304800I0J135000D01*
G01*
X90158400Y-68034800D01*
G75*
G02*
X90293400Y-67899800I135000J0D01*
G01*
G37*
G36*
G01*
X90293400Y-66879800D02*
X90663400Y-66879800D01*
G75*
G02*
X90798400Y-67014800I0J-135000D01*
G01*
X90798400Y-67284800D01*
G75*
G02*
X90663400Y-67419800I-135000J0D01*
G01*
X90293400Y-67419800D01*
G75*
G02*
X90158400Y-67284800I0J135000D01*
G01*
X90158400Y-67014800D01*
G75*
G02*
X90293400Y-66879800I135000J0D01*
G01*
G37*
%TD*%
%TO.C,R11*%
G36*
G01*
X91937600Y-64822200D02*
X91937600Y-64452200D01*
G75*
G02*
X92072600Y-64317200I135000J0D01*
G01*
X92342600Y-64317200D01*
G75*
G02*
X92477600Y-64452200I0J-135000D01*
G01*
X92477600Y-64822200D01*
G75*
G02*
X92342600Y-64957200I-135000J0D01*
G01*
X92072600Y-64957200D01*
G75*
G02*
X91937600Y-64822200I0J135000D01*
G01*
G37*
G36*
G01*
X90917600Y-64822200D02*
X90917600Y-64452200D01*
G75*
G02*
X91052600Y-64317200I135000J0D01*
G01*
X91322600Y-64317200D01*
G75*
G02*
X91457600Y-64452200I0J-135000D01*
G01*
X91457600Y-64822200D01*
G75*
G02*
X91322600Y-64957200I-135000J0D01*
G01*
X91052600Y-64957200D01*
G75*
G02*
X90917600Y-64822200I0J135000D01*
G01*
G37*
%TD*%
D20*
%TO.C,D10*%
X100786000Y-75064000D03*
X100786000Y-72964000D03*
%TD*%
%TO.C,Q5*%
G36*
G01*
X103511000Y-56514000D02*
X103811000Y-56514000D01*
G75*
G02*
X103961000Y-56664000I0J-150000D01*
G01*
X103961000Y-58314000D01*
G75*
G02*
X103811000Y-58464000I-150000J0D01*
G01*
X103511000Y-58464000D01*
G75*
G02*
X103361000Y-58314000I0J150000D01*
G01*
X103361000Y-56664000D01*
G75*
G02*
X103511000Y-56514000I150000J0D01*
G01*
G37*
G36*
G01*
X104781000Y-56514000D02*
X105081000Y-56514000D01*
G75*
G02*
X105231000Y-56664000I0J-150000D01*
G01*
X105231000Y-58314000D01*
G75*
G02*
X105081000Y-58464000I-150000J0D01*
G01*
X104781000Y-58464000D01*
G75*
G02*
X104631000Y-58314000I0J150000D01*
G01*
X104631000Y-56664000D01*
G75*
G02*
X104781000Y-56514000I150000J0D01*
G01*
G37*
G36*
G01*
X106051000Y-56514000D02*
X106351000Y-56514000D01*
G75*
G02*
X106501000Y-56664000I0J-150000D01*
G01*
X106501000Y-58314000D01*
G75*
G02*
X106351000Y-58464000I-150000J0D01*
G01*
X106051000Y-58464000D01*
G75*
G02*
X105901000Y-58314000I0J150000D01*
G01*
X105901000Y-56664000D01*
G75*
G02*
X106051000Y-56514000I150000J0D01*
G01*
G37*
G36*
G01*
X107321000Y-56514000D02*
X107621000Y-56514000D01*
G75*
G02*
X107771000Y-56664000I0J-150000D01*
G01*
X107771000Y-58314000D01*
G75*
G02*
X107621000Y-58464000I-150000J0D01*
G01*
X107321000Y-58464000D01*
G75*
G02*
X107171000Y-58314000I0J150000D01*
G01*
X107171000Y-56664000D01*
G75*
G02*
X107321000Y-56514000I150000J0D01*
G01*
G37*
G36*
G01*
X107321000Y-51564000D02*
X107621000Y-51564000D01*
G75*
G02*
X107771000Y-51714000I0J-150000D01*
G01*
X107771000Y-53364000D01*
G75*
G02*
X107621000Y-53514000I-150000J0D01*
G01*
X107321000Y-53514000D01*
G75*
G02*
X107171000Y-53364000I0J150000D01*
G01*
X107171000Y-51714000D01*
G75*
G02*
X107321000Y-51564000I150000J0D01*
G01*
G37*
G36*
G01*
X106051000Y-51564000D02*
X106351000Y-51564000D01*
G75*
G02*
X106501000Y-51714000I0J-150000D01*
G01*
X106501000Y-53364000D01*
G75*
G02*
X106351000Y-53514000I-150000J0D01*
G01*
X106051000Y-53514000D01*
G75*
G02*
X105901000Y-53364000I0J150000D01*
G01*
X105901000Y-51714000D01*
G75*
G02*
X106051000Y-51564000I150000J0D01*
G01*
G37*
G36*
G01*
X104781000Y-51564000D02*
X105081000Y-51564000D01*
G75*
G02*
X105231000Y-51714000I0J-150000D01*
G01*
X105231000Y-53364000D01*
G75*
G02*
X105081000Y-53514000I-150000J0D01*
G01*
X104781000Y-53514000D01*
G75*
G02*
X104631000Y-53364000I0J150000D01*
G01*
X104631000Y-51714000D01*
G75*
G02*
X104781000Y-51564000I150000J0D01*
G01*
G37*
G36*
G01*
X103511000Y-51564000D02*
X103811000Y-51564000D01*
G75*
G02*
X103961000Y-51714000I0J-150000D01*
G01*
X103961000Y-53364000D01*
G75*
G02*
X103811000Y-53514000I-150000J0D01*
G01*
X103511000Y-53514000D01*
G75*
G02*
X103361000Y-53364000I0J150000D01*
G01*
X103361000Y-51714000D01*
G75*
G02*
X103511000Y-51564000I150000J0D01*
G01*
G37*
%TD*%
%TO.C,Q1*%
G36*
G01*
X99700000Y-69486200D02*
X99700000Y-69186200D01*
G75*
G02*
X99850000Y-69036200I150000J0D01*
G01*
X101500000Y-69036200D01*
G75*
G02*
X101650000Y-69186200I0J-150000D01*
G01*
X101650000Y-69486200D01*
G75*
G02*
X101500000Y-69636200I-150000J0D01*
G01*
X99850000Y-69636200D01*
G75*
G02*
X99700000Y-69486200I0J150000D01*
G01*
G37*
G36*
G01*
X99700000Y-68216200D02*
X99700000Y-67916200D01*
G75*
G02*
X99850000Y-67766200I150000J0D01*
G01*
X101500000Y-67766200D01*
G75*
G02*
X101650000Y-67916200I0J-150000D01*
G01*
X101650000Y-68216200D01*
G75*
G02*
X101500000Y-68366200I-150000J0D01*
G01*
X99850000Y-68366200D01*
G75*
G02*
X99700000Y-68216200I0J150000D01*
G01*
G37*
G36*
G01*
X99700000Y-66946200D02*
X99700000Y-66646200D01*
G75*
G02*
X99850000Y-66496200I150000J0D01*
G01*
X101500000Y-66496200D01*
G75*
G02*
X101650000Y-66646200I0J-150000D01*
G01*
X101650000Y-66946200D01*
G75*
G02*
X101500000Y-67096200I-150000J0D01*
G01*
X99850000Y-67096200D01*
G75*
G02*
X99700000Y-66946200I0J150000D01*
G01*
G37*
G36*
G01*
X99700000Y-65676200D02*
X99700000Y-65376200D01*
G75*
G02*
X99850000Y-65226200I150000J0D01*
G01*
X101500000Y-65226200D01*
G75*
G02*
X101650000Y-65376200I0J-150000D01*
G01*
X101650000Y-65676200D01*
G75*
G02*
X101500000Y-65826200I-150000J0D01*
G01*
X99850000Y-65826200D01*
G75*
G02*
X99700000Y-65676200I0J150000D01*
G01*
G37*
G36*
G01*
X94750000Y-65676200D02*
X94750000Y-65376200D01*
G75*
G02*
X94900000Y-65226200I150000J0D01*
G01*
X96550000Y-65226200D01*
G75*
G02*
X96700000Y-65376200I0J-150000D01*
G01*
X96700000Y-65676200D01*
G75*
G02*
X96550000Y-65826200I-150000J0D01*
G01*
X94900000Y-65826200D01*
G75*
G02*
X94750000Y-65676200I0J150000D01*
G01*
G37*
G36*
G01*
X94750000Y-66946200D02*
X94750000Y-66646200D01*
G75*
G02*
X94900000Y-66496200I150000J0D01*
G01*
X96550000Y-66496200D01*
G75*
G02*
X96700000Y-66646200I0J-150000D01*
G01*
X96700000Y-66946200D01*
G75*
G02*
X96550000Y-67096200I-150000J0D01*
G01*
X94900000Y-67096200D01*
G75*
G02*
X94750000Y-66946200I0J150000D01*
G01*
G37*
G36*
G01*
X94750000Y-68216200D02*
X94750000Y-67916200D01*
G75*
G02*
X94900000Y-67766200I150000J0D01*
G01*
X96550000Y-67766200D01*
G75*
G02*
X96700000Y-67916200I0J-150000D01*
G01*
X96700000Y-68216200D01*
G75*
G02*
X96550000Y-68366200I-150000J0D01*
G01*
X94900000Y-68366200D01*
G75*
G02*
X94750000Y-68216200I0J150000D01*
G01*
G37*
G36*
G01*
X94750000Y-69486200D02*
X94750000Y-69186200D01*
G75*
G02*
X94900000Y-69036200I150000J0D01*
G01*
X96550000Y-69036200D01*
G75*
G02*
X96700000Y-69186200I0J-150000D01*
G01*
X96700000Y-69486200D01*
G75*
G02*
X96550000Y-69636200I-150000J0D01*
G01*
X94900000Y-69636200D01*
G75*
G02*
X94750000Y-69486200I0J150000D01*
G01*
G37*
%TD*%
%TO.C,R9*%
G36*
G01*
X123466200Y-75021400D02*
X123466200Y-74471400D01*
G75*
G02*
X123666200Y-74271400I200000J0D01*
G01*
X124066200Y-74271400D01*
G75*
G02*
X124266200Y-74471400I0J-200000D01*
G01*
X124266200Y-75021400D01*
G75*
G02*
X124066200Y-75221400I-200000J0D01*
G01*
X123666200Y-75221400D01*
G75*
G02*
X123466200Y-75021400I0J200000D01*
G01*
G37*
G36*
G01*
X121816200Y-75021400D02*
X121816200Y-74471400D01*
G75*
G02*
X122016200Y-74271400I200000J0D01*
G01*
X122416200Y-74271400D01*
G75*
G02*
X122616200Y-74471400I0J-200000D01*
G01*
X122616200Y-75021400D01*
G75*
G02*
X122416200Y-75221400I-200000J0D01*
G01*
X122016200Y-75221400D01*
G75*
G02*
X121816200Y-75021400I0J200000D01*
G01*
G37*
%TD*%
%TO.C,R8*%
G36*
G01*
X124253000Y-71372600D02*
X124253000Y-71922600D01*
G75*
G02*
X124053000Y-72122600I-200000J0D01*
G01*
X123653000Y-72122600D01*
G75*
G02*
X123453000Y-71922600I0J200000D01*
G01*
X123453000Y-71372600D01*
G75*
G02*
X123653000Y-71172600I200000J0D01*
G01*
X124053000Y-71172600D01*
G75*
G02*
X124253000Y-71372600I0J-200000D01*
G01*
G37*
G36*
G01*
X122603000Y-71372600D02*
X122603000Y-71922600D01*
G75*
G02*
X122403000Y-72122600I-200000J0D01*
G01*
X122003000Y-72122600D01*
G75*
G02*
X121803000Y-71922600I0J200000D01*
G01*
X121803000Y-71372600D01*
G75*
G02*
X122003000Y-71172600I200000J0D01*
G01*
X122403000Y-71172600D01*
G75*
G02*
X122603000Y-71372600I0J-200000D01*
G01*
G37*
%TD*%
%TO.C,R7*%
G36*
G01*
X122641600Y-72922000D02*
X122641600Y-73472000D01*
G75*
G02*
X122441600Y-73672000I-200000J0D01*
G01*
X122041600Y-73672000D01*
G75*
G02*
X121841600Y-73472000I0J200000D01*
G01*
X121841600Y-72922000D01*
G75*
G02*
X122041600Y-72722000I200000J0D01*
G01*
X122441600Y-72722000D01*
G75*
G02*
X122641600Y-72922000I0J-200000D01*
G01*
G37*
G36*
G01*
X124291600Y-72922000D02*
X124291600Y-73472000D01*
G75*
G02*
X124091600Y-73672000I-200000J0D01*
G01*
X123691600Y-73672000D01*
G75*
G02*
X123491600Y-73472000I0J200000D01*
G01*
X123491600Y-72922000D01*
G75*
G02*
X123691600Y-72722000I200000J0D01*
G01*
X124091600Y-72722000D01*
G75*
G02*
X124291600Y-72922000I0J-200000D01*
G01*
G37*
%TD*%
%TO.C,R5*%
G36*
G01*
X109136000Y-65138000D02*
X109136000Y-65508000D01*
G75*
G02*
X109001000Y-65643000I-135000J0D01*
G01*
X108731000Y-65643000D01*
G75*
G02*
X108596000Y-65508000I0J135000D01*
G01*
X108596000Y-65138000D01*
G75*
G02*
X108731000Y-65003000I135000J0D01*
G01*
X109001000Y-65003000D01*
G75*
G02*
X109136000Y-65138000I0J-135000D01*
G01*
G37*
G36*
G01*
X110156000Y-65138000D02*
X110156000Y-65508000D01*
G75*
G02*
X110021000Y-65643000I-135000J0D01*
G01*
X109751000Y-65643000D01*
G75*
G02*
X109616000Y-65508000I0J135000D01*
G01*
X109616000Y-65138000D01*
G75*
G02*
X109751000Y-65003000I135000J0D01*
G01*
X110021000Y-65003000D01*
G75*
G02*
X110156000Y-65138000I0J-135000D01*
G01*
G37*
%TD*%
%TO.C,D1*%
G36*
G01*
X112886800Y-64914350D02*
X112886800Y-65426850D01*
G75*
G02*
X112668050Y-65645600I-218750J0D01*
G01*
X112230550Y-65645600D01*
G75*
G02*
X112011800Y-65426850I0J218750D01*
G01*
X112011800Y-64914350D01*
G75*
G02*
X112230550Y-64695600I218750J0D01*
G01*
X112668050Y-64695600D01*
G75*
G02*
X112886800Y-64914350I0J-218750D01*
G01*
G37*
G36*
G01*
X114461800Y-64914350D02*
X114461800Y-65426850D01*
G75*
G02*
X114243050Y-65645600I-218750J0D01*
G01*
X113805550Y-65645600D01*
G75*
G02*
X113586800Y-65426850I0J218750D01*
G01*
X113586800Y-64914350D01*
G75*
G02*
X113805550Y-64695600I218750J0D01*
G01*
X114243050Y-64695600D01*
G75*
G02*
X114461800Y-64914350I0J-218750D01*
G01*
G37*
%TD*%
%TO.C,C3*%
G36*
G01*
X126291800Y-71131800D02*
X126291800Y-70791800D01*
G75*
G02*
X126431800Y-70651800I140000J0D01*
G01*
X126711800Y-70651800D01*
G75*
G02*
X126851800Y-70791800I0J-140000D01*
G01*
X126851800Y-71131800D01*
G75*
G02*
X126711800Y-71271800I-140000J0D01*
G01*
X126431800Y-71271800D01*
G75*
G02*
X126291800Y-71131800I0J140000D01*
G01*
G37*
G36*
G01*
X125331800Y-71131800D02*
X125331800Y-70791800D01*
G75*
G02*
X125471800Y-70651800I140000J0D01*
G01*
X125751800Y-70651800D01*
G75*
G02*
X125891800Y-70791800I0J-140000D01*
G01*
X125891800Y-71131800D01*
G75*
G02*
X125751800Y-71271800I-140000J0D01*
G01*
X125471800Y-71271800D01*
G75*
G02*
X125331800Y-71131800I0J140000D01*
G01*
G37*
%TD*%
%TO.C,C2*%
G36*
G01*
X126145800Y-76379800D02*
X126145800Y-76719800D01*
G75*
G02*
X126005800Y-76859800I-140000J0D01*
G01*
X125725800Y-76859800D01*
G75*
G02*
X125585800Y-76719800I0J140000D01*
G01*
X125585800Y-76379800D01*
G75*
G02*
X125725800Y-76239800I140000J0D01*
G01*
X126005800Y-76239800D01*
G75*
G02*
X126145800Y-76379800I0J-140000D01*
G01*
G37*
G36*
G01*
X127105800Y-76379800D02*
X127105800Y-76719800D01*
G75*
G02*
X126965800Y-76859800I-140000J0D01*
G01*
X126685800Y-76859800D01*
G75*
G02*
X126545800Y-76719800I0J140000D01*
G01*
X126545800Y-76379800D01*
G75*
G02*
X126685800Y-76239800I140000J0D01*
G01*
X126965800Y-76239800D01*
G75*
G02*
X127105800Y-76379800I0J-140000D01*
G01*
G37*
%TD*%
%TO.C,R2*%
G36*
G01*
X127352000Y-61372000D02*
X127722000Y-61372000D01*
G75*
G02*
X127857000Y-61507000I0J-135000D01*
G01*
X127857000Y-61777000D01*
G75*
G02*
X127722000Y-61912000I-135000J0D01*
G01*
X127352000Y-61912000D01*
G75*
G02*
X127217000Y-61777000I0J135000D01*
G01*
X127217000Y-61507000D01*
G75*
G02*
X127352000Y-61372000I135000J0D01*
G01*
G37*
G36*
G01*
X127352000Y-60352000D02*
X127722000Y-60352000D01*
G75*
G02*
X127857000Y-60487000I0J-135000D01*
G01*
X127857000Y-60757000D01*
G75*
G02*
X127722000Y-60892000I-135000J0D01*
G01*
X127352000Y-60892000D01*
G75*
G02*
X127217000Y-60757000I0J135000D01*
G01*
X127217000Y-60487000D01*
G75*
G02*
X127352000Y-60352000I135000J0D01*
G01*
G37*
%TD*%
%TO.C,R6*%
G36*
G01*
X125992000Y-59779000D02*
X126542000Y-59779000D01*
G75*
G02*
X126742000Y-59979000I0J-200000D01*
G01*
X126742000Y-60379000D01*
G75*
G02*
X126542000Y-60579000I-200000J0D01*
G01*
X125992000Y-60579000D01*
G75*
G02*
X125792000Y-60379000I0J200000D01*
G01*
X125792000Y-59979000D01*
G75*
G02*
X125992000Y-59779000I200000J0D01*
G01*
G37*
G36*
G01*
X125992000Y-58129000D02*
X126542000Y-58129000D01*
G75*
G02*
X126742000Y-58329000I0J-200000D01*
G01*
X126742000Y-58729000D01*
G75*
G02*
X126542000Y-58929000I-200000J0D01*
G01*
X125992000Y-58929000D01*
G75*
G02*
X125792000Y-58729000I0J200000D01*
G01*
X125792000Y-58329000D01*
G75*
G02*
X125992000Y-58129000I200000J0D01*
G01*
G37*
%TD*%
%TO.C,C1*%
G36*
G01*
X100514600Y-80062800D02*
X100514600Y-80402800D01*
G75*
G02*
X100374600Y-80542800I-140000J0D01*
G01*
X100094600Y-80542800D01*
G75*
G02*
X99954600Y-80402800I0J140000D01*
G01*
X99954600Y-80062800D01*
G75*
G02*
X100094600Y-79922800I140000J0D01*
G01*
X100374600Y-79922800D01*
G75*
G02*
X100514600Y-80062800I0J-140000D01*
G01*
G37*
G36*
G01*
X101474600Y-80062800D02*
X101474600Y-80402800D01*
G75*
G02*
X101334600Y-80542800I-140000J0D01*
G01*
X101054600Y-80542800D01*
G75*
G02*
X100914600Y-80402800I0J140000D01*
G01*
X100914600Y-80062800D01*
G75*
G02*
X101054600Y-79922800I140000J0D01*
G01*
X101334600Y-79922800D01*
G75*
G02*
X101474600Y-80062800I0J-140000D01*
G01*
G37*
%TD*%
%TO.C,U2*%
G36*
G01*
X112191000Y-62114000D02*
X112491000Y-62114000D01*
G75*
G02*
X112641000Y-62264000I0J-150000D01*
G01*
X112641000Y-63914000D01*
G75*
G02*
X112491000Y-64064000I-150000J0D01*
G01*
X112191000Y-64064000D01*
G75*
G02*
X112041000Y-63914000I0J150000D01*
G01*
X112041000Y-62264000D01*
G75*
G02*
X112191000Y-62114000I150000J0D01*
G01*
G37*
G36*
G01*
X113461000Y-62114000D02*
X113761000Y-62114000D01*
G75*
G02*
X113911000Y-62264000I0J-150000D01*
G01*
X113911000Y-63914000D01*
G75*
G02*
X113761000Y-64064000I-150000J0D01*
G01*
X113461000Y-64064000D01*
G75*
G02*
X113311000Y-63914000I0J150000D01*
G01*
X113311000Y-62264000D01*
G75*
G02*
X113461000Y-62114000I150000J0D01*
G01*
G37*
G36*
G01*
X114731000Y-62114000D02*
X115031000Y-62114000D01*
G75*
G02*
X115181000Y-62264000I0J-150000D01*
G01*
X115181000Y-63914000D01*
G75*
G02*
X115031000Y-64064000I-150000J0D01*
G01*
X114731000Y-64064000D01*
G75*
G02*
X114581000Y-63914000I0J150000D01*
G01*
X114581000Y-62264000D01*
G75*
G02*
X114731000Y-62114000I150000J0D01*
G01*
G37*
G36*
G01*
X116001000Y-62114000D02*
X116301000Y-62114000D01*
G75*
G02*
X116451000Y-62264000I0J-150000D01*
G01*
X116451000Y-63914000D01*
G75*
G02*
X116301000Y-64064000I-150000J0D01*
G01*
X116001000Y-64064000D01*
G75*
G02*
X115851000Y-63914000I0J150000D01*
G01*
X115851000Y-62264000D01*
G75*
G02*
X116001000Y-62114000I150000J0D01*
G01*
G37*
G36*
G01*
X117271000Y-62114000D02*
X117571000Y-62114000D01*
G75*
G02*
X117721000Y-62264000I0J-150000D01*
G01*
X117721000Y-63914000D01*
G75*
G02*
X117571000Y-64064000I-150000J0D01*
G01*
X117271000Y-64064000D01*
G75*
G02*
X117121000Y-63914000I0J150000D01*
G01*
X117121000Y-62264000D01*
G75*
G02*
X117271000Y-62114000I150000J0D01*
G01*
G37*
G36*
G01*
X118541000Y-62114000D02*
X118841000Y-62114000D01*
G75*
G02*
X118991000Y-62264000I0J-150000D01*
G01*
X118991000Y-63914000D01*
G75*
G02*
X118841000Y-64064000I-150000J0D01*
G01*
X118541000Y-64064000D01*
G75*
G02*
X118391000Y-63914000I0J150000D01*
G01*
X118391000Y-62264000D01*
G75*
G02*
X118541000Y-62114000I150000J0D01*
G01*
G37*
G36*
G01*
X119811000Y-62114000D02*
X120111000Y-62114000D01*
G75*
G02*
X120261000Y-62264000I0J-150000D01*
G01*
X120261000Y-63914000D01*
G75*
G02*
X120111000Y-64064000I-150000J0D01*
G01*
X119811000Y-64064000D01*
G75*
G02*
X119661000Y-63914000I0J150000D01*
G01*
X119661000Y-62264000D01*
G75*
G02*
X119811000Y-62114000I150000J0D01*
G01*
G37*
G36*
G01*
X121081000Y-62114000D02*
X121381000Y-62114000D01*
G75*
G02*
X121531000Y-62264000I0J-150000D01*
G01*
X121531000Y-63914000D01*
G75*
G02*
X121381000Y-64064000I-150000J0D01*
G01*
X121081000Y-64064000D01*
G75*
G02*
X120931000Y-63914000I0J150000D01*
G01*
X120931000Y-62264000D01*
G75*
G02*
X121081000Y-62114000I150000J0D01*
G01*
G37*
G36*
G01*
X121081000Y-57164000D02*
X121381000Y-57164000D01*
G75*
G02*
X121531000Y-57314000I0J-150000D01*
G01*
X121531000Y-58964000D01*
G75*
G02*
X121381000Y-59114000I-150000J0D01*
G01*
X121081000Y-59114000D01*
G75*
G02*
X120931000Y-58964000I0J150000D01*
G01*
X120931000Y-57314000D01*
G75*
G02*
X121081000Y-57164000I150000J0D01*
G01*
G37*
G36*
G01*
X119811000Y-57164000D02*
X120111000Y-57164000D01*
G75*
G02*
X120261000Y-57314000I0J-150000D01*
G01*
X120261000Y-58964000D01*
G75*
G02*
X120111000Y-59114000I-150000J0D01*
G01*
X119811000Y-59114000D01*
G75*
G02*
X119661000Y-58964000I0J150000D01*
G01*
X119661000Y-57314000D01*
G75*
G02*
X119811000Y-57164000I150000J0D01*
G01*
G37*
G36*
G01*
X118541000Y-57164000D02*
X118841000Y-57164000D01*
G75*
G02*
X118991000Y-57314000I0J-150000D01*
G01*
X118991000Y-58964000D01*
G75*
G02*
X118841000Y-59114000I-150000J0D01*
G01*
X118541000Y-59114000D01*
G75*
G02*
X118391000Y-58964000I0J150000D01*
G01*
X118391000Y-57314000D01*
G75*
G02*
X118541000Y-57164000I150000J0D01*
G01*
G37*
G36*
G01*
X117271000Y-57164000D02*
X117571000Y-57164000D01*
G75*
G02*
X117721000Y-57314000I0J-150000D01*
G01*
X117721000Y-58964000D01*
G75*
G02*
X117571000Y-59114000I-150000J0D01*
G01*
X117271000Y-59114000D01*
G75*
G02*
X117121000Y-58964000I0J150000D01*
G01*
X117121000Y-57314000D01*
G75*
G02*
X117271000Y-57164000I150000J0D01*
G01*
G37*
G36*
G01*
X116001000Y-57164000D02*
X116301000Y-57164000D01*
G75*
G02*
X116451000Y-57314000I0J-150000D01*
G01*
X116451000Y-58964000D01*
G75*
G02*
X116301000Y-59114000I-150000J0D01*
G01*
X116001000Y-59114000D01*
G75*
G02*
X115851000Y-58964000I0J150000D01*
G01*
X115851000Y-57314000D01*
G75*
G02*
X116001000Y-57164000I150000J0D01*
G01*
G37*
G36*
G01*
X114731000Y-57164000D02*
X115031000Y-57164000D01*
G75*
G02*
X115181000Y-57314000I0J-150000D01*
G01*
X115181000Y-58964000D01*
G75*
G02*
X115031000Y-59114000I-150000J0D01*
G01*
X114731000Y-59114000D01*
G75*
G02*
X114581000Y-58964000I0J150000D01*
G01*
X114581000Y-57314000D01*
G75*
G02*
X114731000Y-57164000I150000J0D01*
G01*
G37*
G36*
G01*
X113461000Y-57164000D02*
X113761000Y-57164000D01*
G75*
G02*
X113911000Y-57314000I0J-150000D01*
G01*
X113911000Y-58964000D01*
G75*
G02*
X113761000Y-59114000I-150000J0D01*
G01*
X113461000Y-59114000D01*
G75*
G02*
X113311000Y-58964000I0J150000D01*
G01*
X113311000Y-57314000D01*
G75*
G02*
X113461000Y-57164000I150000J0D01*
G01*
G37*
G36*
G01*
X112191000Y-57164000D02*
X112491000Y-57164000D01*
G75*
G02*
X112641000Y-57314000I0J-150000D01*
G01*
X112641000Y-58964000D01*
G75*
G02*
X112491000Y-59114000I-150000J0D01*
G01*
X112191000Y-59114000D01*
G75*
G02*
X112041000Y-58964000I0J150000D01*
G01*
X112041000Y-57314000D01*
G75*
G02*
X112191000Y-57164000I150000J0D01*
G01*
G37*
%TD*%
%TO.C,R15*%
G36*
G01*
X124022000Y-60515000D02*
X124022000Y-59965000D01*
G75*
G02*
X124222000Y-59765000I200000J0D01*
G01*
X124622000Y-59765000D01*
G75*
G02*
X124822000Y-59965000I0J-200000D01*
G01*
X124822000Y-60515000D01*
G75*
G02*
X124622000Y-60715000I-200000J0D01*
G01*
X124222000Y-60715000D01*
G75*
G02*
X124022000Y-60515000I0J200000D01*
G01*
G37*
G36*
G01*
X122372000Y-60515000D02*
X122372000Y-59965000D01*
G75*
G02*
X122572000Y-59765000I200000J0D01*
G01*
X122972000Y-59765000D01*
G75*
G02*
X123172000Y-59965000I0J-200000D01*
G01*
X123172000Y-60515000D01*
G75*
G02*
X122972000Y-60715000I-200000J0D01*
G01*
X122572000Y-60715000D01*
G75*
G02*
X122372000Y-60515000I0J200000D01*
G01*
G37*
%TD*%
%TO.C,R14*%
G36*
G01*
X123708400Y-54608600D02*
X123708400Y-55158600D01*
G75*
G02*
X123508400Y-55358600I-200000J0D01*
G01*
X123108400Y-55358600D01*
G75*
G02*
X122908400Y-55158600I0J200000D01*
G01*
X122908400Y-54608600D01*
G75*
G02*
X123108400Y-54408600I200000J0D01*
G01*
X123508400Y-54408600D01*
G75*
G02*
X123708400Y-54608600I0J-200000D01*
G01*
G37*
G36*
G01*
X125358400Y-54608600D02*
X125358400Y-55158600D01*
G75*
G02*
X125158400Y-55358600I-200000J0D01*
G01*
X124758400Y-55358600D01*
G75*
G02*
X124558400Y-55158600I0J200000D01*
G01*
X124558400Y-54608600D01*
G75*
G02*
X124758400Y-54408600I200000J0D01*
G01*
X125158400Y-54408600D01*
G75*
G02*
X125358400Y-54608600I0J-200000D01*
G01*
G37*
%TD*%
D19*
%TO.C,Q3*%
X122772000Y-57490000D03*
X124772000Y-58440000D03*
X124772000Y-56540000D03*
%TD*%
%TO.C,C18*%
G36*
G01*
X107173400Y-102033600D02*
X107173400Y-102983600D01*
G75*
G02*
X106923400Y-103233600I-250000J0D01*
G01*
X106423400Y-103233600D01*
G75*
G02*
X106173400Y-102983600I0J250000D01*
G01*
X106173400Y-102033600D01*
G75*
G02*
X106423400Y-101783600I250000J0D01*
G01*
X106923400Y-101783600D01*
G75*
G02*
X107173400Y-102033600I0J-250000D01*
G01*
G37*
G36*
G01*
X109073400Y-102033600D02*
X109073400Y-102983600D01*
G75*
G02*
X108823400Y-103233600I-250000J0D01*
G01*
X108323400Y-103233600D01*
G75*
G02*
X108073400Y-102983600I0J250000D01*
G01*
X108073400Y-102033600D01*
G75*
G02*
X108323400Y-101783600I250000J0D01*
G01*
X108823400Y-101783600D01*
G75*
G02*
X109073400Y-102033600I0J-250000D01*
G01*
G37*
%TD*%
%TO.C,C17*%
G36*
G01*
X89124200Y-95810600D02*
X89124200Y-96760600D01*
G75*
G02*
X88874200Y-97010600I-250000J0D01*
G01*
X88374200Y-97010600D01*
G75*
G02*
X88124200Y-96760600I0J250000D01*
G01*
X88124200Y-95810600D01*
G75*
G02*
X88374200Y-95560600I250000J0D01*
G01*
X88874200Y-95560600D01*
G75*
G02*
X89124200Y-95810600I0J-250000D01*
G01*
G37*
G36*
G01*
X91024200Y-95810600D02*
X91024200Y-96760600D01*
G75*
G02*
X90774200Y-97010600I-250000J0D01*
G01*
X90274200Y-97010600D01*
G75*
G02*
X90024200Y-96760600I0J250000D01*
G01*
X90024200Y-95810600D01*
G75*
G02*
X90274200Y-95560600I250000J0D01*
G01*
X90774200Y-95560600D01*
G75*
G02*
X91024200Y-95810600I0J-250000D01*
G01*
G37*
%TD*%
%TO.C,C16*%
G36*
G01*
X127935678Y-93193127D02*
X127263927Y-93864878D01*
G75*
G02*
X126910373Y-93864878I-176777J176777D01*
G01*
X126556820Y-93511325D01*
G75*
G02*
X126556820Y-93157771I176777J176777D01*
G01*
X127228571Y-92486020D01*
G75*
G02*
X127582125Y-92486020I176777J-176777D01*
G01*
X127935678Y-92839573D01*
G75*
G02*
X127935678Y-93193127I-176777J-176777D01*
G01*
G37*
G36*
G01*
X129279180Y-94536629D02*
X128607429Y-95208380D01*
G75*
G02*
X128253875Y-95208380I-176777J176777D01*
G01*
X127900322Y-94854827D01*
G75*
G02*
X127900322Y-94501273I176777J176777D01*
G01*
X128572073Y-93829522D01*
G75*
G02*
X128925627Y-93829522I176777J-176777D01*
G01*
X129279180Y-94183075D01*
G75*
G02*
X129279180Y-94536629I-176777J-176777D01*
G01*
G37*
%TD*%
%TO.C,C14*%
G36*
G01*
X132116600Y-77711000D02*
X133066600Y-77711000D01*
G75*
G02*
X133316600Y-77961000I0J-250000D01*
G01*
X133316600Y-78461000D01*
G75*
G02*
X133066600Y-78711000I-250000J0D01*
G01*
X132116600Y-78711000D01*
G75*
G02*
X131866600Y-78461000I0J250000D01*
G01*
X131866600Y-77961000D01*
G75*
G02*
X132116600Y-77711000I250000J0D01*
G01*
G37*
G36*
G01*
X132116600Y-75811000D02*
X133066600Y-75811000D01*
G75*
G02*
X133316600Y-76061000I0J-250000D01*
G01*
X133316600Y-76561000D01*
G75*
G02*
X133066600Y-76811000I-250000J0D01*
G01*
X132116600Y-76811000D01*
G75*
G02*
X131866600Y-76561000I0J250000D01*
G01*
X131866600Y-76061000D01*
G75*
G02*
X132116600Y-75811000I250000J0D01*
G01*
G37*
%TD*%
%TO.C,C12*%
G36*
G01*
X82850800Y-77039600D02*
X81900800Y-77039600D01*
G75*
G02*
X81650800Y-76789600I0J250000D01*
G01*
X81650800Y-76289600D01*
G75*
G02*
X81900800Y-76039600I250000J0D01*
G01*
X82850800Y-76039600D01*
G75*
G02*
X83100800Y-76289600I0J-250000D01*
G01*
X83100800Y-76789600D01*
G75*
G02*
X82850800Y-77039600I-250000J0D01*
G01*
G37*
G36*
G01*
X82850800Y-78939600D02*
X81900800Y-78939600D01*
G75*
G02*
X81650800Y-78689600I0J250000D01*
G01*
X81650800Y-78189600D01*
G75*
G02*
X81900800Y-77939600I250000J0D01*
G01*
X82850800Y-77939600D01*
G75*
G02*
X83100800Y-78189600I0J-250000D01*
G01*
X83100800Y-78689600D01*
G75*
G02*
X82850800Y-78939600I-250000J0D01*
G01*
G37*
%TD*%
%TO.C,C11*%
G36*
G01*
X87257624Y-58166527D02*
X86585873Y-57494776D01*
G75*
G02*
X86585873Y-57141222I176777J176777D01*
G01*
X86939426Y-56787669D01*
G75*
G02*
X87292980Y-56787669I176777J-176777D01*
G01*
X87964731Y-57459420D01*
G75*
G02*
X87964731Y-57812974I-176777J-176777D01*
G01*
X87611178Y-58166527D01*
G75*
G02*
X87257624Y-58166527I-176777J176777D01*
G01*
G37*
G36*
G01*
X85914122Y-59510029D02*
X85242371Y-58838278D01*
G75*
G02*
X85242371Y-58484724I176777J176777D01*
G01*
X85595924Y-58131171D01*
G75*
G02*
X85949478Y-58131171I176777J-176777D01*
G01*
X86621229Y-58802922D01*
G75*
G02*
X86621229Y-59156476I-176777J-176777D01*
G01*
X86267676Y-59510029D01*
G75*
G02*
X85914122Y-59510029I-176777J176777D01*
G01*
G37*
%TD*%
%TO.C,C10*%
G36*
G01*
X109459800Y-53377800D02*
X110409800Y-53377800D01*
G75*
G02*
X110659800Y-53627800I0J-250000D01*
G01*
X110659800Y-54127800D01*
G75*
G02*
X110409800Y-54377800I-250000J0D01*
G01*
X109459800Y-54377800D01*
G75*
G02*
X109209800Y-54127800I0J250000D01*
G01*
X109209800Y-53627800D01*
G75*
G02*
X109459800Y-53377800I250000J0D01*
G01*
G37*
G36*
G01*
X109459800Y-51477800D02*
X110409800Y-51477800D01*
G75*
G02*
X110659800Y-51727800I0J-250000D01*
G01*
X110659800Y-52227800D01*
G75*
G02*
X110409800Y-52477800I-250000J0D01*
G01*
X109459800Y-52477800D01*
G75*
G02*
X109209800Y-52227800I0J250000D01*
G01*
X109209800Y-51727800D01*
G75*
G02*
X109459800Y-51477800I250000J0D01*
G01*
G37*
%TD*%
%TO.C,C9*%
G36*
G01*
X121067600Y-54343000D02*
X122017600Y-54343000D01*
G75*
G02*
X122267600Y-54593000I0J-250000D01*
G01*
X122267600Y-55093000D01*
G75*
G02*
X122017600Y-55343000I-250000J0D01*
G01*
X121067600Y-55343000D01*
G75*
G02*
X120817600Y-55093000I0J250000D01*
G01*
X120817600Y-54593000D01*
G75*
G02*
X121067600Y-54343000I250000J0D01*
G01*
G37*
G36*
G01*
X121067600Y-52443000D02*
X122017600Y-52443000D01*
G75*
G02*
X122267600Y-52693000I0J-250000D01*
G01*
X122267600Y-53193000D01*
G75*
G02*
X122017600Y-53443000I-250000J0D01*
G01*
X121067600Y-53443000D01*
G75*
G02*
X120817600Y-53193000I0J250000D01*
G01*
X120817600Y-52693000D01*
G75*
G02*
X121067600Y-52443000I250000J0D01*
G01*
G37*
%TD*%
%TO.C,C8*%
G36*
G01*
X101200200Y-51777200D02*
X101200200Y-50827200D01*
G75*
G02*
X101450200Y-50577200I250000J0D01*
G01*
X101950200Y-50577200D01*
G75*
G02*
X102200200Y-50827200I0J-250000D01*
G01*
X102200200Y-51777200D01*
G75*
G02*
X101950200Y-52027200I-250000J0D01*
G01*
X101450200Y-52027200D01*
G75*
G02*
X101200200Y-51777200I0J250000D01*
G01*
G37*
G36*
G01*
X99300200Y-51777200D02*
X99300200Y-50827200D01*
G75*
G02*
X99550200Y-50577200I250000J0D01*
G01*
X100050200Y-50577200D01*
G75*
G02*
X100300200Y-50827200I0J-250000D01*
G01*
X100300200Y-51777200D01*
G75*
G02*
X100050200Y-52027200I-250000J0D01*
G01*
X99550200Y-52027200D01*
G75*
G02*
X99300200Y-51777200I0J250000D01*
G01*
G37*
%TD*%
%TO.C,C7*%
G36*
G01*
X102825800Y-49770600D02*
X102825800Y-48820600D01*
G75*
G02*
X103075800Y-48570600I250000J0D01*
G01*
X103575800Y-48570600D01*
G75*
G02*
X103825800Y-48820600I0J-250000D01*
G01*
X103825800Y-49770600D01*
G75*
G02*
X103575800Y-50020600I-250000J0D01*
G01*
X103075800Y-50020600D01*
G75*
G02*
X102825800Y-49770600I0J250000D01*
G01*
G37*
G36*
G01*
X100925800Y-49770600D02*
X100925800Y-48820600D01*
G75*
G02*
X101175800Y-48570600I250000J0D01*
G01*
X101675800Y-48570600D01*
G75*
G02*
X101925800Y-48820600I0J-250000D01*
G01*
X101925800Y-49770600D01*
G75*
G02*
X101675800Y-50020600I-250000J0D01*
G01*
X101175800Y-50020600D01*
G75*
G02*
X100925800Y-49770600I0J250000D01*
G01*
G37*
%TD*%
%TO.C,R10*%
G36*
G01*
X100500000Y-81038400D02*
X100500000Y-81408400D01*
G75*
G02*
X100365000Y-81543400I-135000J0D01*
G01*
X100095000Y-81543400D01*
G75*
G02*
X99960000Y-81408400I0J135000D01*
G01*
X99960000Y-81038400D01*
G75*
G02*
X100095000Y-80903400I135000J0D01*
G01*
X100365000Y-80903400D01*
G75*
G02*
X100500000Y-81038400I0J-135000D01*
G01*
G37*
G36*
G01*
X101520000Y-81038400D02*
X101520000Y-81408400D01*
G75*
G02*
X101385000Y-81543400I-135000J0D01*
G01*
X101115000Y-81543400D01*
G75*
G02*
X100980000Y-81408400I0J135000D01*
G01*
X100980000Y-81038400D01*
G75*
G02*
X101115000Y-80903400I135000J0D01*
G01*
X101385000Y-80903400D01*
G75*
G02*
X101520000Y-81038400I0J-135000D01*
G01*
G37*
%TD*%
%TO.C,R4*%
G36*
G01*
X109935500Y-58459500D02*
X109935500Y-58089500D01*
G75*
G02*
X110070500Y-57954500I135000J0D01*
G01*
X110340500Y-57954500D01*
G75*
G02*
X110475500Y-58089500I0J-135000D01*
G01*
X110475500Y-58459500D01*
G75*
G02*
X110340500Y-58594500I-135000J0D01*
G01*
X110070500Y-58594500D01*
G75*
G02*
X109935500Y-58459500I0J135000D01*
G01*
G37*
G36*
G01*
X108915500Y-58459500D02*
X108915500Y-58089500D01*
G75*
G02*
X109050500Y-57954500I135000J0D01*
G01*
X109320500Y-57954500D01*
G75*
G02*
X109455500Y-58089500I0J-135000D01*
G01*
X109455500Y-58459500D01*
G75*
G02*
X109320500Y-58594500I-135000J0D01*
G01*
X109050500Y-58594500D01*
G75*
G02*
X108915500Y-58459500I0J135000D01*
G01*
G37*
%TD*%
%TO.C,R3*%
G36*
G01*
X105196400Y-65499000D02*
X105196400Y-65129000D01*
G75*
G02*
X105331400Y-64994000I135000J0D01*
G01*
X105601400Y-64994000D01*
G75*
G02*
X105736400Y-65129000I0J-135000D01*
G01*
X105736400Y-65499000D01*
G75*
G02*
X105601400Y-65634000I-135000J0D01*
G01*
X105331400Y-65634000D01*
G75*
G02*
X105196400Y-65499000I0J135000D01*
G01*
G37*
G36*
G01*
X104176400Y-65499000D02*
X104176400Y-65129000D01*
G75*
G02*
X104311400Y-64994000I135000J0D01*
G01*
X104581400Y-64994000D01*
G75*
G02*
X104716400Y-65129000I0J-135000D01*
G01*
X104716400Y-65499000D01*
G75*
G02*
X104581400Y-65634000I-135000J0D01*
G01*
X104311400Y-65634000D01*
G75*
G02*
X104176400Y-65499000I0J135000D01*
G01*
G37*
%TD*%
%TO.C,R1*%
G36*
G01*
X102786000Y-65129000D02*
X102786000Y-65499000D01*
G75*
G02*
X102651000Y-65634000I-135000J0D01*
G01*
X102381000Y-65634000D01*
G75*
G02*
X102246000Y-65499000I0J135000D01*
G01*
X102246000Y-65129000D01*
G75*
G02*
X102381000Y-64994000I135000J0D01*
G01*
X102651000Y-64994000D01*
G75*
G02*
X102786000Y-65129000I0J-135000D01*
G01*
G37*
G36*
G01*
X103806000Y-65129000D02*
X103806000Y-65499000D01*
G75*
G02*
X103671000Y-65634000I-135000J0D01*
G01*
X103401000Y-65634000D01*
G75*
G02*
X103266000Y-65499000I0J135000D01*
G01*
X103266000Y-65129000D01*
G75*
G02*
X103401000Y-64994000I135000J0D01*
G01*
X103671000Y-64994000D01*
G75*
G02*
X103806000Y-65129000I0J-135000D01*
G01*
G37*
%TD*%
%TO.C,C6*%
G36*
G01*
X100540000Y-82044000D02*
X100540000Y-82384000D01*
G75*
G02*
X100400000Y-82524000I-140000J0D01*
G01*
X100120000Y-82524000D01*
G75*
G02*
X99980000Y-82384000I0J140000D01*
G01*
X99980000Y-82044000D01*
G75*
G02*
X100120000Y-81904000I140000J0D01*
G01*
X100400000Y-81904000D01*
G75*
G02*
X100540000Y-82044000I0J-140000D01*
G01*
G37*
G36*
G01*
X101500000Y-82044000D02*
X101500000Y-82384000D01*
G75*
G02*
X101360000Y-82524000I-140000J0D01*
G01*
X101080000Y-82524000D01*
G75*
G02*
X100940000Y-82384000I0J140000D01*
G01*
X100940000Y-82044000D01*
G75*
G02*
X101080000Y-81904000I140000J0D01*
G01*
X101360000Y-81904000D01*
G75*
G02*
X101500000Y-82044000I0J-140000D01*
G01*
G37*
%TD*%
%TO.C,C5*%
G36*
G01*
X100265000Y-84873800D02*
X101215000Y-84873800D01*
G75*
G02*
X101465000Y-85123800I0J-250000D01*
G01*
X101465000Y-85623800D01*
G75*
G02*
X101215000Y-85873800I-250000J0D01*
G01*
X100265000Y-85873800D01*
G75*
G02*
X100015000Y-85623800I0J250000D01*
G01*
X100015000Y-85123800D01*
G75*
G02*
X100265000Y-84873800I250000J0D01*
G01*
G37*
G36*
G01*
X100265000Y-82973800D02*
X101215000Y-82973800D01*
G75*
G02*
X101465000Y-83223800I0J-250000D01*
G01*
X101465000Y-83723800D01*
G75*
G02*
X101215000Y-83973800I-250000J0D01*
G01*
X100265000Y-83973800D01*
G75*
G02*
X100015000Y-83723800I0J250000D01*
G01*
X100015000Y-83223800D01*
G75*
G02*
X100265000Y-82973800I250000J0D01*
G01*
G37*
%TD*%
M02*
